<svg width="297" height="341" viewBox="0 0 297 341" fill="none" xmlns="http://www.w3.org/2000/svg">
<path d="M269.58 324.81C268.652 324.642 267.753 324.412 266.907 324.128C260.711 322.044 257.208 316.981 256.055 310.463C255.946 309.846 255.055 309.846 254.946 310.463C253.606 318.037 249.148 323.393 241.459 324.82C240.848 324.933 240.848 325.814 241.459 325.928C249.077 327.337 253.614 332.682 254.948 340.196C255.032 340.669 255.532 340.671 255.504 340.66C255.777 340.66 256.011 340.463 256.058 340.194C256.738 336.32 258.646 331.056 263.877 327.983C265.548 327.002 267.468 326.308 269.582 325.918C269.849 325.869 270.043 325.636 270.043 325.364C270.043 325.092 269.848 324.859 269.58 324.81Z" fill="#F1A34F"/>
<path d="M247.346 322.625C245.541 323.728 243.539 324.433 241.459 324.82C240.847 324.933 240.847 325.814 241.459 325.927C249.077 327.337 253.613 332.682 254.948 340.195C255.032 340.669 255.532 340.671 255.503 340.66C255.776 340.66 256.01 340.463 256.057 340.194C256.434 338.049 257.188 335.479 258.672 333.09C256.658 327.485 252.81 323.997 247.346 322.625Z" fill="#F4D463"/>
<rect x="280" y="273" width="6.7033" height="6.7033" fill="#D86713"/>
<path d="M112.941 32.9349C111.658 32.5095 110.809 31.5534 110.396 30.2321C110.322 29.9949 110.072 29.9975 110.081 30.0007C109.937 30.0007 109.81 30.0944 109.767 30.2319C109.367 31.509 108.53 32.486 107.222 32.9336C106.926 33.0351 106.926 33.4559 107.222 33.5575C108.521 34.0021 109.364 34.9714 109.767 36.2606C109.842 36.4983 110.091 36.4949 110.082 36.4918C110.227 36.4916 110.354 36.3974 110.397 36.2595C110.695 35.2945 111.222 34.5484 111.961 34.0419C111.961 34.0419 111.961 34.0419 111.961 34.0419C112.77 33.4878 113.167 33.6486 113.167 33.2474C113.166 33.1054 113.075 32.9796 112.941 32.9349Z" fill="#A8D29F"/>
<path d="M31.7693 5.32036C29.4345 4.54605 27.9027 2.80623 27.1567 0.420654C27.0223 -0.0093454 26.5691 -0.00454484 26.5862 0.00132242C26.325 0.00132242 26.0939 0.171117 26.0159 0.420298C25.2921 2.73049 23.7777 4.50472 21.4032 5.31805C20.8662 5.50198 20.8656 6.2649 21.4033 6.44901C23.7634 7.257 25.2871 9.01842 26.0166 11.3491C26.1515 11.78 26.6042 11.7738 26.588 11.7682C26.8497 11.7678 27.0808 11.5971 27.1581 11.3472C28.0536 8.45117 29.8569 7.46315 29.9943 7.32723C31.4561 6.32553 32.1799 6.61036 32.1789 5.8869C32.1784 5.62945 32.0135 5.40134 31.7693 5.32036Z" fill="#78B769"/>
<path d="M23.5564 4.15198C21.9085 5.46936 21 5.10105 21 5.88362C21 6.1392 21.1624 6.36634 21.4041 6.44901C23.7643 7.25701 25.2879 9.01843 26.0174 11.3491C26.1523 11.78 26.605 11.7738 26.5888 11.7682C27.3885 11.7668 27.0043 10.8331 28.273 9.03123C26.9668 4.99873 23.8515 4.34489 23.5564 4.15198Z" fill="#82B378"/>
<circle cx="28.9616" cy="32.9616" r="1.96159" fill="#C4D9ED"/>
<circle cx="76.9232" cy="11.9232" r="3.92317" fill="#D86713"/>
<path d="M12.7929 79.6293C12.3774 79.5538 11.9749 79.4511 11.5965 79.3238C8.8227 78.391 7.25469 76.1248 6.73879 73.2073C6.68981 72.9309 6.29111 72.9309 6.24213 73.2073C5.64255 76.5974 3.64704 78.9948 0.205246 79.6336C-0.0684777 79.6844 -0.0684028 80.0788 0.205396 80.1295C3.61542 80.7602 5.64585 83.1531 6.24337 86.5161C6.28098 86.728 6.50471 86.7291 6.49196 86.7241C6.61427 86.724 6.71891 86.636 6.74003 86.5156C7.04424 84.7813 7.89835 82.4251 10.24 81.0495C10.9881 80.6104 11.8472 80.2996 12.7935 80.1254C12.9132 80.1034 13.0001 79.9989 13 79.8771C12.9998 79.7553 12.9127 79.651 12.7929 79.6293Z" fill="#0EC77C"/>
<path d="M210.735 16.5991C210.321 16.524 209.92 16.4217 209.544 16.295C206.783 15.3665 205.222 13.1105 204.708 10.2064C204.659 9.93123 204.263 9.93119 204.214 10.2064C203.617 13.581 201.63 15.9675 198.204 16.6034C197.932 16.654 197.932 17.0466 198.204 17.0971C201.599 17.7249 203.62 20.1069 204.215 23.4546C204.252 23.6655 204.475 23.6666 204.462 23.6617C204.584 23.6616 204.688 23.574 204.709 23.4541C205.012 21.7277 205.862 19.3823 208.193 18.0129C208.938 17.5758 209.793 17.2664 210.735 17.093C210.854 17.0711 210.941 16.9671 210.941 16.8459C210.941 16.7246 210.854 16.6208 210.735 16.5991Z" fill="#0EC77C"/>
<path d="M200.828 15.6254C200.023 16.1172 199.131 16.4313 198.204 16.6033C197.932 16.6539 197.932 17.0465 198.204 17.097C201.599 17.7249 203.62 20.1068 204.215 23.4546C204.252 23.6655 204.475 23.6666 204.462 23.6617C204.584 23.6615 204.688 23.5739 204.709 23.454C204.877 22.4984 205.213 21.3531 205.875 20.2886C204.977 17.7912 203.263 16.2367 200.828 15.6254Z" fill="#08C47E"/>
<circle cx="290" cy="114" r="7" fill="#C4D9ED"/>
<rect x="253" y="24" width="6.7033" height="6.7033" fill="#D86713"/>
</svg>
