<svg width="102" height="88" viewBox="0 0 102 88" fill="none" xmlns="http://www.w3.org/2000/svg">
<path d="M48.3306 31.191C50.6106 29.5537 52.7306 27.7601 54.7106 25.8285C55.5206 25.0467 54.7806 23.8877 53.7106 23.8601C49.3406 23.7774 45.0306 23.3358 40.7406 22.5632C38.2606 17.8906 35.2806 13.4939 31.8106 9.38241C32.1106 7.97511 29.7106 7.50603 29.3106 8.94092L24.7906 25.2582C20.3006 24.9731 15.8106 24.9179 11.3106 25.1203C10.1606 25.1663 9.78062 26.4356 10.5106 27.1438C13.9706 30.5471 17.8906 33.3801 22.2606 35.698C20.9706 39.0093 20.1006 42.3942 19.8206 45.9262C19.6706 47.8394 18.7406 52.6408 21.9206 53.0639C24.7706 53.4502 27.3706 49.4215 28.8306 47.775C31.3706 44.896 33.6506 41.8331 35.7306 38.6598C39.3406 42.0906 42.9506 45.5307 46.5606 48.9615C47.2606 49.6238 48.4406 49.1731 48.6706 48.3545C49.8306 44.1786 47.4406 39.3864 45.8206 35.2841C45.9006 34.6494 45.5806 34.3827 45.5506 33.7204C45.5206 32.9294 45.6406 33.0122 46.4806 32.4603C47.1006 32.0464 47.7206 31.6233 48.3306 31.191ZM44.3506 30.9702C43.6806 31.4117 42.9206 31.844 42.7006 32.635C42.6006 33.003 42.7206 33.3525 42.8806 33.6928C42.7606 33.9228 42.7206 34.1987 42.8306 34.5207C43.5706 36.6454 44.3206 38.7701 45.0606 40.8949C45.5806 42.385 46.1906 43.875 46.3506 45.4019C43.3206 42.5229 40.2906 39.6348 37.2606 36.7558C36.7506 36.2683 36.1306 36.3511 35.6906 36.673C35.1206 36.3235 34.2706 36.3327 33.8206 37.0225C32.3406 39.322 30.7606 41.5663 29.0306 43.7095C27.5906 45.5031 25.9106 47.9314 24.0006 49.3295C23.6406 50.0101 23.0706 50.3045 22.2706 50.2125L22.2306 49.1087C21.7306 47.7014 22.3606 45.3375 22.5706 43.921C22.9906 41.0972 23.8106 38.3654 24.9206 35.7164C25.1706 35.1185 25.0606 34.4655 24.3906 34.1343C20.6906 32.2671 17.3506 30.0136 14.3206 27.3738C18.0306 27.3002 21.7306 27.3738 25.4306 27.6313C25.9006 27.6589 26.2106 27.4933 26.4006 27.2266C26.7006 27.0978 26.9606 26.8495 27.0606 26.4724L30.9906 12.289C33.9306 15.9774 36.4906 19.8866 38.6606 24.0073C38.8606 24.3936 39.1806 24.5592 39.5106 24.5776C39.6606 24.7064 39.8506 24.7983 40.1006 24.8443C43.6406 25.4882 47.2006 25.8929 50.7906 26.086C48.7906 27.8521 46.6306 29.4525 44.3506 30.9702Z" fill="#08D187"/>
<path d="M59.5407 13.9631C56.7007 8.03957 51.5707 3.6521 44.9507 1.47217C44.1807 1.21462 43.9107 2.36439 44.6707 2.61274C50.8207 4.6363 55.6907 8.82138 58.3307 14.3218C58.6507 15.0024 59.8707 14.6529 59.5407 13.9631Z" fill="#08D187"/>
<path d="M63.7705 8.35228C61.7905 4.95823 58.9805 2.18044 55.4605 0.0925015C54.7705 -0.312209 54.1805 0.717986 54.8605 1.1227C58.1905 3.10026 60.8305 5.76764 62.7005 8.97773C63.0805 9.64918 64.1505 9.01453 63.7705 8.35228Z" fill="#08D187"/>
<path d="M6.67069 53.2755C3.84069 50.3598 1.98069 46.8185 1.28069 42.9645C1.15069 42.2287 -0.129317 42.2747 0.0106826 43.0197C0.780683 47.214 2.73069 50.9668 5.81069 54.1309C6.35069 54.7012 7.21069 53.8366 6.67069 53.2755Z" fill="#08D187"/>
<path d="M93.7782 76.0527C94.8999 75.2471 95.9429 74.3647 96.9171 73.4144C97.3156 73.0297 96.9515 72.4595 96.4251 72.446C94.2751 72.4052 92.1546 72.188 90.044 71.8079C88.8239 69.509 87.3578 67.3459 85.6506 65.3231C85.7982 64.6307 84.6174 64.3999 84.4206 65.1059L82.1968 73.1338C79.9878 72.9935 77.7788 72.9664 75.5649 73.0659C74.9991 73.0886 74.8121 73.713 75.1713 74.0615C76.8735 75.7359 78.8021 77.1297 80.9521 78.2701C80.3174 79.8992 79.8894 81.5645 79.7517 83.3022C79.6779 84.2435 79.2203 86.6057 80.7848 86.8139C82.187 87.004 83.4662 85.0219 84.1845 84.2118C85.4341 82.7954 86.5558 81.2885 87.5792 79.7272C89.3552 81.4152 91.1313 83.1076 92.9074 84.7956C93.2518 85.1214 93.8323 84.8997 93.9455 84.4969C94.5162 82.4424 93.3403 80.0847 92.5433 78.0664C92.5827 77.7542 92.4252 77.6229 92.4105 77.2971C92.3957 76.9079 92.4547 76.9487 92.868 76.6771C93.173 76.4735 93.4781 76.2653 93.7782 76.0527ZM91.8201 75.944C91.4904 76.1613 91.1165 76.3739 91.0083 76.7631C90.9591 76.9441 91.0181 77.1161 91.0969 77.2835C91.0378 77.3967 91.0181 77.5324 91.0723 77.6908C91.4363 78.7362 91.8053 79.7815 92.1694 80.8269C92.4252 81.56 92.7253 82.2931 92.8041 83.0443C91.3133 81.6279 89.8226 80.2069 88.3319 78.7905C88.081 78.5506 87.776 78.5914 87.5595 78.7497C87.2791 78.5778 86.8609 78.5823 86.6395 78.9217C85.9113 80.053 85.134 81.1572 84.2829 82.2116C83.5744 83.0941 82.7479 84.2888 81.8082 84.9766C81.6311 85.3115 81.3506 85.4563 80.957 85.411L80.9373 84.868C80.6914 84.1756 81.0013 83.0126 81.1046 82.3157C81.3113 80.9264 81.7147 79.5824 82.2608 78.2791C82.3838 77.985 82.3297 77.6637 82 77.5007C80.1797 76.5821 78.5365 75.4734 77.0457 74.1746C78.871 74.1384 80.6914 74.1746 82.5117 74.3013C82.7429 74.3149 82.8955 74.2335 82.9889 74.1022C83.1365 74.0389 83.2644 73.9167 83.3136 73.7312L85.2471 66.7531C86.6936 68.5677 87.9531 70.491 89.0207 72.5184C89.1191 72.7084 89.2765 72.7899 89.4389 72.7989C89.5127 72.8623 89.6061 72.9075 89.7291 72.9302C91.4708 73.2469 93.2222 73.4461 94.9885 73.5411C94.0045 74.4099 92.9418 75.1974 91.8201 75.944Z" fill="#1EE592"/>
<path d="M99.2933 67.5768C97.8961 64.6624 95.3722 62.5038 92.1152 61.4313C91.7364 61.3046 91.6036 61.8703 91.9775 61.9925C95.0032 62.9881 97.3992 65.0471 98.698 67.7533C98.8555 68.0881 99.4557 67.9162 99.2933 67.5768Z" fill="#1EE592"/>
<path d="M101.374 64.8164C100.4 63.1465 99.0178 61.7798 97.286 60.7525C96.9465 60.5534 96.6563 61.0603 96.9908 61.2594C98.6291 62.2324 99.928 63.5447 100.848 65.1241C101.035 65.4544 101.561 65.1422 101.374 64.8164Z" fill="#1EE592"/>
<path d="M73.2818 86.9181C71.8895 85.4835 70.9745 83.7412 70.6301 81.845C70.5661 81.483 69.9364 81.5056 70.0053 81.8722C70.3841 83.9358 71.3434 85.7822 72.8587 87.3389C73.1244 87.6195 73.5475 87.1941 73.2818 86.9181Z" fill="#1EE592"/>
</svg>
