<svg width="165" height="85" viewBox="0 0 165 85" fill="none" xmlns="http://www.w3.org/2000/svg">
<path d="M61.5713 62.7405C59.9362 62.1983 58.8546 60.9798 58.3284 59.2958C58.2338 58.9934 57.9151 58.9968 57.9272 59.0009C57.7436 59.0009 57.5811 59.1203 57.5262 59.2955C57.0164 60.9231 55.9494 62.1684 54.2833 62.7388C53.9057 62.8681 53.9054 63.4045 54.2834 63.5339C55.9386 64.1006 57.0126 65.336 57.5267 66.979C57.6216 67.282 57.9397 67.2776 57.9286 67.2737C58.1126 67.2734 58.2749 67.1534 58.3293 66.9776C58.7096 65.7477 59.3804 64.7969 60.3231 64.1514C60.3232 64.1513 60.3232 64.1513 60.3232 64.1513C61.3539 63.4452 61.8599 63.6501 61.8591 63.1387C61.8589 62.9578 61.7429 62.7974 61.5713 62.7405Z" fill="#F7F7F7"/>
<path d="M55.9587 61.8285C55.9469 61.8244 55.9359 61.8188 55.9247 61.8137C55.4412 62.2291 54.8864 62.5324 54.2834 62.7389C53.9058 62.8682 53.9054 63.4046 54.2834 63.534C55.9387 64.1007 57.0126 65.3361 57.5268 66.9791C57.6217 67.2821 57.9398 67.2777 57.9286 67.2738C58.5204 67.2727 58.2056 66.5659 59.1916 65.242C58.6672 63.5953 57.5872 62.3859 55.9587 61.8285Z" fill="white"/>
<path d="M16.7257 30.7807C13.75 29.7938 11.7978 27.5765 10.847 24.5361C10.6757 23.9881 10.0981 23.9942 10.1199 24.0017C9.78696 24.0017 9.4925 24.2181 9.39302 24.5357C8.47066 27.48 6.5405 29.7412 3.5143 30.7777C2.82986 31.0121 2.82918 31.9845 3.51441 32.2191C6.52238 33.2489 8.4642 35.4938 9.39393 38.4641C9.56592 39.0134 10.1428 39.0055 10.1222 38.9983C10.4558 38.9978 10.7502 38.7802 10.8488 38.4618C11.9901 34.7708 14.2883 33.5116 14.4635 33.3384C16.3266 32.0617 17.2489 32.4248 17.2477 31.5027C17.2471 31.1746 17.0368 30.8839 16.7257 30.7807Z" fill="#F7F7F7"/>
<path d="M6.25801 29.2915C4.15791 30.9705 3 30.5011 3 31.4984C3 31.8242 3.207 32.1137 3.51506 32.219C6.52302 33.2488 8.46484 35.4937 9.39457 38.464C9.56656 39.0133 10.1435 39.0054 10.1229 38.9982C11.142 38.9964 10.6523 37.8065 12.2693 35.51C10.6046 30.3707 6.63416 29.5374 6.25801 29.2915Z" fill="white"/>
<circle cx="2.5" cy="82.5" r="2.5" fill="#C4D9ED"/>
<circle cx="31" cy="5" r="5" fill="white"/>
<path d="M164.318 31.0468C163.625 30.9211 162.955 30.7499 162.324 30.5378C157.702 28.9834 155.089 25.207 154.229 20.3454C154.148 19.8849 153.483 19.8848 153.402 20.3454C152.403 25.9946 149.077 29.9895 143.342 31.054C142.886 31.1386 142.886 31.7959 143.342 31.8804C149.025 32.9314 152.408 36.9188 153.404 42.5229C153.466 42.8759 153.839 42.8778 153.818 42.8696C154.022 42.8693 154.196 42.7227 154.231 42.522C154.738 39.6321 156.162 35.7058 160.064 33.4134C161.31 32.6818 162.742 32.1638 164.319 31.8736C164.518 31.8369 164.663 31.6628 164.663 31.4599C164.663 31.2569 164.517 31.0831 164.318 31.0468Z" fill="white"/>
<path d="M147.733 29.417C146.387 30.2402 144.894 30.7659 143.342 31.054C142.886 31.1386 142.886 31.7959 143.342 31.8804C149.025 32.9314 152.408 36.9188 153.404 42.5229C153.466 42.8759 153.839 42.8777 153.818 42.8696C154.022 42.8693 154.196 42.7227 154.231 42.522C154.512 40.9222 155.074 39.0051 156.182 37.2231C154.679 33.0425 151.809 30.4402 147.733 29.417Z" fill="white"/>
</svg>
