<svg width="399" height="174" viewBox="0 0 399 174" fill="none" xmlns="http://www.w3.org/2000/svg">
<mask id="mask0" style="mask-type:alpha" maskUnits="userSpaceOnUse" x="-18" y="-44" width="453" height="325">
<g clip-path="url(#clip0)">
<path d="M51.7271 66.099C76.4002 57.624 106.387 57.486 134.236 57.3592C155.383 57.2622 175.358 57.17 191.046 53.503C205.985 50.0041 223.951 41.2166 242.968 31.9074C288.238 9.74931 339.547 -15.3695 377.326 15.4284C412.266 43.9127 407.839 93.5113 385.933 125.716C349.224 179.683 271.685 204.606 228.725 214.654C189.626 223.804 114.816 234.529 53.084 203.561C29.206 191.583 11.5346 172.603 4.59978 151.488C-0.812093 135.008 0.687765 117.738 8.93697 101.544C18.364 83.0393 33.6147 72.3206 51.7271 66.099ZM201.428 51.6457C197.928 52.8481 194.549 53.8513 191.304 54.6093C175.491 58.3062 155.454 58.3986 134.241 58.4959C86.274 58.7149 31.904 58.9652 9.94993 102.06C1.72517 118.205 0.288621 134.717 5.67989 151.133C12.5212 171.962 29.9854 190.701 53.5943 202.545C115.005 233.352 189.517 222.662 228.467 213.548C271.258 203.53 348.499 178.724 384.992 125.077C406.615 93.2898 411.024 44.3664 376.607 16.309C339.394 -14.0296 288.433 10.9193 243.468 32.9283C228.499 40.2554 214.18 47.2656 201.428 51.6457Z" fill="#DDF7FF"/>
<path d="M73.925 82.7098C97.2714 74.6881 125.032 74.0987 150.731 73.5519C170.105 73.139 188.405 72.7489 203.176 69.3255C215.584 66.4471 231.356 58.8792 248.054 50.8655C288.346 31.5261 334.014 9.60941 365.884 33.0775C395.755 55.0728 395.782 100.034 377.066 128.227C344.926 176.646 278.438 200.794 228.321 212.522C191.235 221.202 120.77 231.258 65.5409 201.077C44.8146 189.752 30.4289 172.56 26.0722 153.911C22.5996 139.051 25.836 123.966 35.4313 110.287C45.116 96.4789 58.5678 87.9861 73.925 82.7098ZM212.156 67.8795C209.105 68.9274 206.189 69.7941 203.432 70.4325C188.547 73.8832 170.19 74.2742 150.755 74.688C108.42 75.5912 60.4398 76.6138 36.3619 110.939C26.9587 124.347 23.7829 139.117 27.1785 153.653C31.4621 171.987 45.6435 188.909 66.0857 200.08C120.983 230.079 191.133 220.059 228.063 211.416C268.925 201.852 342.498 178.244 376.12 127.599C394.545 99.8407 394.558 55.6047 365.21 33.9921C333.89 10.9287 288.549 32.6901 248.546 51.8913C235.476 58.1638 222.971 64.1646 212.156 67.8795Z" fill="#DDF7FF"/>
<path d="M100.189 93.6879C122.835 85.9077 148.955 84.0474 173.118 82.3242C190.933 81.0535 207.761 79.8532 221.977 76.5171C231.334 74.317 243.853 68.7798 257.11 62.9125C290.806 48.0011 332.744 29.4408 358.555 48.3231C384.388 67.2228 384.589 106.198 368.571 130.743C339.137 175.845 275.937 198.895 228.099 210.292C192.976 218.658 126.818 228.263 78.3612 198.594C61.9681 188.556 51.2344 173.669 48.9134 157.747C46.8365 143.496 51.4793 129.574 62.3396 117.486C72.5652 106.104 85.6641 98.6782 100.189 93.6879ZM230.158 75.2819C227.337 76.2509 224.683 77.0488 222.237 77.6226C207.932 80.981 191.061 82.1845 173.198 83.4574C133.752 86.2705 89.0453 89.4578 63.1848 118.245C52.5574 130.074 48.0114 143.677 50.0381 157.584C52.3108 173.17 62.8497 187.764 78.9554 197.624C127.063 227.08 192.883 217.511 227.836 209.185C275.465 197.84 338.388 174.909 367.618 130.122C383.353 106.014 383.196 67.7603 357.885 49.2413C332.601 30.7455 290.997 49.1574 257.57 63.9516C247.706 68.3178 238.247 72.5036 230.158 75.2819Z" fill="#DDF7FF"/>
<path d="M128.388 101.009C149.678 93.6962 173.479 90.6897 196.811 87.7436C212.695 85.7371 227.697 83.8423 241.241 80.6302C248.687 78.865 258.283 75.07 268.442 71.0533C296.856 59.8178 332.226 45.8337 353.64 61.8171C375.44 78.0912 374.11 111.573 360.376 133.263C330.128 181.025 257.768 201.408 228.062 207.958C166.916 221.434 122.238 217.558 91.4778 196.109C79.2558 187.588 72.3185 176.221 71.4166 163.238C70.448 149.3 76.869 134.837 89.0337 123.557C100.32 113.09 113.762 106.033 128.388 101.009ZM250.839 78.9486C247.482 80.1015 244.343 81.0636 241.504 81.7371C227.901 84.9624 212.869 86.8607 196.954 88.8706C157.772 93.821 117.259 98.9384 89.8059 124.39C77.8949 135.435 71.6065 149.566 72.5505 163.16C73.4278 175.787 80.1977 186.858 92.1272 195.177C122.614 216.434 166.998 220.252 227.816 206.848C257.384 200.332 329.396 180.058 359.416 132.653C372.879 111.392 374.239 78.6129 352.96 62.729C332.056 47.1247 297.021 60.9818 268.859 72.1107C262.51 74.6214 256.378 77.0459 250.839 78.9486Z" fill="#DDF7FF"/>
<path d="M156.924 106.355C177.262 99.3694 199.28 95.5156 220.879 91.7351C233.907 89.4538 246.213 87.2995 257.999 84.4998C263.614 83.1662 270.543 80.7475 277.875 78.1888C302.121 69.7338 332.276 59.1996 349.959 74.0547C367.68 88.94 364.446 116.972 352.405 135.792C326.984 175.525 270.863 195.636 228.255 205.508C196.238 212.929 137.626 221.252 104.811 193.614C96.3984 186.529 92.1776 177.969 92.2648 168.17C92.3833 154.83 100.712 140.159 114.543 128.924C127.102 118.724 141.532 111.643 156.924 106.355ZM272.821 81.1469C267.492 82.9774 262.516 84.5962 258.262 85.6067C246.442 88.4134 234.12 90.5707 221.074 92.8546C183.273 99.4715 144.183 106.313 115.26 129.807C101.892 140.665 93.5158 155.369 93.402 168.18C93.3171 177.624 97.4026 185.888 105.543 192.745C137.979 220.064 196.188 211.774 227.999 204.401C270.39 194.574 326.23 174.59 351.448 135.179C363.228 116.767 366.453 89.3932 349.228 74.9257C332.038 60.487 302.201 70.8944 278.25 79.2621C276.411 79.9044 274.595 80.5375 272.821 81.1469Z" fill="#DDF7FF"/>
<path d="M189.406 111.931C209.974 104.866 235.528 97.6234 267.218 90.3625C268.765 90.0086 270.036 89.7176 270.999 89.4911C274.899 88.5716 279.554 87.1464 284.483 85.6365C304.524 79.4988 331.972 71.0918 346.405 85.5609C359.72 98.9091 355.568 122.213 344.587 138.334C315.314 181.296 248.464 198.645 228.672 202.941C208.39 207.34 146.669 220.729 118.299 191.111C109.564 181.991 106.522 172.733 109.259 163.591C113.264 150.213 131.625 131.778 189.406 111.931ZM260.399 192.843C288.112 183.324 324.243 166.176 343.646 137.694C352.318 124.966 359.993 100.793 345.601 86.363C331.65 72.3796 304.58 80.6698 284.815 86.7242C279.869 88.2388 275.196 89.6691 271.259 90.5967C270.295 90.8245 269.022 91.1163 267.472 91.4713C147.284 119.011 115.691 146.067 110.347 163.917C107.737 172.637 110.689 181.523 119.12 190.324C147.05 219.483 208.303 206.197 228.432 201.831C234.961 200.413 246.645 197.567 260.399 192.843Z" fill="#DDF7FF"/>
<path d="M212.31 115.479C241.698 105.384 269.748 98.5294 279.888 96.1719C282.451 95.5756 285.501 94.7204 288.73 93.8154C305.293 89.1709 330.322 82.1533 341.969 96.0169C352.201 108.199 346.489 127.812 336.852 140.881C307.875 180.174 252.021 195.48 229.353 200.241C208.465 204.626 152.981 216.274 131.879 188.602C126.569 181.638 125.193 174.445 127.792 167.224C135.265 146.457 174.871 128.338 212.31 115.479ZM259.458 190.752C284.894 182.015 316.523 166.533 335.937 140.206C343.767 129.588 351.603 109.253 341.098 96.748C329.923 83.4453 305.318 90.3442 289.037 94.9096C285.795 95.8189 282.733 96.6771 280.146 97.2782C257.189 102.616 142.001 131.096 128.862 167.609C126.402 174.444 127.721 181.275 132.783 187.913C153.45 215.015 208.424 203.473 229.119 199.129C236.436 197.593 247.234 194.951 259.458 190.752Z" fill="#DDF7FF"/>
<path d="M223.904 122.113C254.385 111.643 282.392 105.229 284.775 104.69C286.533 104.293 288.572 103.756 290.931 103.134C305.241 99.3602 326.864 93.6592 336.116 105.612C344.472 116.41 336.519 134.144 329.135 143.429C309.137 168.575 272.195 188.753 230.319 197.401C183.423 207.084 154.081 203.16 145.464 186.053C142.611 180.389 142.565 174.549 145.329 168.692C154.196 149.904 190.532 133.576 223.904 122.113ZM256.925 188.953C287.162 178.567 312.808 162.134 328.246 142.72C335.133 134.06 343.116 116.516 335.216 106.308C326.426 94.9505 305.24 100.537 291.221 104.232C288.949 104.832 286.803 105.398 285.027 105.799C280.056 106.923 163.091 133.726 146.357 169.177C143.75 174.701 143.791 180.207 146.479 185.542C154.84 202.14 183.752 205.855 230.089 196.287C239.319 194.381 248.31 191.912 256.925 188.953Z" fill="#DDF7FF"/>
<path d="M227.914 130.423C254.872 121.163 280.581 115.287 285.898 114.109C302.423 110.449 323.846 109.571 329.835 119.142C333.584 125.133 330.74 134.154 321.381 145.957C298.869 174.344 260.133 187.971 231.603 194.404C228.933 195.006 166.132 208.856 159.012 183.491L159.559 183.337L159.012 183.491C157.642 178.611 158.446 173.634 161.402 168.699C170.635 153.281 199.946 140.03 227.914 130.423ZM257.005 186.072C280.009 178.171 304.436 165.494 320.49 145.251C329.518 133.867 332.338 125.285 328.872 119.744C323.197 110.677 302.307 111.639 286.144 115.22C275.357 117.607 180.262 139.414 162.377 169.283C159.588 173.939 158.824 178.616 160.106 183.183C166.938 207.521 228.726 193.888 231.354 193.295C239.3 191.504 248.048 189.149 257.005 186.072Z" fill="#DDF7FF"/>
<path d="M229.993 137.439C249.86 130.615 270.502 125.633 284.076 122.699C298.637 119.551 317.291 118.674 321.946 126.564C324.808 131.413 321.961 138.795 313.484 148.506C296.085 168.437 266.071 184.414 233.201 191.247C231.49 191.602 191.153 199.833 177.188 189.33C174.308 187.164 172.716 184.334 172.456 180.917C171.06 162.618 199.614 147.874 229.993 137.439ZM254.465 184.235C278.378 176.021 299.266 163.064 312.628 147.758C320.746 138.457 323.552 131.522 320.967 127.14C316.899 120.245 299.629 120.499 284.317 123.809C250.277 131.168 171.348 151.457 173.588 180.831C173.823 183.907 175.265 186.461 177.872 188.421C188.698 196.563 217.598 193.329 232.969 190.134C240.315 188.607 247.518 186.621 254.465 184.235Z" fill="#DDF7FF"/>
<path d="M236.702 142.538C256.827 135.625 276.192 131.422 280.473 130.529C290.483 128.441 308.493 126.788 312.503 133.846C314.709 137.729 312.319 143.515 305.4 151.042C286.546 171.552 256.752 183.532 235.159 187.908C228.128 189.331 197.706 193.291 188.403 185.005C186.404 183.224 185.503 180.988 185.726 178.361C187.009 163.178 212.409 150.883 236.702 142.538ZM253.23 181.771C271.182 175.605 290.819 165.227 304.563 150.273C311.109 143.15 313.449 137.812 311.514 134.408C308.306 128.76 293.295 129.015 280.705 131.642C271.34 133.596 189.135 151.513 186.858 178.458C186.665 180.741 187.418 182.604 189.16 184.156C197.471 191.559 225.62 188.68 234.933 186.793C240.583 185.649 246.8 183.98 253.23 181.771Z" fill="#DDF7FF"/>
<path d="M239.69 147.41C253.215 142.765 267.019 139.537 275.871 137.703C276.805 137.51 298.779 133.049 302.783 140.206C304.477 143.233 302.551 147.73 297.058 153.57C283.614 167.861 260.239 179.953 237.496 184.373C231.651 185.509 206.623 188.606 200.109 181.713C198.611 180.128 198.154 178.14 198.747 175.802C201.884 163.441 220.507 154 239.69 147.41ZM253.098 178.994C270.116 173.148 286.056 163.606 296.229 152.791C301.344 147.354 303.216 143.306 301.791 140.76C299.118 135.983 284.964 136.98 276.101 138.817C254.903 143.208 205.041 155.631 199.848 176.081L199.298 175.942L199.848 176.081C199.35 178.045 199.706 179.631 200.934 180.932C206.654 186.984 229.577 184.754 237.28 183.257C242.562 182.23 247.882 180.785 253.098 178.994Z" fill="#DDF7FF"/>
<path d="M244.68 152.247C250.66 150.193 256.662 148.457 262.062 146.894C265.195 145.988 268.153 145.132 270.746 144.316C276.732 142.435 289.416 141.391 292.321 146.107C293.805 148.518 292.479 151.877 288.379 156.095C277.423 167.365 259.884 176.302 240.252 180.619C226.356 183.673 214.48 182.805 211.373 178.508C210.608 177.449 210.005 175.666 211.479 173.18C217.294 163.376 230.921 156.973 244.68 152.247ZM252.794 175.919C266.865 171.085 279.341 163.762 287.565 155.302C291.202 151.56 292.513 148.586 291.353 146.704C289.056 142.974 277.653 143.337 271.088 145.4C268.482 146.219 265.517 147.078 262.378 147.986C244.733 153.09 220.568 160.082 212.457 173.759C211.526 175.329 211.471 176.703 212.295 177.841C214.699 181.168 224.991 182.808 240.009 179.507C244.362 178.551 248.648 177.343 252.794 175.919Z" fill="#DDF7FF"/>
<path d="M248.827 155.153C254.291 153.276 260.032 151.745 265.599 150.398C275.102 148.102 280.937 148.325 282.473 151.045C283.188 152.309 283.217 154.649 279.298 158.612C268.979 169.048 254.091 174.174 243.417 176.631C233.401 178.94 225.267 178.344 223.18 175.147C222.594 174.251 222.223 172.743 223.778 170.654C229.093 163.516 238.465 158.712 248.827 155.153ZM253.349 172.623C261.959 169.666 271.353 165.031 278.49 157.812C281.119 155.153 282.21 152.89 281.483 151.603C280.278 149.468 274.44 149.431 265.866 151.504C249.942 155.352 232.593 160.721 224.69 171.333C223.755 172.589 223.568 173.663 224.131 174.526C225.65 176.851 232.675 177.942 243.161 175.524C246.269 174.808 249.741 173.863 253.349 172.623Z" fill="#DDF7FF"/>
</g>
</mask>
<g mask="url(#mask0)">
<rect width="399" height="174" rx="30" fill="#AEEBFF"/>
</g>
<defs>
<clipPath id="clip0">
<rect width="409.221" height="202.337" fill="white" transform="translate(434.758 147.363) rotate(161.043)"/>
</clipPath>
</defs>
</svg>
