<svg width="301" height="300" viewBox="0 0 301 300" fill="none" xmlns="http://www.w3.org/2000/svg">
<g clip-path="url(#clip0)">
<path d="M94.4256 200.688C95.8899 195.371 90.7176 195.913 82.8729 201.898C75.0282 207.883 67.4819 217.045 66.0176 222.362C64.5533 227.678 69.7257 227.137 77.5703 221.152C85.415 215.167 92.9613 206.005 94.4256 200.688C92.8769 201.533 91.3459 202.411 89.8338 203.324C88.7921 207.107 83.4233 213.625 77.8422 217.883C72.2612 222.141 68.5814 222.526 69.6231 218.743C70.6648 214.96 76.0337 208.442 81.6147 204.184C87.1957 199.926 90.8756 199.541 89.8338 203.324C91.3459 202.411 92.8769 201.533 94.4256 200.688Z" fill="url(#paint0_linear)"/>
<path d="M48.0025 247.248L47.1113 249.342C46.4418 250.942 45.9037 252.466 45.5091 253.898C40.9996 270.273 56.929 268.606 81.0884 250.174C105.248 231.742 128.489 203.525 132.998 187.15C131.25 187.474 129.509 187.831 127.778 188.221C116.803 222.47 56.1453 270.397 47.6573 257.721C44.9948 253.745 48.6797 245.755 50.067 242.748L48.0025 247.248Z" fill="url(#paint1_linear)"/>
<path d="M132.998 187.151C136.031 176.137 129.818 173.286 118.074 178.207C115.588 179.31 112.29 180.818 109.844 182.009C123.317 174.954 130.908 176.856 127.778 188.222C129.509 187.831 131.25 187.474 132.998 187.151Z" fill="url(#paint2_linear)"/>
<path d="M37.0555 295.009L37 296.645C38.4058 324.964 94.4029 290.787 136.778 243.632C156.598 221.578 169.293 202.036 174.51 185.548C172.706 185.364 170.9 185.213 169.094 185.094C162.356 209.558 127.634 251.714 91.5396 279.252C58.5594 304.413 35.8447 308.664 37.3099 290.548L37.0555 295.009Z" fill="url(#paint3_linear)"/>
<path d="M174.51 185.548C175.896 179.415 178.477 168 165.138 168L163.501 168.061L159.102 168.327C168.351 167.573 172.401 173.087 169.094 185.094C170.9 185.213 172.706 185.364 174.51 185.548Z" fill="url(#paint4_linear)"/>
<path d="M42.3833 337.924L43.3659 341.098C48.121 355.858 75.758 348.064 113.827 319.02C161.152 282.914 206.676 227.643 215.51 195.568C213.801 194.889 212.081 194.243 210.352 193.627C187.442 265.118 60.8269 365.16 43.1092 338.7C42.5303 337.835 42.0067 336.525 41.6999 335.531L42.3833 337.924" fill="url(#paint5_linear)"/>
<path d="M215.51 195.568C218.848 183.449 216.47 176.375 209.667 174.212L206.487 173.24L204.088 172.564C210.776 175.209 213.756 179.349 210.352 193.628C212.082 194.243 213.801 194.89 215.51 195.568Z" fill="url(#paint6_linear)"/>
<path d="M61.3646 376.897L64.4525 381.057C73.0438 392.177 101.874 382.498 140.371 353.128C192.595 313.284 242.833 252.29 252.581 216.894C251.119 215.737 249.636 214.61 248.134 213.514C238.447 248.687 188.527 309.295 136.633 348.887C97.9558 378.395 69.0988 387.9 60.9182 376.266L61.3646 376.897Z" fill="url(#paint7_linear)"/>
<path d="M252.582 216.894C255.596 205.948 254.385 198.731 249.73 195.163L245.558 192.09L244.925 191.646C249.86 195.088 251.209 202.349 248.134 213.514C249.636 214.61 251.119 215.737 252.582 216.894Z" fill="url(#paint8_linear)"/>
<path d="M94.1087 409.187L98.7439 412.248C109.546 419.045 136.255 408.804 170.919 382.357C222.372 343.102 271.869 283.009 281.473 248.135C280.502 246.664 279.493 245.204 278.447 243.757C268.763 278.921 218.855 339.514 166.974 379.096C131.576 406.102 104.406 416.349 93.79 408.966L94.1087 409.187Z" fill="url(#paint9_linear)"/>
<path d="M281.473 248.135C283.837 239.551 283.564 233.295 281.04 229.326L277.751 224.401C279.488 227.764 281.651 231.95 278.447 243.757C279.493 245.204 280.502 246.664 281.473 248.135Z" fill="url(#paint10_linear)"/>
<path d="M140.315 429.378C151.405 431.814 173 422.416 200.15 401.703C245.351 367.217 288.834 314.425 297.271 283.788C296.878 282.204 296.448 280.624 295.981 279.047C287.341 310.419 242.815 364.478 196.529 399.791C168.208 421.398 145.791 430.98 134.634 427.978L140.315 429.378" fill="url(#paint11_linear)"/>
<path d="M297.272 283.789C298.751 278.416 299.055 274.082 298.306 270.773L298.04 269.627L296.899 265.152C297.838 268.607 297.582 273.234 295.981 279.048C296.449 280.624 296.879 282.205 297.272 283.789Z" fill="url(#paint12_linear)"/>
</g>
<defs>
<linearGradient id="paint0_linear" x1="80.2216" y1="197.029" x2="80.2216" y2="226.02" gradientUnits="userSpaceOnUse">
<stop stop-color="#08D187"/>
<stop offset="1" stop-color="white" stop-opacity="0"/>
</linearGradient>
<linearGradient id="paint1_linear" x1="88.8719" y1="187.15" x2="88.8719" y2="265.167" gradientUnits="userSpaceOnUse">
<stop stop-color="#08D187"/>
<stop offset="1" stop-color="white" stop-opacity="0"/>
</linearGradient>
<linearGradient id="paint2_linear" x1="121.803" y1="175.882" x2="121.803" y2="188.222" gradientUnits="userSpaceOnUse">
<stop stop-color="#08D187"/>
<stop offset="1" stop-color="white" stop-opacity="0"/>
</linearGradient>
<linearGradient id="paint3_linear" x1="105.755" y1="185.094" x2="105.755" y2="306.94" gradientUnits="userSpaceOnUse">
<stop stop-color="#08D187"/>
<stop offset="1" stop-color="white" stop-opacity="0"/>
</linearGradient>
<linearGradient id="paint4_linear" x1="167.388" y1="168" x2="167.388" y2="185.548" gradientUnits="userSpaceOnUse">
<stop stop-color="#08D187"/>
<stop offset="1" stop-color="white" stop-opacity="0"/>
</linearGradient>
<linearGradient id="paint5_linear" x1="128.605" y1="193.627" x2="128.605" y2="348.389" gradientUnits="userSpaceOnUse">
<stop stop-color="#08D187"/>
<stop offset="1" stop-color="white" stop-opacity="0"/>
</linearGradient>
<linearGradient id="paint6_linear" x1="210.547" y1="172.564" x2="210.547" y2="195.568" gradientUnits="userSpaceOnUse">
<stop stop-color="#08D187"/>
<stop offset="1" stop-color="white" stop-opacity="0"/>
</linearGradient>
<linearGradient id="paint7_linear" x1="156.75" y1="213.514" x2="156.75" y2="385.538" gradientUnits="userSpaceOnUse">
<stop stop-color="#08D187"/>
<stop offset="1" stop-color="white" stop-opacity="0"/>
</linearGradient>
<linearGradient id="paint8_linear" x1="249.579" y1="191.646" x2="249.579" y2="216.894" gradientUnits="userSpaceOnUse">
<stop stop-color="#08D187"/>
<stop offset="1" stop-color="white" stop-opacity="0"/>
</linearGradient>
<linearGradient id="paint9_linear" x1="187.631" y1="243.757" x2="187.631" y2="414.289" gradientUnits="userSpaceOnUse">
<stop stop-color="#08D187"/>
<stop offset="1" stop-color="white" stop-opacity="0"/>
</linearGradient>
<linearGradient id="paint10_linear" x1="280.425" y1="224.401" x2="280.425" y2="248.135" gradientUnits="userSpaceOnUse">
<stop stop-color="#08D187"/>
<stop offset="1" stop-color="white" stop-opacity="0"/>
</linearGradient>
<linearGradient id="paint11_linear" x1="215.953" y1="279.047" x2="215.953" y2="429.754" gradientUnits="userSpaceOnUse">
<stop stop-color="#08D187"/>
<stop offset="1" stop-color="white" stop-opacity="0"/>
</linearGradient>
<linearGradient id="paint12_linear" x1="297.341" y1="265.152" x2="297.341" y2="283.789" gradientUnits="userSpaceOnUse">
<stop stop-color="#08D187"/>
<stop offset="1" stop-color="white" stop-opacity="0"/>
</linearGradient>
<clipPath id="clip0">
<rect width="301" height="300" rx="32" fill="white"/>
</clipPath>
</defs>
</svg>
