<svg width="20px" height="20px" viewBox="0 0 429.757 429.757" fill="none" xmlns="http://www.w3.org/2000/svg">
<path d="M406.874,82.654L406.874,82.654L293.853,52.861c-0.061-0.016-0.071-0.022-0.133-0.037    c-0.194-0.047-0.363-0.083-0.559-0.119c-0.177-0.032-0.341-0.065-0.519-0.087c-0.194-0.025-0.383-0.037-0.578-0.05    s-0.359-0.026-0.541-0.028c-0.182-0.002-0.384,0.008-0.578,0.017c-0.194,0.009-0.366,0.015-0.549,0.034    c-0.183,0.019-0.377,0.051-0.566,0.082c-0.189,0.031-0.37,0.057-0.553,0.1c-0.054,0.012-0.107,0.016-0.16,0.028L209.08,71.666    c-5.144-14.48-13.34-27.685-24.033-38.721c-0.686-1.002-1.547-1.872-2.543-2.567C162.769,10.912,136.163-0.001,108.442,0    C49.169-0.117,0.985,47.765,0.731,107.038c0.038,12.377,2.166,24.659,6.294,36.327v226.552c0.006,13.79,9.413,25.8,22.8,29.11    l122.2,30.43c0,0.2,1.426,0.3,2.243,0.3c0.786-0.002,1.569-0.102,2.33-0.3l134.77-33.581l100.357,26.815    c2.546,0.684,5.171,1.031,7.808,1.033c6.521-0.007,12.851-2.197,17.981-6.222c7.363-5.681,11.627-14.494,11.511-23.794V111.665    C429.108,98.08,420.002,86.153,406.874,82.654z M144.025,406.956L34.449,379.62c-4.425-1.121-7.499-5.138-7.424-9.703V177.644    c1,1.821,3.087,3.6,4.8,5.332l68.352,68.414c3.849,3.883,10.118,3.91,14.001,0.06c0.003-0.003,0.007-0.007,0.01-0.01    l29.837-29.471V406.956z M107.231,230.223l-61.348-61.347c-16.298-16.435-25.392-38.676-25.277-61.822    c-0.029-23.109,9.24-45.258,25.719-61.458h0c16.328-16.478,38.569-25.739,61.766-25.72h0.288    c22.979-0.015,44.993,9.236,61.064,25.661c0.02,0.02,0.039,0.07,0.059,0.09c34.02,33.752,34.238,88.693,0.485,122.713    c-0.145,0.146-0.29,0.291-0.435,0.436L107.231,230.223z M281.025,377.731l-117,29.225V202.25l19.584-19.274    c20.203-20.019,31.557-47.288,31.534-75.73c-0.062-5.42-0.533-10.827-1.409-16.176l67.291-15.907V377.731z M409.025,393.708    c0.091,3.08-1.282,6.021-3.7,7.931c-2.494,1.904-5.73,2.543-8.76,1.73l-95.54-25.503V75.506l100.563,26.489    c4.387,1.161,7.441,5.132,7.437,9.67V393.708z" fill="#189e78"/>
<path d="M108.158,55.953c-27.653,0-50.071,22.418-50.071,50.071c0.031,27.641,22.43,50.04,50.071,50.071    c27.653,0,50.071-22.418,50.071-50.071S135.811,55.953,108.158,55.953z M108.158,136.095c-16.608,0-30.071-13.463-30.071-30.071    c0.016-16.601,13.47-30.055,30.071-30.071c16.608,0,30.071,13.463,30.071,30.071C138.229,122.632,124.765,136.095,108.158,136.095    z" fill="#189e78"/>
</svg>