<svg width="813" height="259" viewBox="0 0 813 259" fill="none" xmlns="http://www.w3.org/2000/svg">
<path d="M564.58 243.041C563.652 242.872 562.753 242.643 561.907 242.358C555.711 240.274 552.208 235.212 551.055 228.694C550.946 228.076 550.055 228.076 549.946 228.694C548.606 236.267 544.148 241.623 536.459 243.05C535.848 243.164 535.848 244.045 536.459 244.158C544.077 245.567 548.614 250.913 549.948 258.426C550.032 258.9 550.532 258.902 550.504 258.891C550.777 258.891 551.011 258.694 551.058 258.425C551.738 254.551 553.646 249.287 558.877 246.214C560.548 245.233 562.468 244.538 564.582 244.149C564.849 244.1 565.043 243.867 565.043 243.595C565.043 243.322 564.848 243.089 564.58 243.041Z" fill="#F1A34F"/>
<path d="M542.346 240.856C540.541 241.959 538.539 242.664 536.459 243.05C535.847 243.164 535.847 244.045 536.459 244.158C544.077 245.567 548.613 250.913 549.948 258.426C550.032 258.899 550.532 258.902 550.503 258.891C550.776 258.891 551.01 258.694 551.057 258.425C551.434 256.28 552.188 253.71 553.672 251.321C551.658 245.716 547.81 242.227 542.346 240.856Z" fill="#F4D463"/>
<path d="M426.58 27.81C425.652 27.6415 424.752 27.4119 423.907 27.1276C417.71 25.0437 414.207 19.9808 413.055 13.4631C412.945 12.8457 412.055 12.8456 411.945 13.4631C410.606 21.0367 406.148 26.3925 398.459 27.8197C397.847 27.9331 397.847 28.8143 398.459 28.9275C406.077 30.3367 410.613 35.6824 411.948 43.1955C412.032 43.6688 412.532 43.6713 412.503 43.6603C412.777 43.66 413.01 43.4634 413.057 43.1943C413.737 39.3199 415.645 34.0562 420.877 30.9829C422.548 30.002 424.467 29.3075 426.581 28.9185C426.849 28.8693 427.043 28.6359 427.043 28.3638C427.042 28.0916 426.847 27.8586 426.58 27.81Z" fill="#0EC77C"/>
<path d="M404.346 25.625C402.541 26.7286 400.539 27.4335 398.459 27.8197C397.847 27.9331 397.847 28.8143 398.459 28.9275C406.077 30.3367 410.613 35.6824 411.948 43.1955C412.032 43.6688 412.532 43.6713 412.503 43.6603C412.776 43.66 413.01 43.4634 413.057 43.1943C413.434 41.0495 414.188 38.4793 415.672 36.0904C413.658 30.4856 409.81 26.9967 404.346 25.625Z" fill="#08C47E"/>
<circle cx="802.055" cy="122.055" r="10.0549" fill="#C4D9ED"/>
<rect x="615.099" y="238.956" width="6.7033" height="6.7033" fill="#D86713"/>
<rect x="362" y="65" width="6.7033" height="6.7033" fill="#D86713"/>
<path d="M61.5713 62.7405C59.9362 62.1983 58.8546 60.9798 58.3284 59.2958C58.2338 58.9934 57.9151 58.9968 57.9272 59.0009C57.7436 59.0009 57.5811 59.1203 57.5262 59.2955C57.0164 60.9231 55.9494 62.1684 54.2833 62.7388C53.9057 62.8681 53.9054 63.4045 54.2834 63.5339C55.9386 64.1006 57.0126 65.336 57.5267 66.979C57.6216 67.282 57.9397 67.2776 57.9286 67.2737C58.1126 67.2734 58.2749 67.1534 58.3293 66.9776C58.7096 65.7477 59.3804 64.7969 60.3231 64.1514C60.3232 64.1513 60.3232 64.1513 60.3232 64.1513C61.3539 63.4452 61.8599 63.6501 61.8591 63.1387C61.8589 62.9578 61.7429 62.7974 61.5713 62.7405Z" fill="#A8D29F"/>
<path d="M55.9587 61.8285C55.9469 61.8244 55.9359 61.8188 55.9246 61.8137C55.4412 62.2291 54.8863 62.5324 54.2833 62.7389C53.9057 62.8682 53.9054 63.4046 54.2834 63.534C55.9386 64.1007 57.0126 65.3361 57.5267 66.9791C57.6216 67.2821 57.9397 67.2777 57.9286 67.2738C58.5203 67.2727 58.2056 66.5659 59.1916 65.242C58.6671 63.5953 57.5871 62.3859 55.9587 61.8285Z" fill="#82B378"/>
<path d="M16.7257 30.7807C13.75 29.7938 11.7978 27.5765 10.847 24.5361C10.6757 23.9881 10.0981 23.9942 10.1199 24.0017C9.78696 24.0017 9.4925 24.2181 9.39302 24.5357C8.47066 27.48 6.5405 29.7412 3.5143 30.7777C2.82986 31.0121 2.82918 31.9845 3.51441 32.2191C6.52238 33.2489 8.4642 35.4938 9.39393 38.4641C9.56592 39.0134 10.1428 39.0055 10.1222 38.9983C10.4558 38.9978 10.7502 38.7802 10.8488 38.4618C11.9901 34.7708 14.2883 33.5116 14.4635 33.3384C16.3266 32.0617 17.2489 32.4248 17.2477 31.5027C17.2471 31.1746 17.0368 30.8839 16.7257 30.7807Z" fill="#78B769"/>
<path d="M6.25801 29.2915C4.15791 30.9705 3 30.5011 3 31.4984C3 31.8242 3.207 32.1137 3.51506 32.219C6.52302 33.2488 8.46484 35.4937 9.39457 38.464C9.56656 39.0133 10.1435 39.0054 10.1229 38.9982C11.142 38.9964 10.6523 37.8065 12.2693 35.51C10.6046 30.3707 6.63416 29.5374 6.25801 29.2915Z" fill="#82B378"/>
<circle cx="2.5" cy="82.5" r="2.5" fill="#C4D9ED"/>
<circle cx="31" cy="5" r="5" fill="#D86713"/>
<path d="M30.3177 146.047C29.6254 145.921 28.9546 145.75 28.3241 145.538C23.7019 143.983 21.089 140.207 20.2293 135.345C20.1477 134.885 19.4833 134.885 19.4017 135.345C18.4026 140.995 15.0773 144.99 9.34202 146.054C8.88589 146.139 8.88602 146.796 9.34227 146.88C15.0247 147.931 18.4081 151.919 19.4038 157.523C19.4665 157.876 19.8393 157.878 19.818 157.87C20.0218 157.869 20.1962 157.723 20.2314 157.522C20.7383 154.632 22.1616 150.706 26.0637 148.413C27.3102 147.682 28.7419 147.164 30.3187 146.874C30.5182 146.837 30.6631 146.663 30.6629 146.46C30.6626 146.257 30.5174 146.083 30.3177 146.047Z" fill="#0EC77C"/>
<path d="M13.7334 144.417C12.3869 145.24 10.894 145.766 9.34202 146.054C8.88589 146.139 8.88602 146.796 9.34227 146.88C15.0246 147.931 18.4081 151.919 19.4038 157.523C19.4664 157.876 19.8393 157.878 19.818 157.87C20.0218 157.869 20.1962 157.723 20.2314 157.522C20.512 155.922 21.0745 154.005 22.1818 152.223C20.6794 148.042 17.8094 145.44 13.7334 144.417Z" fill="#08C47E"/>
</svg>
