<svg width="351" height="255" viewBox="0 0 351 255" fill="none" xmlns="http://www.w3.org/2000/svg">
	<path d="M326.127 20.6966C323.416 13.8091 318.082 8.27967 311.296 5.32357C304.51 2.36747 296.828 2.22658 289.939 4.93185L124.161 70.1398C117.84 66.0275 110.807 63.1324 103.422 61.6037C89.9868 58.8986 75.9503 61.2129 63.552 66.7133C50.2093 72.3699 39.293 82.5571 32.7289 95.4775C30.3521 100.244 28.5946 105.294 27.499 110.506L26.3869 110.972C20.371 113.553 15.1 117.604 11.058 122.754C5.3951 130.356 2.31901 139.574 2.28149 149.054C2.28149 158.356 6.35417 166.847 10.2916 175.053C13.0267 180.733 16.0925 186.354 17.415 192.576C19.8797 204.253 12.1701 215.434 13.7331 227.306C15.2359 238.697 22.0287 252.193 35.0432 252.674C40.3783 252.869 45.8787 250.57 51.0033 249.368C59.3741 247.414 67.8651 246.182 76.0856 243.687C84.329 241.231 92.2499 237.801 99.6801 233.468C105.511 229.981 111.552 225.277 112.619 218.094C112.837 216.533 112.837 214.95 112.619 213.39C118.562 212.828 124.41 211.515 130.022 209.482C138.035 206.72 145.443 202.444 151.843 196.889C153.738 197.226 155.687 197.055 157.494 196.393C162.769 194.409 164.873 188.578 169.036 185.212C173.688 181.75 178.919 179.144 184.485 177.517C191.653 175.113 199.874 172.272 202.519 164.322C202.971 162.892 203.209 161.404 203.225 159.904L331.191 109.589C338.083 106.879 343.615 101.542 346.571 94.7523C349.528 87.9629 349.666 80.2773 346.956 73.3859L326.127 20.6966Z" fill="#85CF92" stroke="#095B09" stroke-width="4.16" stroke-miterlimit="10" />
	<path d="M192.932 158.566C192.601 153.982 188.153 148.332 185.838 145.897C174.552 134.01 157.916 129.366 146.133 118.08C141.224 113.216 136.869 107.823 133.149 102C128.265 94.6657 119.308 77.3531 107.796 82.5529C102.221 85.0626 98.9744 91.6901 98.4635 97.506C97.9826 103.082 99.4403 108.642 101.259 113.932C105.772 126.862 112.517 138.902 121.186 149.504C129.843 160.204 139.671 169.943 147.801 181.064C148.922 182.809 150.306 184.37 151.904 185.692C155.316 188.127 156.217 183.573 157.63 181.379C159.646 178.43 162.302 175.974 165.4 174.196C169.708 171.868 174.239 169.98 178.925 168.56C183.599 166.967 193.367 164.848 192.932 158.566Z" fill="#03452D" />
	<path d="M117.97 91.6752C124.372 103.833 130.984 116.141 140.392 126.24C145.166 131.322 150.617 135.722 156.593 139.315C163.04 143.267 169.863 146.739 175.754 151.533C181.645 156.327 186.74 162.594 188.257 170.258C188.438 171.19 189.865 170.799 189.67 169.868C186.95 156.102 174.326 148.061 163.1 141.479C156.468 137.878 150.28 133.515 144.66 128.48C139.512 123.425 134.973 117.787 131.135 111.678C126.776 104.99 123.019 97.942 119.292 90.8787C118.857 90.0371 117.579 90.7885 118.03 91.6301L117.97 91.6752Z" fill="#FFD324" />
	<path d="M146.464 143.357C158.881 151.419 168.429 163.202 173.74 177.021C174.086 177.893 175.498 177.502 175.243 176.63C169.809 162.442 160.017 150.341 147.275 142.065C146.479 141.539 145.772 142.816 146.539 143.327L146.464 143.357Z" fill="#FFD324" />
	<path d="M150.386 163.105C158.25 168.704 163.73 177.048 165.744 186.489C165.94 187.421 167.368 187.03 167.157 186.098C165.038 176.29 159.323 167.631 151.137 161.827C150.355 161.286 149.634 162.549 150.386 163.105Z" fill="#FFD324" />
	<g style="mix-blend-mode:multiply" opacity="0.6">
		<path d="M192.932 158.566C192.601 153.982 188.153 148.332 185.838 145.897C174.552 134.01 157.916 129.366 146.133 118.08C141.224 113.216 136.869 107.823 133.149 102C128.265 94.6657 119.308 77.3531 107.796 82.5529C102.221 85.0626 98.9744 91.6901 98.4635 97.506C97.9826 103.082 99.4403 108.642 101.259 113.932C105.772 126.862 112.517 138.902 121.186 149.504C129.843 160.204 139.671 169.943 147.801 181.064C148.922 182.809 150.306 184.37 151.904 185.692C155.316 188.127 156.217 183.573 157.63 181.379C159.646 178.43 162.302 175.974 165.4 174.196C169.708 171.868 174.239 169.98 178.925 168.56C183.599 166.967 193.367 164.848 192.932 158.566Z" fill="#03452D" />
	</g>
	<path d="M138.619 114.007C175.379 164.082 153.407 189.239 128.866 198.572C101.033 209.091 74.9292 199.819 55.9033 170.649C36.8775 141.479 34.0822 106.899 59.0142 90.6381C83.9462 74.3775 118 85.9342 138.619 114.007Z" fill="#B06553" />
	<path d="M141.76 172.663C143.849 170.138 145.562 166.787 144.54 163.541C144.189 162.485 143.528 161.559 142.644 160.883C141.76 160.208 140.692 159.814 139.581 159.753C136.41 159.633 134.081 162.489 131.331 163.586C129.641 164.313 127.735 164.362 126.011 163.721C122.704 162.428 119.293 160.805 115.896 162.849C114.785 163.52 113.897 164.504 113.344 165.678C112.79 166.852 112.596 168.163 112.786 169.447C113.13 171.38 114.095 173.147 115.536 174.481C117.241 176.11 119.254 177.383 121.456 178.226C123.659 179.069 126.007 179.465 128.364 179.391C130.721 179.317 133.04 178.774 135.185 177.794C137.33 176.815 139.259 175.418 140.859 173.685C141.159 173.414 141.46 173.023 141.76 172.663Z" fill="#3C3F69" />
	<path d="M134.156 172.738C131.89 171.311 129.501 170.088 127.017 169.086C122.509 167.253 117.354 166.441 112.71 168.244C112.673 168.644 112.673 169.047 112.71 169.447C113.075 171.389 114.067 173.158 115.536 174.481C117.525 176.345 119.91 177.736 122.512 178.551C125.114 179.365 127.866 179.582 130.564 179.185C133.421 178.727 136.121 177.57 138.424 175.819C137.077 174.69 135.651 173.661 134.156 172.738Z" fill="#FF8A82" />
	<path d="M111.764 157.905C111.066 158.279 110.288 158.48 109.495 158.491L101.695 158.611L97.3673 165.118C96.7527 166.058 95.8304 166.755 94.7583 167.09C93.6863 167.424 92.5312 167.376 91.4912 166.952C90.8268 166.692 90.2286 166.287 89.7399 165.767C89.2512 165.248 88.8843 164.625 88.6659 163.946L86.1261 156.552L78.6119 154.448C77.7376 154.203 76.9493 153.718 76.3362 153.048C75.7231 152.378 75.3095 151.55 75.1423 150.657C74.975 149.765 75.0607 148.843 75.3897 147.997C75.7186 147.15 76.2778 146.413 77.0039 145.867L83.2406 141.178L82.925 133.379C82.886 132.47 83.1021 131.569 83.5488 130.777C83.9956 129.985 84.6551 129.334 85.4528 128.898C86.2505 128.461 87.1545 128.257 88.0623 128.308C88.9701 128.359 89.8456 128.663 90.5895 129.186L96.9765 133.694L104.295 130.974C105.148 130.658 106.073 130.587 106.964 130.769C107.855 130.952 108.677 131.38 109.337 132.006C109.998 132.632 110.469 133.43 110.699 134.31C110.929 135.19 110.907 136.117 110.637 136.985L108.353 144.5L113.192 150.616C113.633 151.173 113.946 151.821 114.111 152.512C114.275 153.203 114.286 153.922 114.142 154.618C113.999 155.314 113.705 155.97 113.282 156.541C112.858 157.111 112.314 157.582 111.689 157.92L111.764 157.905Z" fill="#03452D" />
	<path d="M106.068 127.969C101.742 128.326 97.7091 130.294 94.7664 133.484C93.5434 134.913 92.6769 136.611 92.238 138.44C91.7991 140.269 91.8003 142.176 92.2417 144.004C92.7226 145.792 93.9399 147.43 93.7445 149.339C93.4046 151.018 92.5543 152.55 91.3099 153.727C88.3811 156.787 84.9943 159.373 81.271 161.392C80.7371 161.778 80.3743 162.357 80.2594 163.006C80.1444 163.655 80.2864 164.324 80.6552 164.87C81.0239 165.416 81.5907 165.798 82.2356 165.934C82.8806 166.07 83.5532 165.95 84.1114 165.6C87.7985 163.516 91.1943 160.954 94.2104 157.98C96.9005 155.335 99.1848 151.774 98.7189 147.836C98.4935 145.822 97.3062 144.154 96.9606 142.2C96.7378 140.782 97.0027 139.331 97.712 138.083C99.3351 134.927 102.957 133.469 106.293 133.018C106.939 132.948 107.532 132.633 107.953 132.138C108.373 131.643 108.588 131.006 108.554 130.358C108.519 129.71 108.237 129.099 107.767 128.652C107.296 128.205 106.672 127.955 106.023 127.954L106.068 127.969Z" fill="white" />
	<path d="M86.3057 130.433C86.6908 130.215 87.1306 130.111 87.5728 130.135C88.015 130.159 88.4411 130.31 88.8004 130.568L95.8487 135.528C96.1614 135.749 96.5233 135.89 96.9029 135.94C97.2826 135.99 97.6686 135.946 98.0278 135.813L106.113 132.808C106.521 132.673 106.959 132.652 107.378 132.748C107.797 132.843 108.182 133.051 108.492 133.35C108.801 133.649 109.023 134.026 109.134 134.442C109.244 134.857 109.239 135.295 109.119 135.708L106.654 143.959C106.542 144.323 106.52 144.709 106.591 145.083C106.662 145.458 106.823 145.81 107.06 146.108L112.425 152.871C112.701 153.216 112.874 153.632 112.925 154.071C112.976 154.511 112.903 154.955 112.713 155.355C112.524 155.754 112.226 156.093 111.853 156.331C111.481 156.569 111.049 156.698 110.606 156.703L102.01 156.883C101.626 156.885 101.249 156.983 100.913 157.169C100.577 157.349 100.292 157.613 100.087 157.935L95.3076 165.119C95.1087 165.444 94.8292 165.714 94.4961 165.9C94.1943 166.065 93.86 166.163 93.5167 166.185C93.1734 166.208 92.8293 166.155 92.5086 166.03C92.1878 165.905 91.8982 165.712 91.66 165.464C91.4219 165.216 91.2409 164.918 91.1298 164.593L88.3345 156.432C88.2065 156.071 87.9937 155.746 87.7138 155.485C87.4339 155.223 87.0953 155.033 86.7265 154.929L78.4308 152.615C78.0059 152.497 77.6226 152.262 77.3243 151.937C77.0261 151.612 76.8248 151.21 76.7435 150.777C76.6621 150.344 76.7038 149.896 76.864 149.485C77.0241 149.074 77.2962 148.716 77.6493 148.452L84.5473 143.267C84.8625 143.03 85.113 142.716 85.2758 142.357C85.4385 141.997 85.5085 141.602 85.4791 141.209L85.1335 132.597C85.108 132.158 85.2091 131.72 85.4249 131.337C85.6407 130.953 85.962 130.64 86.3507 130.433H86.3057ZM83.6156 125.414C82.2802 126.125 81.1735 127.199 80.4235 128.513C79.6734 129.827 79.3108 131.326 79.3776 132.838L79.6631 139.691L74.1628 143.808C72.962 144.716 72.0382 145.94 71.4954 147.343C70.9526 148.747 70.8123 150.274 71.0903 151.753C71.3683 153.232 72.0536 154.604 73.069 155.715C74.0844 156.826 75.3896 157.631 76.8378 158.04L83.4503 159.889L85.6745 166.381C86.157 167.81 87.0309 169.074 88.1967 170.031C89.3626 170.987 90.7735 171.597 92.2689 171.792C93.7644 171.986 95.2843 171.756 96.6558 171.129C98.0272 170.502 99.1951 169.503 100.027 168.244L103.829 162.519L110.697 162.414C112.195 162.381 113.654 161.932 114.912 161.118C116.169 160.304 117.176 159.157 117.82 157.804C118.464 156.451 118.719 154.946 118.557 153.457C118.395 151.967 117.823 150.552 116.903 149.369L112.635 143.989L114.649 137.346C115.094 135.907 115.127 134.371 114.745 132.914C114.362 131.456 113.579 130.135 112.484 129.099C111.389 128.064 110.026 127.356 108.55 127.055C107.073 126.754 105.542 126.873 104.129 127.397L97.6971 129.832L92.0765 125.895C90.849 125.019 89.3985 124.509 87.8931 124.424C86.3877 124.339 84.8889 124.682 83.5705 125.414H83.6156Z" fill="#FFD324" />
	<path d="M159.283 132.672C158.648 132.979 157.942 133.109 157.239 133.048L150.176 132.477L146.314 138.413C145.946 139.001 145.427 139.478 144.811 139.796C144.226 140.075 143.583 140.211 142.935 140.193C142.287 140.175 141.652 140.003 141.084 139.691C139.845 139.021 138.918 137.894 138.499 136.55L136.124 129.126L129.302 126.406C128.476 126.064 127.752 125.518 127.197 124.818C126.642 124.119 126.275 123.289 126.131 122.408C125.952 121.579 126.011 120.716 126.3 119.918C126.59 119.12 127.099 118.421 127.769 117.9L133.374 113.887L133.029 106.268C132.927 105.429 133.088 104.58 133.49 103.837C133.892 103.094 134.515 102.495 135.272 102.122C136.03 101.749 136.885 101.62 137.719 101.755C138.553 101.889 139.324 102.279 139.927 102.871L145.743 107.816L152.34 105.787C153.157 105.593 154.012 105.63 154.808 105.896C155.605 106.161 156.312 106.644 156.849 107.29C157.454 107.946 157.884 108.745 158.099 109.612C158.315 110.478 158.308 111.385 158.081 112.249L156.112 119.312L160.621 125.699C161.427 126.853 161.751 128.277 161.522 129.667C161.412 130.309 161.152 130.916 160.763 131.438C160.374 131.96 159.867 132.383 159.283 132.672Z" fill="#03452D" />
	<path d="M155.42 102.12C151.082 102.462 147.034 104.432 144.089 107.635C142.861 109.061 141.991 110.759 141.551 112.589C141.112 114.419 141.117 116.327 141.564 118.155C142.045 119.943 143.262 121.597 143.067 123.505C142.724 125.183 141.874 126.715 140.632 127.893C137.723 130.937 134.356 133.508 130.654 135.513C130.12 135.899 129.757 136.478 129.642 137.127C129.527 137.776 129.669 138.445 130.038 138.991C130.407 139.537 130.973 139.919 131.618 140.055C132.263 140.191 132.936 140.071 133.494 139.721C137.175 137.634 140.57 135.077 143.593 132.116C146.283 129.471 148.567 125.91 148.101 121.972C147.891 119.958 146.704 118.275 146.343 116.337C146.136 114.914 146.399 113.462 147.095 112.204C148.733 109.063 152.354 107.59 155.691 107.154C156.356 107.101 156.976 106.793 157.421 106.295C157.866 105.797 158.102 105.147 158.08 104.479C158.038 103.809 157.733 103.183 157.233 102.736C156.732 102.289 156.076 102.057 155.405 102.09L155.42 102.12Z" fill="white" />
	<path d="M135.929 103.488C136.299 103.321 136.709 103.266 137.11 103.33C137.511 103.394 137.884 103.574 138.183 103.848L144.615 109.319C144.88 109.552 145.198 109.716 145.541 109.798C145.885 109.879 146.243 109.874 146.584 109.784L153.888 107.575C154.301 107.498 154.726 107.529 155.124 107.664C155.521 107.799 155.878 108.034 156.158 108.346C156.439 108.659 156.635 109.038 156.727 109.448C156.818 109.857 156.803 110.284 156.683 110.686L154.459 118.486C154.365 118.849 154.352 119.227 154.419 119.596C154.487 119.964 154.634 120.314 154.85 120.62L159.749 127.698C159.951 127.953 160.097 128.248 160.176 128.564C160.255 128.88 160.266 129.208 160.207 129.529C160.149 129.849 160.023 130.153 159.838 130.42C159.652 130.688 159.412 130.913 159.133 131.08C158.824 131.227 158.482 131.289 158.141 131.26L150.341 130.614C150 130.58 149.656 130.642 149.349 130.794C149.042 130.948 148.783 131.181 148.598 131.47L144.345 138.038C144.152 138.32 143.894 138.552 143.593 138.714C143.298 138.826 142.983 138.876 142.667 138.86C142.352 138.844 142.043 138.763 141.761 138.622C141.479 138.48 141.228 138.282 141.026 138.039C140.825 137.797 140.675 137.515 140.588 137.211L137.943 128.931C137.826 128.568 137.631 128.237 137.371 127.959C137.111 127.681 136.793 127.463 136.44 127.323L128.926 124.317C128.537 124.161 128.194 123.91 127.93 123.585C127.666 123.261 127.488 122.874 127.415 122.462C127.341 122.05 127.374 121.626 127.509 121.23C127.645 120.834 127.879 120.48 128.189 120.199L134.396 115.691C134.677 115.476 134.9 115.194 135.044 114.871C135.189 114.549 135.25 114.195 135.223 113.842L134.832 105.426C134.793 105.021 134.875 104.614 135.068 104.255C135.26 103.897 135.555 103.604 135.914 103.412L135.929 103.488ZM133.419 98.3629C132.189 99.0093 131.178 100.005 130.512 101.224C129.847 102.443 129.556 103.832 129.677 105.216L129.993 111.918L125.063 115.45C123.935 116.308 123.078 117.473 122.595 118.806C122.113 120.139 122.025 121.583 122.343 122.964C122.595 124.407 123.205 125.764 124.116 126.911C125.026 128.058 126.21 128.959 127.558 129.532L133.569 131.936L135.628 138.458C136.323 140.685 137.868 142.548 139.926 143.643C140.866 144.157 141.913 144.443 142.984 144.477C144.054 144.51 145.118 144.292 146.088 143.839C147.132 143.317 148.014 142.522 148.643 141.539L152.039 136.309L158.246 136.82C159.408 136.923 160.576 136.71 161.627 136.204C162.578 135.714 163.4 135.007 164.027 134.141C164.654 133.274 165.067 132.271 165.234 131.215C165.619 128.908 165.079 126.543 163.731 124.632L159.824 119.012L161.597 112.805C161.976 111.375 161.988 109.872 161.634 108.436C161.279 106.999 160.569 105.675 159.568 104.585C158.67 103.516 157.487 102.725 156.157 102.302C154.827 101.879 153.405 101.842 152.054 102.195L146.253 103.938L141.084 99.5952C140.065 98.6543 138.792 98.0353 137.423 97.816C136.054 97.5968 134.65 97.787 133.389 98.3629H133.419Z" fill="#FFD324" />
	<path d="M113.688 133.589C113.604 133.337 113.534 133.082 113.478 132.822C113.372 132.417 113.478 133.003 113.478 132.552C113.415 132.123 113.375 131.692 113.357 131.259V130.553C113.357 130.177 113.357 130.688 113.357 130.268C113.4 129.806 113.48 129.348 113.598 128.9C113.598 128.705 113.703 128.509 113.763 128.329L113.868 128.043C114.043 127.623 114.249 127.216 114.484 126.826C114.68 126.495 114.379 126.931 114.635 126.601L114.995 126.135C115.176 125.939 115.341 125.744 115.536 125.564C115.732 125.383 115.987 125.158 115.717 125.383C116.046 125.116 116.393 124.87 116.754 124.647C116.754 124.647 117.385 124.316 117.054 124.467L117.58 124.256L118.136 124.061H118.482C118.272 124.061 118.272 124.061 118.482 124.061C118.842 124.039 119.204 124.039 119.564 124.061H119.865L120.496 124.151L121.022 124.271C121.112 124.271 121.548 124.452 121.232 124.271C121.622 124.426 121.999 124.612 122.359 124.827C122.825 125.098 122.119 124.602 122.54 124.948L123.051 125.323C123.248 125.492 123.477 125.62 123.724 125.701C123.97 125.781 124.231 125.812 124.49 125.792C124.748 125.771 125.001 125.7 125.232 125.583C125.464 125.465 125.67 125.303 125.838 125.105C126.007 124.908 126.135 124.679 126.216 124.432C126.296 124.186 126.327 123.925 126.307 123.666C126.287 123.407 126.216 123.155 126.098 122.924C125.98 122.692 125.818 122.486 125.62 122.318C123.955 120.841 121.819 120.005 119.593 119.961C117.368 119.917 115.2 120.667 113.478 122.077C111.699 123.613 110.415 125.643 109.789 127.908C109.163 130.174 109.223 132.574 109.961 134.806C110.132 135.294 110.487 135.696 110.95 135.926C111.413 136.157 111.948 136.197 112.441 136.038C112.928 135.861 113.329 135.503 113.561 135.039C113.793 134.575 113.838 134.04 113.688 133.544V133.589Z" fill="#FFD324" />
	<path d="M142.045 152.224C143.768 150.981 144.983 149.158 145.469 147.09C145.955 145.022 145.679 142.848 144.69 140.968C143.177 138.746 141.165 136.909 138.814 135.603L125.018 126.586C125.018 126.586 123.29 140.111 127.182 147.325C131.075 154.539 142.045 152.224 142.045 152.224Z" fill="#B06553" />
	<path d="M124.553 127.367L133.57 133.379C136.316 135.001 138.951 136.804 141.46 138.774C142.458 139.534 143.268 140.514 143.828 141.637C144.388 142.76 144.683 143.996 144.691 145.251C144.669 146.448 144.372 147.624 143.822 148.687C143.272 149.751 142.484 150.673 141.52 151.383C140.483 152.104 141.52 153.817 142.496 153.081C144.212 151.859 145.491 150.121 146.148 148.12C146.805 146.119 146.805 143.961 146.148 141.96C145.224 139.724 143.654 137.814 141.64 136.474C139.356 134.746 136.876 133.258 134.486 131.68L125.469 125.669C124.402 124.963 123.426 126.661 124.478 127.352L124.553 127.367Z" fill="#3C3F69" />
	<path d="M137.958 150.872C137.378 150.813 136.794 150.939 136.29 151.232C135.557 151.616 134.975 152.236 134.637 152.991C134.559 153.18 134.526 153.385 134.54 153.59C134.554 153.795 134.615 153.993 134.719 154.17C134.822 154.348 134.964 154.499 135.135 154.612C135.306 154.725 135.5 154.798 135.704 154.824C135.984 154.85 136.266 154.81 136.528 154.705C136.789 154.601 137.022 154.435 137.207 154.223C137.883 153.637 139.311 153.051 139.13 151.954C139.098 151.662 138.961 151.393 138.746 151.194C138.531 150.995 138.251 150.881 137.958 150.872Z" fill="#3C3F69" />
	<path d="M101.679 115.21C101.525 114.844 101.289 114.518 100.989 114.258C100.69 113.997 100.335 113.809 99.9508 113.707C99.0866 113.459 98.1701 113.459 97.3059 113.707C96.6223 113.949 95.9976 114.332 95.4728 114.833C94.9481 115.333 94.5352 115.939 94.2613 116.61C93.9873 117.282 93.8586 118.004 93.8834 118.728C93.9082 119.453 94.0861 120.164 94.4054 120.815C94.6785 121.278 95.0706 121.659 95.5409 121.919C96.0113 122.178 96.5426 122.307 97.0797 122.292C97.6167 122.277 98.1399 122.118 98.5946 121.831C99.0494 121.545 99.4191 121.142 99.6653 120.665C100.251 119.778 100.582 118.771 101.168 117.885C101.481 117.523 101.693 117.085 101.783 116.616C101.872 116.146 101.837 115.661 101.679 115.21Z" fill="#03452D" />
	<path d="M114.109 109.018C113.896 108.725 113.752 108.387 113.687 108.031C113.621 107.675 113.637 107.308 113.733 106.959C113.947 106.156 114.378 105.428 114.98 104.855C115.488 104.432 116.079 104.119 116.714 103.935C117.349 103.752 118.016 103.703 118.671 103.79C119.327 103.878 119.957 104.101 120.522 104.444C121.087 104.788 121.574 105.245 121.953 105.787C122.175 106.224 122.281 106.711 122.26 107.2C122.239 107.69 122.093 108.166 121.834 108.583C121.576 109 121.215 109.343 120.786 109.58C120.357 109.816 119.874 109.939 119.383 109.934C118.392 109.934 117.43 109.784 116.378 109.844C115.961 109.907 115.534 109.864 115.138 109.72C114.741 109.576 114.388 109.334 114.109 109.018Z" fill="#03452D" />
	<path d="M131.046 89.5559C131.046 89.5559 108.909 58.3271 67.7011 76.8871C39.8987 89.4207 38.2155 117.719 38.2005 118.035C38.2005 118.035 17.3412 120.92 14.621 145.807C13.6893 154.328 18.3631 164.728 22.1352 172.272C27.335 182.792 32.4446 193.537 28.4772 205.334C26.283 211.871 24.69 219.205 25.9524 226.178C26.824 231.018 29.3187 236.788 33.4666 239.704C36.2618 241.613 38.5311 241.087 41.5969 240.17C51.1699 237.314 61.2089 236.488 70.7969 233.648C80.385 230.807 90.3338 227.381 98.8398 221.535C100.646 220.407 102.184 218.899 103.348 217.116C105.603 213.239 102.927 209.482 101.725 205.74C96.315 188.968 81.978 179.095 71.6686 165.614C69.8939 163.307 68.2627 160.893 66.7844 158.386C65.2815 155.801 65.4318 153.081 65.2815 150.165C65.1386 146.724 64.313 143.346 62.8527 140.227C61.3925 137.107 59.3267 134.31 56.7755 131.996C61.1337 130.493 75.2303 124.993 104.956 107.41C114.032 102.033 122.747 96.0691 131.046 89.5559Z" fill="#03452D" />
	<path d="M80.7593 71.4772C89.8189 73.0025 98.4818 76.3252 106.238 81.2497C113.993 86.1742 120.685 92.6009 125.919 100.151C126.445 100.918 127.723 100.151 127.182 99.3999C121.857 91.6835 115.041 85.1121 107.135 80.0737C99.2286 75.0353 90.3932 71.6319 81.15 70.0646C80.2183 69.8993 79.8275 71.3269 80.7593 71.4772Z" fill="#FFD324" />
	<path d="M66.8589 74.648C84.5576 79.7618 100.06 90.6023 110.937 105.471C111.493 106.223 112.77 105.471 112.214 104.72C101.134 89.5113 85.3188 78.4111 67.2496 73.1602C67.0503 73.1084 66.8386 73.1379 66.661 73.2422C66.4835 73.3465 66.3546 73.517 66.3028 73.7163C66.251 73.9156 66.2805 74.1273 66.3848 74.3048C66.489 74.4824 66.6596 74.6113 66.8589 74.6631V74.648Z" fill="#FFD324" />
	<path d="M50.598 80.9601C55.933 81.1855 61.3583 84.4166 65.9269 86.9714C79.46 94.4941 90.8977 105.281 99.1996 118.351C99.7105 119.147 100.988 118.351 100.477 117.614C94.7189 108.546 87.4562 100.526 79.0015 93.8995C74.8934 90.6648 70.5254 87.7745 65.9419 85.2582C61.3432 82.7485 56.0082 79.7127 50.6581 79.4873C49.7113 79.4873 49.7113 80.9901 50.6581 80.9901L50.598 80.9601Z" fill="#FFD324" />
	<path d="M39.9724 92.1712C58.6997 96.1187 75.1338 107.249 85.7487 123.175C86.2747 123.956 87.5521 123.175 87.0261 122.423C76.2117 106.185 59.4752 94.8208 40.3932 90.7585C39.4614 90.5632 39.0707 91.9909 40.0024 92.1862L39.9724 92.1712Z" fill="#FFD324" />
	<path d="M34.1571 104.539C48.7868 108.867 61.3674 118.321 69.5939 131.17C70.1049 131.966 71.3823 131.17 70.8713 130.418C62.4387 117.25 49.5432 107.561 34.5478 103.127C34.3677 103.096 34.1824 103.132 34.0279 103.23C33.8735 103.328 33.7609 103.48 33.7122 103.656C33.6635 103.832 33.682 104.02 33.7642 104.184C33.8465 104.347 33.9865 104.474 34.1571 104.539Z" fill="#FFD324" />
	<path d="M38.0185 119.162C31.1807 123.565 26.0834 130.205 23.5974 137.948C21.1114 145.691 21.3907 154.057 24.3878 161.617C27.5137 169.883 32.6684 177.232 35.7192 185.527C37.4814 190.269 38.2388 195.325 37.9434 200.375C37.6127 206.221 36.2001 211.947 35.4036 217.748C34.0961 227.366 34.9377 238.622 43.6541 244.649C44.4206 245.19 45.157 243.912 44.3905 243.386C35.8845 237.51 35.629 226.239 36.9816 216.997C38.3792 207.439 40.8889 198.001 38.2139 188.443C36.0197 180.613 31.5563 173.7 28.0547 166.426C24.4179 158.912 22.2838 150.857 23.952 142.381C24.8147 137.909 26.5703 133.658 29.1137 129.88C31.6571 126.102 34.9362 122.876 38.7549 120.395C39.5514 119.884 38.7549 118.606 38.0185 119.117V119.162Z" fill="#FFD324" />
	<path d="M44.9022 123.069C39.9729 129.847 35.8852 137.527 35.0136 145.973C34.1419 153.998 36.7719 161.677 40.033 168.891C43.4745 176.495 47.6975 183.919 49.2755 192.215C51.124 201.893 49.0801 211.752 50.0269 221.475C50.7783 229.32 53.4233 237.27 59.9005 242.184C60.6669 242.755 61.4033 241.478 60.6519 240.922C54.4753 236.233 52.0707 228.358 51.4395 220.934C50.6881 212.022 52.2661 203.065 51.0638 194.168C48.9899 178.674 36.8921 166.141 36.3211 150.361C35.9604 140.577 40.559 131.515 46.1796 123.821C46.7357 123.054 45.4583 122.318 44.9022 123.069Z" fill="#FFD324" />
	<path d="M51.6352 127.082C43.2944 140.397 47.0215 156.718 53.138 170.108C56.5494 177.622 60.6522 184.851 64.1838 192.395C67.5926 199.911 69.8375 207.903 70.8414 216.095C71.8483 223.879 72.765 231.995 77.529 238.517C78.07 239.268 79.3474 238.517 78.7913 237.766C74.4331 231.754 73.3811 224.451 72.4644 217.312C71.659 209.993 69.8904 202.813 67.2045 195.957C61.3134 181.515 51.5901 168.38 48.885 152.765C47.3821 144.304 48.2838 135.287 52.9126 127.894C53.4085 127.097 52.1461 126.391 51.6352 127.157V127.082Z" fill="#FFD324" />
	<path d="M58.2027 133.394C56.5848 147.013 58.591 160.818 64.0186 173.414C69.8045 186.834 80.1891 197.039 87.9137 209.227C92.2569 216.08 95.6533 223.654 96.1492 231.844C96.1492 232.791 97.652 232.791 97.652 231.844C96.8104 217.688 88.0189 206.146 79.618 195.34C75.0416 189.706 70.9825 183.67 67.4902 177.306C60.5434 163.772 57.816 148.465 59.6604 133.364C59.7806 132.432 58.3079 132.447 58.1576 133.364L58.2027 133.394Z" fill="#FFD324" />
	<path d="M33.6315 118.651C45.1112 120.712 55.3279 127.186 62.0951 136.685C62.6361 137.451 63.9136 136.685 63.3725 135.933C56.3956 126.13 45.8625 119.442 34.0222 117.298C33.0905 117.133 32.6997 118.546 33.6315 118.711V118.651Z" fill="#FFD324" />
	<path d="M76.0705 162.294C76.0705 162.294 54.0991 147.987 42.7677 162.609C31.4363 177.232 58.2469 193.613 78.0692 185.828C91.0687 180.718 85.0274 166.712 76.0705 162.294Z" fill="#B06553" />
	<path d="M52.4174 172.272C52.8256 170.75 53.7121 169.4 54.9459 168.421C56.1798 167.441 57.6958 166.884 59.2703 166.832C63.1025 166.576 66.6492 168.725 69.4294 171.145L70.2109 169.251C68.9908 169.171 67.7737 169.447 66.7068 170.044C65.64 170.642 64.7691 171.536 64.1996 172.618C63.6127 173.723 63.3854 174.983 63.5493 176.224C63.7131 177.464 64.26 178.623 65.1137 179.538C65.9674 180.453 67.0852 181.078 68.3114 181.328C69.5377 181.577 70.8111 181.437 71.9542 180.928C73.089 180.421 74.0507 179.593 74.7209 178.547C75.3911 177.5 75.7406 176.28 75.7263 175.037C75.7263 173.624 73.472 173.624 73.5171 175.037C73.5744 175.831 73.3839 176.623 72.972 177.305C72.56 177.986 71.9469 178.522 71.2172 178.84C70.4874 179.159 69.6769 179.242 68.8975 179.081C68.1181 178.919 67.408 178.519 66.8653 177.937C66.3226 177.354 65.9739 176.618 65.8672 175.829C65.7606 175.04 65.9014 174.237 66.2701 173.532C66.6387 172.826 67.2172 172.253 67.9257 171.89C68.6343 171.527 69.4379 171.392 70.2259 171.505C70.4414 171.501 70.6509 171.434 70.829 171.312C71.007 171.19 71.1458 171.02 71.2286 170.821C71.3114 170.622 71.3346 170.403 71.2953 170.191C71.256 169.979 71.156 169.783 71.0074 169.627C67.6411 166.621 63.2828 164.172 58.6541 164.728C56.7101 164.894 54.8645 165.655 53.3692 166.908C51.8738 168.162 50.8015 169.846 50.2984 171.731C50.0128 173.113 52.1318 173.715 52.4324 172.317L52.4174 172.272Z" fill="#3C3F69" />
	<path d="M227.858 64.5669C229.063 67.5956 229.692 70.5932 229.747 73.5599C229.801 76.5267 229.31 79.3205 228.274 81.9415C227.26 84.5102 225.691 86.8237 223.565 88.8822C221.476 90.9258 218.88 92.565 215.777 93.7997C212.561 95.079 209.459 95.6636 206.47 95.5534C203.481 95.4433 200.736 94.803 198.235 93.6326C195.734 92.4623 193.525 90.8292 191.608 88.7333C189.729 86.6225 188.247 84.2024 187.161 81.4729C186.075 78.7434 185.49 75.9662 185.405 73.1414C185.358 70.3018 185.841 67.5976 186.855 65.0289C187.854 62.4228 189.409 60.0718 191.52 57.9759C193.616 55.8427 196.272 54.1364 199.488 52.8571C203.339 51.3248 206.998 50.7787 210.464 51.2185C213.953 51.6061 217.063 52.729 219.795 54.5873L217.548 57.4302C214.847 55.2133 211.838 53.7468 208.522 53.0307C205.228 52.2624 201.823 52.5774 198.309 53.9758C195.616 55.0468 193.458 56.5336 191.833 58.4361C190.245 60.3237 189.143 62.4513 188.526 64.819C187.931 67.1344 187.818 69.6263 188.187 72.2947C188.578 74.9108 189.395 77.5091 190.638 80.0894C191.881 82.6698 193.454 84.9892 195.355 87.0477C197.242 89.0688 199.335 90.683 201.635 91.8904C203.956 93.0454 206.417 93.7338 209.017 93.9553C211.617 94.1768 214.263 93.752 216.956 92.681C219.648 91.6099 221.788 90.1306 223.375 88.243C225 86.3405 226.11 84.2315 226.705 81.9161C227.322 79.5485 227.435 77.0566 227.044 74.4404C226.675 71.772 225.869 69.1477 224.626 66.5673L224.581 66.4551L209.607 72.4129L209.406 71.9081L227.858 64.5669Z" fill="#03452D" />
	<path d="M235.667 49.3771C237.013 48.8416 238.38 48.7955 239.769 49.239C241.196 49.6676 242.547 50.451 243.823 51.5892C245.136 52.7125 246.358 54.1532 247.491 55.9114C248.646 57.6173 249.64 59.5172 250.473 61.611C251.291 63.6675 251.874 65.731 252.222 67.8016C252.591 69.8199 252.693 71.7069 252.525 73.4626C252.38 75.1661 251.936 76.6635 251.194 77.9549C250.474 79.194 249.441 80.0813 248.095 80.6169C246.749 81.1524 245.37 81.2246 243.959 80.8334C242.57 80.3899 241.219 79.6065 239.906 78.4832C238.615 77.3076 237.392 75.8669 236.237 74.161C235.105 72.4028 234.129 70.4955 233.311 68.439C232.478 66.3452 231.876 64.2891 231.507 62.2708C231.159 60.2002 231.058 58.3132 231.203 56.6097C231.386 54.8914 231.829 53.394 232.534 52.1175C233.276 50.8261 234.321 49.9126 235.667 49.3771ZM249.735 78.8601C250.438 78.4504 250.918 77.805 251.173 76.9237C251.466 76.0275 251.573 74.989 251.493 73.8082C251.45 72.6125 251.251 71.3493 250.895 70.0185C250.524 68.6503 250.04 67.3268 249.445 66.0478C248.195 63.3404 246.873 60.943 245.479 58.8556C244.071 56.7308 242.699 55.0245 241.364 53.7367C240.014 52.4116 238.708 51.5236 237.446 51.0729C236.169 50.5848 235.037 50.6238 234.049 51.1899C233.271 51.6294 232.739 52.3607 232.453 53.3839C232.19 54.3549 232.121 55.4868 232.245 56.7798C232.392 58.0205 232.693 59.3736 233.146 60.8391C233.621 62.2523 234.172 63.6357 234.797 64.9894C235.973 67.5099 237.217 69.7652 238.528 71.7553C239.825 73.7081 241.133 75.3096 242.454 76.56C243.774 77.8104 245.065 78.6609 246.327 79.1116C247.574 79.5249 248.71 79.4411 249.735 78.8601Z" fill="#03452D" />
	<path d="M257.137 40.8351C258.483 40.2996 259.851 40.2536 261.24 40.697C262.666 41.1256 264.017 41.909 265.293 43.0472C266.606 44.1705 267.829 45.6113 268.961 47.3694C270.116 49.0753 271.111 50.9752 271.944 53.0691C272.762 55.1255 273.345 57.1891 273.692 59.2596C274.062 61.2779 274.163 63.1649 273.995 64.9207C273.85 66.6241 273.406 68.1216 272.664 69.413C271.945 70.6521 270.912 71.5394 269.566 72.0749C268.22 72.6104 266.841 72.6826 265.429 72.2914C264.04 71.848 262.689 71.0646 261.376 69.9412C260.085 68.7657 258.863 67.3249 257.707 65.619C256.575 63.8609 255.599 61.9535 254.781 59.8971C253.948 57.8032 253.347 55.7471 252.977 53.7288C252.63 51.6583 252.528 49.7713 252.674 48.0678C252.856 46.3494 253.3 44.852 254.005 43.5755C254.747 42.2841 255.791 41.3707 257.137 40.8351ZM271.205 70.3182C271.909 69.9085 272.388 69.263 272.644 68.3817C272.937 67.4855 273.043 66.447 272.963 65.2662C272.921 64.0705 272.721 62.8073 272.365 61.4765C271.994 60.1083 271.511 58.7848 270.915 57.5059C269.665 54.7985 268.343 52.4011 266.95 50.3136C265.541 48.1888 264.169 46.4825 262.834 45.1947C261.484 43.8696 260.178 42.9817 258.916 42.531C257.639 42.0429 256.507 42.0819 255.519 42.648C254.742 43.0874 254.21 43.8187 253.924 44.8419C253.66 45.8129 253.591 46.9449 253.716 48.2378C253.863 49.4786 254.163 50.8317 254.616 52.2971C255.092 53.7103 255.642 55.0938 256.267 56.4475C257.443 58.9679 258.687 61.2232 259.999 63.2134C261.295 65.1661 262.604 66.7677 263.924 68.018C265.244 69.2684 266.535 70.1189 267.797 70.5696C269.045 70.983 270.181 70.8991 271.205 70.3182Z" fill="#03452D" />
	<path d="M297.319 54.3421C297.929 55.8751 298.457 56.9858 298.904 57.6741C299.337 58.325 299.761 58.8489 300.179 59.2457L298.889 59.7589C297.207 60.4283 295.8 59.3422 294.67 56.5005L292.037 49.8824C292.533 51.8934 292.803 53.7135 292.845 55.3426C292.886 56.9717 292.764 58.4062 292.478 59.6461C292.177 60.8487 291.73 61.8492 291.139 62.6476C290.547 63.4461 289.858 64.0015 289.073 64.3139C288.25 64.6412 287.316 64.688 286.271 64.4544C285.262 64.206 284.228 63.6212 283.169 62.7001C282.11 61.779 281.051 60.5329 279.993 58.9617C278.919 57.3531 277.914 55.371 276.977 53.0153C276.144 50.9215 275.505 48.7719 275.061 46.5667C274.654 44.3466 274.516 42.2577 274.647 40.3002C274.815 38.3277 275.296 36.5987 276.091 35.1131C276.924 33.6127 278.162 32.5352 279.807 31.8807C280.667 31.5385 281.508 31.4205 282.33 31.5266C283.174 31.5805 283.97 31.5671 284.718 31.4862L280.634 21.2225C280.024 19.6895 279.503 18.5976 279.071 17.9466C278.624 17.2583 278.173 16.7232 277.718 16.3413L280.851 12.9508L297.319 54.3421ZM288.444 40.8526C287.834 39.3196 287.123 38.0217 286.31 36.9591C285.498 35.8965 284.647 35.0655 283.759 34.466C282.871 33.8666 281.983 33.4838 281.094 33.3178C280.205 33.1517 279.386 33.2175 278.639 33.515C277.928 33.7976 277.307 34.3046 276.775 35.0359C276.243 35.7673 275.909 36.7231 275.772 37.9035C275.621 39.0466 275.674 40.4328 275.933 42.0623C276.176 43.6544 276.7 45.4601 277.503 47.4791C278.589 50.2087 279.694 52.4973 280.819 54.3451C281.944 56.1929 283.048 57.6596 284.129 58.7451C285.196 59.7933 286.211 60.4939 287.174 60.8469C288.122 61.1625 288.97 61.1715 289.718 60.874C290.466 60.5765 291.065 60.0134 291.515 59.1848C291.987 58.3039 292.262 57.1985 292.339 55.8685C292.416 54.5385 292.296 52.984 291.978 51.2049C291.66 49.4259 291.077 47.4707 290.229 45.3394L288.444 40.8526Z" fill="#03452D" />
	<path d="M233.355 97.2176C233.248 98.2561 233.265 99.5489 233.404 101.096C233.528 102.606 233.686 104.037 233.878 105.39L239.001 141.29L238.608 141.446L225.686 122.356L228.962 145.284L228.569 145.441L207.319 114.072C207.081 113.691 206.79 113.287 206.447 112.86C206.089 112.396 205.713 111.94 205.317 111.491C204.945 110.989 204.576 110.551 204.21 110.177C203.83 109.765 203.487 109.447 203.181 109.222L208.06 107.281C208.09 107.573 208.119 107.864 208.148 108.156C208.215 108.432 208.323 108.757 208.471 109.131C208.62 109.505 208.851 109.976 209.164 110.545C209.477 111.113 209.92 111.847 210.494 112.744L227.439 138.354L225.038 121.38L217.358 110.078C217.12 109.697 216.829 109.293 216.486 108.866C216.129 108.402 215.752 107.946 215.357 107.496C214.984 106.995 214.615 106.557 214.25 106.183C213.869 105.771 213.526 105.453 213.22 105.228L218.1 103.287C218.129 103.578 218.158 103.87 218.188 104.161C218.254 104.438 218.362 104.763 218.511 105.137C218.66 105.511 218.89 105.982 219.203 106.551C219.516 107.119 219.959 107.852 220.533 108.75L223.942 113.89C223.684 112.044 223.429 110.478 223.177 109.192C222.926 107.907 222.674 106.837 222.421 105.985C222.191 105.081 221.939 104.337 221.663 103.753C221.425 103.155 221.135 102.642 220.792 102.216L223.316 101.212C223.209 102.25 223.225 103.543 223.364 105.09C223.489 106.6 223.647 108.031 223.838 109.384L224.613 114.923L237.456 134.304L234.557 113.63C234.196 111.088 233.864 108.947 233.561 107.205C233.257 105.463 232.965 104.021 232.683 102.877C232.424 101.681 232.134 100.735 231.814 100.039C231.531 99.329 231.204 98.7231 230.831 98.2218L233.355 97.2176Z" fill="#03452D" />
	<path d="M245.667 102.259C247.013 101.723 248.38 101.677 249.77 102.121C251.196 102.549 252.547 103.333 253.823 104.471C255.136 105.594 256.359 107.035 257.491 108.793C258.646 110.499 259.64 112.399 260.473 114.493C261.292 116.549 261.874 118.613 262.222 120.683C262.592 122.702 262.693 124.589 262.525 126.344C262.38 128.048 261.936 129.545 261.194 130.837C260.474 132.076 259.442 132.963 258.096 133.499C256.749 134.034 255.371 134.106 253.959 133.715C252.57 133.272 251.219 132.488 249.906 131.365C248.615 130.189 247.392 128.749 246.237 127.043C245.105 125.284 244.129 123.377 243.311 121.321C242.478 119.227 241.877 117.171 241.507 115.152C241.159 113.082 241.058 111.195 241.203 109.491C241.386 107.773 241.83 106.276 242.534 104.999C243.277 103.708 244.321 102.794 245.667 102.259ZM259.735 131.742C260.438 131.332 260.918 130.687 261.174 129.805C261.467 128.909 261.573 127.871 261.493 126.69C261.451 125.494 261.251 124.231 260.895 122.9C260.524 121.532 260.041 120.208 259.445 118.929C258.195 116.222 256.873 113.825 255.479 111.737C254.071 109.612 252.699 107.906 251.364 106.618C250.014 105.293 248.708 104.405 247.446 103.955C246.169 103.466 245.037 103.505 244.049 104.072C243.271 104.511 242.74 105.242 242.454 106.266C242.19 107.237 242.121 108.368 242.246 109.661C242.393 110.902 242.693 112.255 243.146 113.721C243.622 115.134 244.172 116.517 244.797 117.871C245.973 120.392 247.217 122.647 248.528 124.637C249.825 126.59 251.133 128.191 252.454 129.442C253.774 130.692 255.065 131.543 256.327 131.993C257.575 132.407 258.71 132.323 259.735 131.742Z" fill="#03452D" />
	<path d="M265.92 103.231C265.327 100.868 265.2 98.7534 265.54 96.8859C265.917 95.0035 266.853 93.7648 268.349 93.1698L269.888 97.0397C269.261 96.9862 268.685 97.0636 268.162 97.2719C267.489 97.5396 266.98 98.002 266.635 98.659C266.327 99.301 266.147 100.044 266.093 100.889C266.039 101.733 266.123 102.652 266.345 103.646C266.553 104.603 266.85 105.568 267.237 106.54L272.949 120.898C273.559 122.431 274.069 123.549 274.478 124.252C274.911 124.903 275.354 125.42 275.809 125.801L271.154 127.654C271.223 127.063 271.172 126.391 271.001 125.636C270.853 124.828 270.474 123.658 269.864 122.125L262.545 103.729C261.935 102.196 261.414 101.104 260.982 100.453C260.573 99.7499 260.14 99.2073 259.685 98.8254L262.841 95.491L265.92 103.231Z" fill="#03452D" />
	<path d="M292.054 110.374C292.636 110.965 293.348 111.613 294.191 112.317C295.034 113.021 295.874 113.661 296.71 114.238C297.545 114.815 298.355 115.272 299.139 115.61C299.908 115.91 300.517 115.971 300.966 115.793L295.974 117.779C295.675 117.898 295.324 117.886 294.921 117.743C294.555 117.586 294.159 117.353 293.734 117.046C293.309 116.739 292.895 116.406 292.492 116.046C292.074 115.649 291.664 115.271 291.261 114.912L283.137 107.23L282.899 109.079L285.599 115.865C286.208 117.398 286.718 118.516 287.128 119.22C287.56 119.87 288.004 120.387 288.459 120.769L283.804 122.621C283.872 122.031 283.814 121.339 283.628 120.547C283.48 119.74 283.109 118.588 282.514 117.093L268.858 82.768C268.248 81.235 267.727 80.143 267.295 79.4921C266.885 78.7889 266.453 78.2464 265.997 77.8644L269.131 74.4739L282.475 108.013L283.839 97.401C283.93 96.7585 284.003 96.0151 284.056 95.1708C284.148 94.3116 284.187 93.4299 284.173 92.5257C284.16 91.6215 284.098 90.7583 283.988 89.9361C283.862 89.0766 283.654 88.3364 283.364 87.7156L286.337 86.533C286.014 87.3544 285.747 88.2618 285.536 89.2553C285.325 90.2487 285.143 91.317 284.992 92.46C284.863 93.5508 284.73 94.6863 284.593 95.8668C284.457 97.0472 284.32 98.2276 284.183 99.408L283.74 102.703L292.054 110.374Z" fill="#03452D" />
	<path d="M294.005 90.4984C294.496 91.7322 295.192 92.6676 296.095 93.3045C296.984 93.9039 297.973 94.3765 299.063 94.7223C300.176 95.0158 301.33 95.2496 302.525 95.4237C303.758 95.5829 304.92 95.8354 306.01 96.1811C307.138 96.512 308.161 97.0146 309.078 97.6888C309.996 98.363 310.716 99.3545 311.236 100.663C311.95 102.458 312.381 104.084 312.527 105.541C312.697 106.947 312.646 108.179 312.375 109.24C312.104 110.301 311.631 111.182 310.958 111.883C310.321 112.569 309.573 113.083 308.713 113.425C307.703 113.827 306.586 114.012 305.36 113.98C304.158 113.895 302.962 113.613 301.775 113.132L301.637 109.03C302.846 109.891 304.104 110.387 305.412 110.516C306.757 110.631 307.971 110.472 309.056 110.041C310.252 109.565 311.165 108.812 311.795 107.782C312.409 106.714 312.434 105.47 311.869 104.049C311.333 102.703 310.595 101.719 309.655 101.097C308.752 100.461 307.744 99.9954 306.631 99.7019C305.518 99.4084 304.36 99.2194 303.157 99.135C301.977 98.9983 300.83 98.7832 299.718 98.4897C298.59 98.1588 297.548 97.6637 296.593 97.0043C295.675 96.3301 294.934 95.2825 294.368 93.8617C293.639 92.0296 293.205 90.4483 293.066 89.1179C292.949 87.7353 293.029 86.5772 293.307 85.6436C293.608 84.6578 294.073 83.8666 294.702 83.2699C295.331 82.6733 296.019 82.2262 296.767 81.9287C297.739 81.5419 298.711 81.3719 299.682 81.4185C300.676 81.4129 301.539 81.5676 302.27 81.8829L301.938 85.7829C301.103 84.9893 300.098 84.4793 298.926 84.2529C297.79 84.0117 296.737 84.0845 295.764 84.4712C294.792 84.858 294.092 85.5479 293.664 86.541C293.237 87.5341 293.35 88.8532 294.005 90.4984Z" fill="#03452D" />
</svg>
