<svg width="268" height="209" viewBox="0 0 268 209" fill="none" xmlns="http://www.w3.org/2000/svg">
	<path d="M232.754 100.875C232.146 98.2676 230.58 95.991 228.371 94.5059L227.086 93.585C226.265 92.0108 225.062 90.6721 223.59 89.6937L208.887 79.4338C208.642 78.9623 208.367 78.5074 208.064 78.0718C207.064 76.663 205.741 75.5192 204.209 74.7383C203.954 74.2066 203.653 73.6987 203.309 73.2207C202.489 72.0775 201.455 71.1087 200.264 70.3698C199.073 69.6308 197.749 69.1363 196.368 68.9144C196.368 68.9144 195.019 68.7198 194.145 68.6549C193.747 68.6549 193.31 68.6549 192.975 68.6549H192.461C191.835 68.4538 191.195 68.2978 190.546 68.188L189.261 68.0064C186.651 63.3403 183.553 58.97 180.02 54.9706C178.7 53.466 177.347 52.0133 175.959 50.6124C176.357 50.3919 176.768 50.1714 177.167 49.925C180.071 48.2388 181.421 46.0337 181.215 43.3487C180.907 39.4575 177.655 37.5896 176.138 36.7206C174.622 35.8515 173.015 34.9825 171.434 34.1264C171.333 31.7892 171.071 29.4618 170.65 27.1611C170.432 25.9807 169.776 22.4137 166.255 21.0647C165.544 20.7943 164.791 20.658 164.031 20.6626C161.711 20.8218 159.538 21.8651 157.952 23.5811C156.564 24.8782 155.202 26.1753 153.878 27.4724C152.091 27.0313 150.24 26.5903 148.364 26.2661H148.145C147.25 26.0697 146.337 25.9611 145.421 25.9418C144.462 25.906 143.507 26.0785 142.62 26.4478C141.733 26.817 140.935 27.3744 140.28 28.082C138.57 27.5502 136.848 27.0703 135.139 26.6682C135.601 25.6717 135.984 24.6393 136.283 23.5811C138.082 16.5638 137.182 10.234 133.712 5.75908C132.418 3.98405 130.731 2.5389 128.785 1.53898C126.839 0.539054 124.688 0.0120397 122.505 0C115.641 0 107.647 5.47372 106.336 17.4977C106.22 18.5224 106.13 22.0246 106.066 25.8121C100.578 26.8033 95.1945 28.3146 89.9875 30.3259C89.6124 29.8696 89.1804 29.4641 88.7022 29.1197C87.6547 28.3349 86.3823 27.916 85.0778 27.9263C83.6829 27.9981 82.3216 28.3837 81.0935 29.0548C79.911 29.5866 78.78 30.1703 77.6747 30.741C76.595 30.1314 75.5026 29.5088 74.3844 28.8992C73.0777 28.1139 71.5982 27.6682 70.0788 27.6021C68.8102 27.5929 67.5703 27.9828 66.5315 28.7176C64.6036 30.0146 63.7167 32.2327 63.9609 35.203C64.0567 36.8059 64.2585 38.4006 64.565 39.9763C63.691 40.7805 62.8171 41.5977 61.9174 42.4537C61.0177 43.3098 58.4857 45.7613 59.0898 49.3542C59.1439 49.6849 59.2256 50.0103 59.334 50.3271C52.5015 57.3414 46.9149 65.489 42.8184 74.414C42.3674 74.089 41.8901 73.8026 41.3918 73.5579C40.5133 71.7785 39.1599 70.2819 37.4841 69.2369C35.8082 68.1919 33.8765 67.6399 31.9065 67.6432C31.4384 67.6386 30.9704 67.6646 30.5056 67.721L9.32452 70.2374C7.92616 70.4224 6.57842 70.8871 5.36021 71.6043C4.142 72.3214 3.07779 73.2767 2.22988 74.414C1.3729 75.5796 0.756187 76.9067 0.41622 78.317C0.0762529 79.7272 0.0199305 81.192 0.250583 82.6246L2.75684 98.5788C2.99839 100.323 3.65699 101.983 4.67582 103.413C5.69465 104.844 7.0431 106.002 8.60478 106.789C9.36251 108.352 10.4934 109.7 11.8956 110.712C13.2978 111.724 14.9274 112.369 16.6377 112.587L17.3703 112.691L19.1054 117.879C19.3117 118.464 19.5609 119.032 19.8508 119.579C19.8508 119.682 19.8508 119.786 19.8508 119.89C19.9439 120.553 20.1032 121.205 20.3263 121.836L25.0304 134.897C25.5789 136.849 26.6773 138.597 28.1921 139.93C28.1315 140.726 28.153 141.525 28.2564 142.317C28.4965 144.03 29.1478 145.658 30.1535 147.06C31.1593 148.461 32.489 149.594 34.0272 150.359C34.91 152.115 36.244 153.601 37.8899 154.659C39.5358 155.718 41.4332 156.311 43.3839 156.377H43.8209L46.0316 156.286C46.6356 157.194 47.2268 158.05 47.8181 158.88C52.6786 165.561 58.2849 171.654 64.5265 177.04C62.1562 179.872 60.0076 182.886 58.1002 186.055C54.9127 191.801 54.6428 197.728 57.3675 202.476C58.5208 204.465 60.1738 206.113 62.1596 207.251C64.1455 208.39 66.3939 208.98 68.6778 208.961C74.9628 208.961 80.5408 204.707 83.574 197.573C84.505 195.326 85.2907 193.021 85.926 190.672C92.5723 193.667 99.596 195.723 106.799 196.781C106.799 197.417 106.799 198.079 106.876 198.714V199.012C106.953 200.595 107.107 204.318 110.397 206.341C111.359 206.94 112.468 207.254 113.598 207.249C115.391 207.16 117.114 206.517 118.533 205.407C120.461 204.11 122.235 202.566 123.944 201.114C125.872 201.749 127.864 202.411 129.895 202.917C130.906 203.214 131.952 203.375 133.005 203.397C134.707 203.426 136.363 202.837 137.671 201.736C139.611 200.05 140.241 197.612 139.509 194.499C146.298 192.499 152.785 189.571 158.787 185.795C161.911 190.244 166.152 192.76 170.599 192.76C172.729 192.799 174.819 192.173 176.583 190.968C178.348 189.764 179.7 188.038 180.457 186.029C182.192 181.32 180.457 175.924 175.894 171.371C178.054 168.978 180.071 166.457 181.935 163.822C183.791 164.38 185.718 164.664 187.654 164.665C190.686 164.726 193.68 163.986 196.34 162.519C199.001 161.051 201.235 158.907 202.82 156.299L203.514 155.158C204.446 153.611 204.985 151.855 205.083 150.047C206.234 147.333 206.433 144.304 205.648 141.461L215.93 127.037C217.742 127.01 219.518 126.52 221.091 125.613C222.664 124.705 223.984 123.41 224.927 121.849C225.054 121.648 225.17 121.44 225.274 121.226L226.958 117.957C227.23 117.439 227.453 116.896 227.626 116.336C227.703 116.102 227.767 115.856 227.832 115.61C228.234 115.111 228.591 114.577 228.898 114.014L231.713 108.566C233.009 106.227 233.381 103.479 232.754 100.875Z" fill="white" />
	<path d="M84.6514 38.2252C64.6142 47.7848 49.6024 66.2553 43.2917 87.8259C34.5391 117.724 40.1557 139.878 51.8901 155.806C93.2498 211.97 162.243 199.22 185.763 146.818C198.05 119.332 198.268 83.3769 176.085 58.369C157.718 37.6156 126.589 18.2371 84.6514 38.2252Z" fill="#FFCE59" />
	<path d="M189.374 119.669C183.424 138.827 171.034 155.988 153.747 166.131C124.649 183.266 84.1887 176.91 65.6681 147.544C38.6776 104.934 59.4346 55.2689 81.374 39.9114C72.2158 44.978 64.1381 51.8181 57.6033 60.0401C51.0685 68.262 46.2051 77.7042 43.2917 87.8259C34.5391 117.724 40.1557 139.878 51.8901 155.806C93.2498 211.97 162.243 199.22 185.763 146.817C192.542 131.826 195.248 115.285 193.603 98.89C192.903 105.945 191.486 112.908 189.374 119.669Z" fill="#F4B537" />
	<path d="M227.74 102.081C227.415 100.714 226.582 99.5247 225.413 98.7604L222.843 96.9834C222.483 95.7231 221.684 94.6361 220.594 93.9223L206.122 83.792C205.687 83.5229 205.22 83.3094 204.733 83.1565C204.589 82.4003 204.287 81.6839 203.847 81.0552C202.967 79.8508 201.649 79.0483 200.184 78.8242H200.029C199.925 77.8882 199.584 76.995 199.04 76.23C198.614 75.6206 198.072 75.1034 197.445 74.709C196.818 74.3147 196.119 74.0512 195.39 73.9342L193.475 73.7137H192.87C192.46 73.7163 192.05 73.7642 191.649 73.8563C191.05 73.5388 190.403 73.3241 189.734 73.2208L175.892 71.34C175.565 71.2898 175.234 71.2638 174.903 71.2622C173.57 71.2459 172.278 71.7266 171.275 72.6123C170.271 73.4979 169.627 74.7261 169.466 76.0614L168.502 82.5468C168.45 82.8598 168.424 83.1765 168.425 83.4937C168.321 83.7975 168.243 84.11 168.193 84.4276L167.165 91.3152C167.004 92.2145 167.064 93.1401 167.34 94.0107C167.615 94.8813 168.098 95.6704 168.746 96.309L167.936 98.2157C167.706 98.6493 167.533 99.1115 167.422 99.5906C166.71 98.893 165.872 98.3384 164.955 97.9562L164.633 97.2818C164.492 96.9669 164.32 96.6671 164.119 96.3868C162.971 94.5488 161.168 93.2257 159.081 92.6901C158.82 92.6708 158.558 92.6708 158.297 92.6901C156.879 92.7384 155.531 93.3216 154.518 94.3244C154.152 94.6427 153.765 94.9373 153.362 95.2064L152.976 95.0767C153.032 94.9031 153.075 94.7253 153.105 94.5449L155.161 85.2318C155.237 84.769 155.263 84.2993 155.238 83.831C155.496 83.3543 155.686 82.8435 155.804 82.3134L156.665 78.6037C156.672 78.4957 156.672 78.3874 156.665 78.2794C156.8 77.5566 156.791 76.8138 156.638 76.0945C156.485 75.3753 156.192 74.6939 155.776 74.0901C155.36 73.4864 154.828 72.9724 154.213 72.5782C153.598 72.1839 152.911 71.9173 152.192 71.794H151.896C151.775 70.6072 151.267 69.4943 150.454 68.6286C149.64 67.763 148.566 67.1931 147.398 67.0077L126.564 62.857C126.241 62.8073 125.914 62.7813 125.587 62.7792C124.251 62.7629 122.956 63.2451 121.95 64.1331C120.944 65.0212 120.299 66.2527 120.138 67.5914L117.991 82.3134C117.413 81.8983 116.783 81.4573 116.076 81.0163L115.639 80.7179C112.267 78.51 108.453 77.0795 104.47 76.5283C104.226 76.509 103.981 76.509 103.738 76.5283C103.473 76.5045 103.206 76.5045 102.941 76.5283C98.7937 77.1005 94.7632 78.3353 91.0007 80.1861L90.0882 74.8292C89.9406 73.6072 89.3902 72.4708 88.5253 71.6027C87.6605 70.7346 86.5315 70.1852 85.3199 70.0429C85.1813 68.6741 84.5369 67.4082 83.5152 66.4972C82.4934 65.5862 81.1692 65.097 79.8061 65.1269C79.5236 65.1081 79.2403 65.1081 78.9578 65.1269L77.2356 65.542C76.6054 65.6387 75.9966 65.845 75.4362 66.1516C75.0854 66.078 74.7277 66.0432 74.3694 66.0479C74.0373 66.0551 73.7063 66.0898 73.3798 66.1516L59.5889 68.4864C58.8592 68.5836 58.1555 68.8249 57.5182 69.1965C56.8809 69.5682 56.3224 70.063 55.8745 70.6525C55.4353 71.2614 55.1194 71.9517 54.9452 72.6841C54.771 73.4164 54.7417 74.1762 54.8592 74.92L55.8488 81.4054C55.899 81.7205 55.9676 82.0324 56.0545 82.3393C56.0294 82.6588 56.0294 82.9797 56.0545 83.2992L57.1084 90.1867C57.222 91.0931 57.5545 91.9575 58.0766 92.7039C58.5988 93.4503 59.2947 94.0557 60.103 94.4671L59.8974 96.5295C59.8076 97.0922 59.8076 97.6659 59.8974 98.2286C59.8097 98.5023 59.7537 98.7852 59.7303 99.0717L59.6018 100.2C59.4321 100.09 59.2561 99.9908 59.0748 99.9019C58.4159 98.7274 57.574 97.6675 56.5814 96.7629C56.3544 96.4987 56.1002 96.2596 55.8231 96.0495C54.3543 94.8574 52.5617 94.1428 50.6821 94.0001C50.4254 93.9812 50.1676 93.9812 49.9109 94.0001C49.095 94.1519 48.324 94.4888 47.656 94.9854C46.9881 95.482 46.4407 96.1253 46.0552 96.8667C45.7985 97.2869 45.5152 97.6898 45.2069 98.073H44.8727C44.6418 98.0537 44.4096 98.0537 44.1787 98.073C43.9439 98.1018 43.7118 98.1495 43.4846 98.2157C42.7649 89.7327 42.7649 89.6938 42.752 89.6289C42.6858 89.1846 42.5693 88.7494 42.405 88.3319C42.5293 87.8055 42.5726 87.2631 42.5335 86.7235L42.2508 82.923V82.5987C42.1103 81.3472 41.5533 80.1808 40.6709 79.2902C39.7884 78.3996 38.6326 77.8375 37.3925 77.6957C37.2319 76.3487 36.587 75.108 35.5802 74.209C34.5733 73.3101 33.2745 72.8153 31.9301 72.8187C31.6474 72.8187 31.3389 72.8187 31.1847 72.8187L10.0422 75.361C9.31181 75.4561 8.60742 75.6965 7.96982 76.0683C7.33222 76.4401 6.77408 76.936 6.32775 77.5271C5.87662 78.133 5.54989 78.8237 5.36671 79.5588C5.18353 80.2938 5.14759 81.0583 5.26098 81.8075L7.83151 97.8006C7.9651 99.012 8.49736 100.143 9.34317 101.013C10.189 101.883 11.2994 102.442 12.497 102.6H12.6255C12.7592 103.815 13.2928 104.949 14.141 105.821C14.9892 106.694 16.1029 107.254 17.3039 107.412L20.6198 107.905H21.1982L23.9487 116.012C24.1609 116.629 24.4784 117.204 24.8869 117.711C24.8804 118.145 24.9105 118.579 24.9769 119.008C25.0282 119.329 25.1055 119.646 25.2082 119.955L29.9251 133.302C30.133 134.121 30.5303 134.878 31.0844 135.511C31.6385 136.145 32.3336 136.637 33.1126 136.947C33.469 137.172 33.7683 137.479 33.9866 137.842C33.9627 137.93 33.9326 138.017 33.8966 138.101C33.4069 139.184 33.216 140.381 33.3439 141.564C33.5237 142.765 34.0886 143.873 34.9522 144.719C35.8158 145.565 36.9304 146.102 38.1251 146.247C38.1251 146.247 38.1251 146.364 38.1251 146.415C38.3315 147.715 38.9814 148.901 39.9625 149.768C40.9435 150.634 42.194 151.128 43.4975 151.163H43.8188L53.484 150.696H53.9209C55.1482 150.557 56.2942 150.007 57.1768 149.135C58.0593 148.264 58.6279 147.119 58.7921 145.884L59.2548 142.407L60.103 144.249C60.5079 145.043 61.0904 145.73 61.8043 146.257C62.5182 146.784 63.3439 147.136 64.2159 147.285H64.7814L75.9503 147.985H76.2459C76.4728 147.997 76.7002 147.997 76.9271 147.985C78.1902 147.816 79.3538 147.203 80.214 146.254C81.0741 145.305 81.5758 144.081 81.6312 142.797V142.031C82.9534 143.802 84.5004 145.389 86.2324 146.753C87.6655 148.648 89.3525 150.333 91.2449 151.759C91.4094 151.893 91.5858 152.01 91.7719 152.11C92.3176 152.434 92.9125 152.667 93.5327 152.797C93.6681 152.991 93.814 153.177 93.9697 153.355C96.643 156.351 103.673 157.363 104.856 157.428L107.015 157.545C107.413 157.545 107.799 157.545 108.185 157.545C113.285 157.578 118.205 155.643 121.937 152.136C122.387 151.731 122.773 151.258 123.081 150.735C126.602 148.582 129.918 142.654 131.808 138.763C132.142 138.969 132.495 139.143 132.862 139.282C133.016 139.347 133.175 139.399 133.337 139.437L133.941 139.593C134.098 140.619 134.528 141.583 135.184 142.382C135.84 143.181 136.699 143.786 137.669 144.133L138.144 144.288L147.282 146.688L147.706 146.779C148.038 146.829 148.373 146.855 148.709 146.857C149.769 146.878 150.812 146.588 151.711 146.021C152.61 145.454 153.327 144.636 153.773 143.666L154.493 142.109L155.508 142.498C155.659 143.376 156.01 144.205 156.534 144.921C157.059 145.638 157.742 146.22 158.528 146.623C158.695 146.712 158.866 146.79 159.042 146.857L169.504 150.903C169.807 151.023 170.122 151.11 170.443 151.163C170.749 151.209 171.058 151.235 171.368 151.241C172.004 151.24 172.635 151.126 173.232 150.903C173.768 151.443 174.344 151.942 174.954 152.395L175.494 152.732L175.789 152.875C176.808 154.583 178.159 156.066 179.761 157.233C179.933 157.362 180.113 157.479 180.301 157.583C182.563 158.819 185.093 159.47 187.665 159.477C189.819 159.53 191.948 159.013 193.842 157.978C195.736 156.942 197.329 155.425 198.461 153.575L199.143 152.46C199.807 151.375 200.083 150.093 199.927 148.828C199.923 148.802 199.923 148.776 199.927 148.75C201.302 146.493 201.212 143.64 199.862 140.643L213.576 121.434L213.82 121.511C215.046 121.971 216.393 121.978 217.623 121.532C218.853 121.085 219.887 120.214 220.542 119.073L220.709 118.775L222.47 115.506C222.604 115.259 222.712 114.998 222.791 114.728C222.958 114.215 223.057 113.683 223.087 113.145C223.615 112.729 224.052 112.208 224.372 111.615L227.225 106.102C227.895 104.876 228.079 103.439 227.74 102.081ZM102.414 124.832L101.913 124.923H101.656C100.292 124.726 98.963 124.333 97.7098 123.755C97.5863 123.524 97.4747 123.285 97.3756 123.042C96.8615 121.631 96.613 120.135 96.643 118.632C96.6663 116.72 97.2239 114.854 98.2516 113.247C99.2793 111.641 100.735 110.36 102.452 109.552C102.646 109.472 102.835 109.381 103.018 109.28C103.268 109.206 103.513 109.115 103.751 109.007C104.463 108.769 105.21 108.65 105.961 108.657H106.462H107.079C107.466 108.709 107.849 108.791 108.223 108.904C109.022 109.108 109.833 109.255 110.652 109.345H110.729C111.558 110.668 112.019 112.191 112.066 113.755C111.98 114.107 111.932 114.468 111.925 114.831C111.886 115.224 111.886 115.619 111.925 116.012C111.925 116.128 111.809 116.245 111.758 116.375C111.673 116.578 111.601 116.786 111.539 116.998C110.485 120.772 108.969 122.419 104.894 124.326L104.432 124.573C103.754 124.611 103.08 124.697 102.414 124.832Z" fill="#602F0F" />
	<path d="M172.641 101.329C172.554 101.324 172.468 101.301 172.39 101.261C172.311 101.221 172.242 101.166 172.186 101.097C172.131 101.029 172.09 100.95 172.066 100.864C172.043 100.779 172.037 100.69 172.05 100.602C172.065 100.479 172.114 100.362 172.191 100.265L174.916 93.8703L172.345 92.8196C172.256 92.7944 172.173 92.7513 172.1 92.693C172.028 92.6346 171.968 92.5622 171.923 92.48C171.879 92.3977 171.851 92.3074 171.842 92.2142C171.833 92.1211 171.842 92.027 171.87 91.9376L172.911 84.9982C172.924 84.8363 172.995 84.6847 173.111 84.5722C173.227 84.4598 173.38 84.3944 173.541 84.3886L173.451 83.8438C173.344 83.7756 173.262 83.674 173.218 83.5545C173.174 83.4351 173.17 83.3043 173.207 83.1823L174.171 76.6968C174.174 76.5886 174.202 76.4827 174.253 76.3871C174.303 76.2915 174.374 76.2087 174.461 76.1449C174.547 76.0812 174.647 76.0382 174.753 76.0192C174.859 76.0002 174.967 76.0057 175.07 76.0353L189.054 77.968C189.147 77.9695 189.238 77.9901 189.323 78.0287C189.408 78.0672 189.484 78.1228 189.546 78.192C189.609 78.2613 189.657 78.3427 189.687 78.4313C189.717 78.5199 189.729 78.6139 189.722 78.7073L189.902 79.2651C189.902 79.3688 190.146 79.3948 190.313 79.4207C191.175 79.5634 192.331 78.422 192.884 78.5257L194.529 78.7073C194.636 78.7105 194.741 78.7385 194.835 78.7894C194.93 78.8402 195.011 78.9124 195.074 79.0003C195.136 79.0883 195.177 79.1895 195.194 79.2962C195.211 79.4029 195.203 79.5121 195.172 79.6153L193.025 94.6875C193.003 94.8826 192.905 95.061 192.754 95.1847C192.603 95.3083 192.409 95.3672 192.216 95.349L188.63 95.1933C188.116 95.1155 187.923 94.1038 187.602 93.3385H187.434V94.6356C187.37 94.9858 187.165 95.2193 186.625 95.2193H185.339L179.954 108.955C177.788 111.761 176.368 115.078 175.829 118.593L175.726 119.28L167.204 140.994C167.162 141.162 167.056 141.307 166.91 141.399C166.764 141.49 166.589 141.522 166.42 141.486L155.933 137.491C155.806 137.434 155.693 137.348 155.604 137.24C155.515 137.132 155.452 137.005 155.419 136.869L153.067 118.359L149.532 126.051C149.288 126.453 148.992 126.674 148.645 126.622C148.298 126.57 148.118 126.09 147.874 125.96C147.93 126.914 148.072 127.86 148.298 128.788L144.622 136.713C144.533 136.876 144.392 137.004 144.221 137.074C144.051 137.145 143.861 137.155 143.684 137.102L134.546 134.703C134.135 134.534 133.839 134.223 133.891 133.873C133.993 133.263 135.394 132.251 135.626 130.785C135.739 129.698 135.598 128.598 135.214 127.576C134.831 126.553 134.214 125.635 133.415 124.897C133.309 124.851 133.223 124.768 133.174 124.663C133.124 124.558 133.114 124.438 133.145 124.326L132.502 109.812C132.536 109.455 132.655 109.112 132.849 108.813L133.286 107.723L134.302 106.906L133.299 106.569C133.081 106.553 132.875 106.458 132.721 106.3C132.567 106.143 132.476 105.934 132.464 105.713L132.053 89.8104L128.107 87.8129C127.284 87.5016 127.965 85.4781 127.94 84.4923L126.654 86.3342C126.584 86.4676 126.47 86.5725 126.332 86.6315C126.194 86.6905 126.04 86.7 125.896 86.6585L122.876 85.1798C122.714 85.1106 122.584 84.9833 122.511 84.8228C122.437 84.6621 122.425 84.4797 122.477 84.3107L124.829 68.2398C124.83 68.1308 124.856 68.0235 124.905 67.9267C124.955 67.8299 125.027 67.7463 125.115 67.683C125.203 67.6196 125.304 67.5783 125.411 67.5623C125.518 67.5464 125.627 67.5563 125.729 67.5913L146.499 71.5603C147.026 71.6382 147.231 71.9495 147.142 72.5591L146.268 76.3207C146.217 76.5195 146.093 76.6912 145.921 76.8006L143.247 78.5776C143.594 78.6425 144.417 78.422 144.931 78.4998C145.445 78.5776 145.676 78.8111 145.574 79.4985L143.556 88.5782C143.552 88.6733 143.527 88.7664 143.482 88.8501C143.437 88.9339 143.373 89.0061 143.296 89.0612C143.219 89.1164 143.131 89.1529 143.038 89.1681C142.944 89.1833 142.849 89.1767 142.759 89.1489L139.353 87.8518L141.011 108.047C140.89 108.518 140.636 108.942 140.278 109.267H140.625C140.972 109.267 141.114 109.513 141.306 109.993L142.155 119.384L150.65 99.8758C150.78 99.7663 150.929 99.6837 151.09 99.6325C151.251 99.5813 151.42 99.5626 151.589 99.5775C152.004 99.7515 152.434 99.8861 152.874 99.9796C155.367 100.395 157.886 97.3854 158.233 97.3854C158.837 97.4892 159.866 98.6825 160.148 99.1235H160.071C160.84 100.224 161.329 101.498 161.498 102.833L161.601 107.568C161.592 107.647 161.567 107.724 161.527 107.793C161.488 107.863 161.434 107.923 161.369 107.97L161.151 108.203L161.357 108.06C160.921 108.603 160.453 109.119 159.956 109.604V109.695L160.881 109.396C160.984 109.332 161.061 109.396 161.241 109.396C161.41 109.419 161.565 109.505 161.674 109.637C161.784 109.769 161.84 109.938 161.832 110.11L162.565 122.419L171.292 102.34C171.75 101.958 172.245 101.624 172.77 101.342L172.641 101.329Z" fill="white" />
	<path d="M174.556 137.154C175.005 136.402 177.126 136.675 178.514 136.519L182.794 136.195L179.105 134.21C179.012 134.161 178.93 134.093 178.865 134.009C178.8 133.925 178.754 133.828 178.729 133.725C178.705 133.621 178.703 133.514 178.724 133.41C178.744 133.305 178.787 133.207 178.848 133.121C178.884 133.047 178.936 132.982 179.001 132.933C179.065 132.883 179.141 132.85 179.221 132.835L180.506 132.472C182.586 131.912 184.8 132.181 186.688 133.224L187.138 133.497C189.876 135.196 192.472 139.489 191.29 141.435C190.737 142.33 189.066 143.251 188.462 143.899C188.796 144.016 189.837 143.821 190.197 144.055C190.285 144.109 190.361 144.181 190.422 144.265C190.482 144.349 190.526 144.445 190.55 144.546C190.573 144.647 190.577 144.752 190.561 144.855C190.545 144.958 190.508 145.056 190.454 145.145L189.773 146.26C187.267 150.372 181.972 150.696 177.974 148.53C176.59 147.527 175.488 146.178 174.776 144.616C174.064 143.054 173.767 141.332 173.913 139.619C174.045 138.778 174.261 137.952 174.556 137.154ZM218.1 98.0083C218.183 98.0506 218.256 98.1105 218.314 98.1841C218.372 98.2576 218.414 98.343 218.436 98.4343C218.458 98.5256 218.46 98.6206 218.442 98.7128C218.424 98.8049 218.386 98.8921 218.332 98.9682L215.427 104.585C214.444 105.371 213.529 106.238 212.689 107.179C212.985 107.36 213.152 107.27 213.37 107.399C213.589 107.529 213.666 108.1 213.563 108.437L211.867 111.719C211.787 111.901 211.642 112.046 211.461 112.126C211.28 112.205 211.076 112.212 210.89 112.147L207.137 110.953L191.264 133.159C190.917 133.562 190.557 133.639 190.261 133.458C190.126 133.395 190.013 133.291 189.94 133.159L186.843 128.671C186.624 128.529 186.663 128.14 186.843 127.919L190.339 119.514C190.93 118.541 193.873 118.399 194.554 117.283C195.647 115.493 192.678 113.651 193.269 112.756L196.251 105.843L194.837 103.313C194.749 103.193 194.702 103.048 194.702 102.898C194.702 102.749 194.749 102.604 194.837 102.483L199.001 94.9731C199.143 94.7396 199.271 94.5191 199.541 94.584L201.006 94.3635C200.274 93.8965 199.798 93.4944 200.209 92.8329L202.626 88.2023C202.896 87.7483 203.255 87.6705 203.782 87.9818L218.1 98.0083Z" fill="white" />
	<path d="M79.3559 126.155C78.5578 123.011 78.0247 119.804 77.7622 116.569C78.6244 115.216 79.1816 113.689 79.3945 112.094C79.4716 110.512 77.9164 110.162 77.9807 109.111C78.5462 104.922 81.8365 94.1038 83.713 94.2076C84.3803 94.4686 85.0326 94.7674 85.6666 95.1026C85.191 94.3762 84.2014 93.2607 84.2271 92.8327C84.2355 92.731 84.265 92.6323 84.3137 92.5429C84.3624 92.4535 84.4292 92.3754 84.5098 92.3139L86.0907 90.2904C86.759 89.3565 88.7898 87.0866 89.8308 87.1385C90.8196 87.3692 91.7939 87.6593 92.7484 88.0075L92.8383 87.8259C92.5386 87.6167 92.2848 87.3475 92.0924 87.0351C91.9001 86.7228 91.7733 86.3738 91.7201 86.01C91.823 84.0773 101.167 81.8463 103.802 81.3794C107.095 81.8324 110.248 83.0199 113.03 84.8556C114.315 85.7117 118.004 88.0205 117.939 89.3306C117.823 89.796 117.623 90.2358 117.348 90.6276C117.805 90.2419 118.363 89.9985 118.955 89.9272C119.106 89.9679 119.249 90.0337 119.379 90.1218L120.857 91.8728C123.658 95.1254 125.532 99.0837 126.281 103.326L126.178 103.495C126.216 103.701 126.216 103.912 126.178 104.117C126.178 104.636 125.895 104.532 125.792 104.792H126.075C127.36 104.792 127.36 111.978 127.245 114.17L127.155 115.843C127.001 118.904 125.445 127.18 124.224 127.115L123.081 127.309C123.312 127.854 123.967 128.775 123.942 129.203V129.475C121.949 134.197 117.194 142.122 115.536 142.044C115.022 142.044 114.701 141.292 114.366 141.097V141.979C114.366 142.407 114.366 142.861 114.366 143.276C114.355 143.379 114.323 143.478 114.272 143.567C114.221 143.656 114.153 143.734 114.071 143.795C112.54 145.232 110.735 146.34 108.766 147.052C106.798 147.763 104.706 148.063 102.619 147.933L100.37 147.868C98.2878 147.764 92.5299 146.234 92.6584 144.911V144.47C92.6989 143.94 92.7849 143.415 92.9154 142.9C91.8744 142.9 90.7176 143.406 89.9336 143.367C89.7483 143.341 89.572 143.269 89.4195 143.16C84.6384 139.567 81.618 133.963 79.4973 126.194L79.3559 126.155ZM88.0571 119.669C88.3528 120.733 89.638 122.744 89.6123 123.262C89.6123 123.353 89.5223 123.431 89.5095 123.613L89.0211 124.637L89.1882 124.741C89.4581 124.495 89.7408 124.067 90.1778 124.093C90.2786 124.101 90.3764 124.131 90.465 124.18C90.5536 124.229 90.6309 124.297 90.6919 124.378L91.0133 124.754C93.6999 127.625 97.3145 129.433 101.205 129.852H101.732C102.773 129.916 103.93 129.45 105.138 129.514C105.396 129.581 105.631 129.715 105.819 129.904L106.565 130.643L106.668 130.474C106.513 130.02 106.244 130.098 106.269 129.657C106.29 129.504 106.353 129.36 106.45 129.24C106.548 129.121 106.677 129.032 106.822 128.983L107.092 128.827H107.015C112.156 126.466 114.726 123.794 116.256 118.45C116.551 117.763 118.492 117.348 119.752 116.531C118.736 116.128 116.718 116.375 116.77 115.233C116.77 114.883 116.886 114.715 116.911 114.364C117.181 109.098 112.966 102.898 108.48 100.55L107.966 100.265C107.833 100.223 107.72 100.135 107.647 100.016C107.574 99.8965 107.546 99.7548 107.567 99.6165C107.567 99.3571 107.67 99.2792 107.696 98.8382L107.13 99.5127C107.08 99.6125 107.002 99.6958 106.907 99.7532C106.811 99.8105 106.702 99.8396 106.591 99.837C105.305 99.837 104.02 99.1755 102.632 99.0976H102.015C100.443 98.9879 98.8646 99.1997 97.3753 99.7202C97.2387 99.8052 97.085 99.8584 96.9254 99.8759C96.8022 99.8659 96.6858 99.8144 96.5949 99.7298C96.504 99.6451 96.4439 99.5321 96.4242 99.4089L96.18 99.0457C96.18 99.4868 96.2443 99.5776 96.18 99.7592C96.1157 99.9407 96.0643 100.278 95.8073 100.356C93.2573 101.524 91.0862 103.395 89.5445 105.754C88.0027 108.114 87.1529 110.864 87.0932 113.69C87.0542 115.725 87.3808 117.751 88.0571 119.669Z" fill="white" />
	<path d="M65.4116 98.2026C65.3262 98.2235 65.2374 98.2264 65.1509 98.2113C65.0643 98.1961 64.9817 98.1632 64.9082 98.1146C64.8348 98.066 64.7719 98.0026 64.7237 97.9285C64.6754 97.8545 64.6427 97.7712 64.6276 97.6838C64.6069 97.568 64.6069 97.4494 64.6276 97.3336L65.3216 90.4071L62.5712 90.1737C62.479 90.1771 62.387 90.162 62.3006 90.1292C62.2143 90.0963 62.1353 90.0464 62.0683 89.9824C62.0013 89.9184 61.9476 89.8416 61.9103 89.7564C61.8731 89.6712 61.8531 89.5793 61.8514 89.4862L60.7846 82.5338C60.756 82.3764 60.7827 82.2138 60.8601 82.0741C60.9375 81.9344 61.0609 81.8263 61.2088 81.7685L60.9646 81.2756C60.8421 81.2423 60.7335 81.1701 60.6548 81.0696C60.5761 80.9692 60.5315 80.8459 60.5276 80.7179L59.5251 74.2324C59.4952 74.128 59.4897 74.0179 59.5093 73.911C59.5288 73.804 59.5727 73.7032 59.6376 73.6163C59.7024 73.5295 59.7864 73.4591 59.8829 73.4107C59.9794 73.3623 60.0857 73.3372 60.1934 73.3374L74.0999 70.9897C74.1886 70.9642 74.2813 70.9567 74.3728 70.9677C74.4643 70.9788 74.5527 71.0081 74.6329 71.054C74.7131 71.0998 74.7834 71.1614 74.8397 71.235C74.896 71.3086 74.9373 71.3927 74.9611 71.4826L75.2952 71.9755C75.438 72.0173 75.5895 72.0173 75.7322 71.9755C76.5934 71.8458 77.3517 70.406 77.9557 70.3152L79.6266 70.0428C79.7299 70.0153 79.8381 70.0119 79.943 70.0327C80.0479 70.0535 80.1467 70.098 80.2321 70.163C80.3175 70.2279 80.3871 70.3115 80.4359 70.4075C80.4846 70.5035 80.5111 70.6095 80.5134 70.7173L82.8911 85.6728C82.9195 85.8659 82.8762 86.0628 82.7694 86.2256C82.6627 86.3884 82.5 86.5057 82.3128 86.5548L78.8426 87.4887C78.3156 87.5665 77.8401 86.6585 77.3131 86.023H77.146L77.583 87.3201C77.583 87.6573 77.493 87.9556 76.9918 88.1113L75.7065 88.4745L74.6655 103.261C73.4501 106.574 73.0832 110.144 73.5987 113.638L73.6887 114.325L71.9664 137.673C71.9772 137.848 71.9202 138.02 71.8075 138.153C71.6947 138.286 71.5351 138.37 71.3623 138.386L60.1934 137.673C60.0562 137.661 59.9239 137.616 59.8076 137.541C59.6913 137.467 59.5945 137.365 59.5251 137.245L51.8135 120.383L50.7211 128.788C50.6054 129.242 50.3869 129.54 50.0399 129.592C49.6928 129.644 49.3715 129.242 49.1016 129.19C49.4523 130.092 49.8825 130.96 50.3869 131.784L49.2302 140.475C49.2302 140.825 48.8831 141.058 48.4461 141.11L39.0252 141.577C38.5753 141.577 38.2026 141.344 38.1512 140.994C38.0612 140.384 39.1023 138.996 38.8838 137.517C38.6751 136.444 38.2167 135.437 37.5463 134.577C36.8759 133.718 36.0128 133.032 35.028 132.576C34.9144 132.563 34.8095 132.508 34.7336 132.422C34.6577 132.335 34.616 132.224 34.6167 132.109L29.6813 118.411C29.5916 118.058 29.5916 117.688 29.6813 117.335L29.7842 116.167L30.5039 115.091H29.45C29.2388 115.146 29.0149 115.119 28.8223 115.016C28.6297 114.912 28.4822 114.74 28.4089 114.533L23.2679 99.4738L18.8594 98.7863C17.9726 98.7863 18.024 96.5942 17.7156 95.6603L17.0601 97.8005C17.0308 97.9483 16.9525 98.0816 16.8379 98.1783C16.7234 98.275 16.5796 98.3294 16.4303 98.3323L13.1015 97.8395C12.7545 97.8395 12.536 97.5671 12.4846 97.126L9.91403 81.0811C9.8841 80.9766 9.87868 80.8665 9.8982 80.7596C9.91772 80.6527 9.96164 80.5518 10.0265 80.4649C10.0913 80.3781 10.1753 80.3077 10.2718 80.2593C10.3683 80.2109 10.4746 80.1858 10.5824 80.1861L31.5835 77.7086C32.0976 77.6308 32.3932 77.8513 32.4832 78.4609L32.766 82.3522C32.7735 82.4536 32.7603 82.5554 32.7272 82.6514C32.694 82.7473 32.6416 82.8354 32.5732 82.91L30.5553 85.4133C30.9023 85.4133 31.6349 84.9075 32.149 84.8296C32.6631 84.7518 32.9459 84.8296 33.0487 85.5949L33.8199 94.8821C33.843 94.9743 33.8453 95.0705 33.8267 95.1637C33.8081 95.257 33.7689 95.3448 33.7122 95.4207C33.6554 95.4966 33.5826 95.5588 33.4989 95.6025C33.4152 95.6462 33.3228 95.6704 33.2287 95.6733L29.6813 95.4398L37.2644 114.209C37.2798 114.693 37.1643 115.173 36.9302 115.597H37.2772C37.6243 115.597 37.817 115.687 38.1384 116.089L41.7371 124.793L44.012 103.547C44.3847 103.041 44.7189 102.989 44.8089 102.989C45.2753 103.022 45.7434 103.022 46.2098 102.989C48.7803 102.626 50.2198 98.9549 50.554 98.9031C51.416 99.0541 52.2255 99.4247 52.906 99.9797H52.816C53.8777 100.799 54.7248 101.868 55.2837 103.093L56.7875 107.568C56.8032 107.648 56.8022 107.732 56.7845 107.812C56.7668 107.892 56.7328 107.968 56.6847 108.035L56.5433 108.32L56.6718 108.048C56.4205 108.701 56.1286 109.338 55.7978 109.954V110.032L56.5947 109.487C56.659 109.384 56.7489 109.371 56.9289 109.345C57.0971 109.313 57.2709 109.348 57.4144 109.442C57.5578 109.537 57.6601 109.683 57.7 109.851L62.0442 121.382L64.4219 99.5775C64.7478 99.0744 65.1224 98.6051 65.5401 98.1767L65.4116 98.2026Z" fill="white" />
	<path d="M111.334 50.2104C110.923 37.2395 111.231 19.8715 111.424 18.0686C113.544 -1.29698 136.358 2.12734 131.217 22.0506C130.369 25.3842 121.912 41.066 116.179 51.8837C111.938 59.8997 111.668 61.0282 111.334 50.2104ZM85.7057 166.949C86.8239 159.594 85.5387 160.826 81.85 164.938C80.8218 166.079 66.6582 181.372 62.6482 188.571C54.9366 202.541 72.3519 210.972 78.9196 195.536C82.0942 188.078 85.513 168.323 85.7057 166.974V166.949ZM154.12 160.71C152.424 159.594 150.804 158.349 152.642 162.007C154.339 165.379 160.559 178.934 162.461 181.995C169.967 194.045 182.949 184.304 171.458 174.212C167.628 170.931 155.637 161.708 154.12 160.735V160.71Z" fill="#EA5D49" />
	<path d="M136.885 176.028C136.358 175.068 134.314 175.263 133.543 175.276C130.767 175.276 127.978 175.548 125.215 175.73C123.557 173.447 121.912 171.151 120.176 168.933C119.611 168.194 118.48 166.676 117.349 166.896C116.424 167.078 116.064 168.349 115.755 169.101C114.78 172.031 113.974 175.015 113.339 178.038C110.768 178.907 108.108 179.777 105.525 180.71C104.522 181.074 102.954 181.618 102.607 182.825C102.388 183.668 103.455 184.459 103.982 184.913C106.489 186.814 109.116 188.548 111.848 190.101C111.848 192.851 111.848 195.627 111.964 198.377C111.964 199.466 111.964 201.23 113.056 201.892C113.802 202.359 115.01 201.516 115.562 201.127C118.133 199.35 120.421 197.235 122.798 195.277C125.575 196.172 128.351 197.119 131.165 197.871C132.129 198.117 133.453 198.481 134.302 197.767C135.15 197.054 134.43 195.393 134.212 194.667C133.35 191.839 132.129 189.103 131.063 186.366C132.798 183.927 134.597 181.515 136.204 178.985C136.705 178.194 137.425 176.988 136.885 176.028Z" fill="#08D187" />
	<path d="M136.178 178.998C136.706 178.317 137.015 177.489 137.065 176.625C135.921 179.66 133.453 182.072 131.101 184.615C129.739 186.08 129.816 186.106 130.433 187.728C131.487 190.322 133.157 194.473 133.363 195.173C133.916 196.976 133.363 197.287 131.345 196.872C130.664 196.73 129.816 196.496 128.775 196.211C127.344 195.801 125.936 195.312 124.559 194.745C122.374 193.876 121.706 194.875 120.523 195.822L115.601 199.713C114.316 200.764 113.03 201.749 112.927 198.974C112.773 196.47 112.76 193.344 112.786 192.073C112.786 189.829 113.172 189.764 110.935 188.182C110.717 188.039 108.043 186.353 105.897 184.926C103.481 183.305 103.468 182.578 106.373 181.528C107.028 181.294 111.012 180.153 113.12 179.284C114.573 178.687 114.405 178.687 114.701 176.884C115.177 174.381 115.639 169.984 115.729 168.985C114.754 171.915 113.948 174.898 113.313 177.922C110.742 178.791 108.082 179.66 105.499 180.594C104.496 180.957 102.928 181.502 102.581 182.708C102.363 183.551 103.429 184.342 103.956 184.796C106.463 186.698 109.09 188.431 111.822 189.985C111.822 192.735 111.822 195.51 111.938 198.26C111.938 199.35 111.938 201.114 113.03 201.775C113.776 202.242 114.984 201.399 115.537 201.01C118.107 199.233 120.395 197.119 122.773 195.16C125.549 196.055 128.325 197.002 131.14 197.754C132.104 198.001 133.427 198.364 134.276 197.651C135.124 196.937 134.404 195.277 134.186 194.55C133.325 191.723 132.104 188.986 131.037 186.249C132.798 183.966 134.597 181.593 136.178 178.998Z" fill="#04998B" />
	<path d="M85.6798 33.2704C85.0243 32.7775 83.7005 33.5298 83.1093 33.7763C81.1943 34.6453 79.3435 35.683 77.4927 36.6558C75.6548 35.5922 73.8169 34.5156 71.9532 33.5039C71.3363 33.1796 70.1025 32.4662 69.3827 32.9721C68.663 33.4779 68.92 34.3859 68.9457 34.9826C69.1577 37.31 69.5053 39.6228 69.9868 41.909C68.4445 43.3099 66.8893 44.7107 65.3984 46.1635C64.8072 46.7212 63.8561 47.6032 64.0103 48.5242C64.1131 49.1727 65.0899 49.3932 65.5912 49.5359C67.9016 50.0899 70.246 50.4886 72.6087 50.7292C73.4441 52.623 74.2539 54.6205 75.1792 56.4105C75.552 57.1498 76.0404 58.3821 76.9915 58.5118C77.6469 58.6026 78.2767 57.6557 78.4952 57.2147C79.7034 55.2172 80.6802 53.051 81.7212 50.9497C83.919 50.7163 86.1168 50.5087 88.2889 50.1585C89.0343 50.0418 90.0626 49.8861 90.4224 49.1338C90.7823 48.3815 89.8055 47.4476 89.4199 47.0196C87.9804 45.3333 86.3096 43.8157 84.7416 42.2463C85.2171 40.0282 85.7184 37.8102 86.0268 35.5662C86.2325 34.8269 86.3482 33.7244 85.6798 33.2704Z" fill="#08D187" />
	<path d="M86.1042 35.5532C86.2595 34.9206 86.2191 34.2552 85.9885 33.6465C85.895 36.185 85.319 38.6818 84.292 41.001C83.7907 42.4407 83.8164 42.4407 84.7675 43.3617C86.2841 44.8274 88.6233 47.2529 89.0475 47.6032C89.9728 48.6797 89.6644 49.0818 88.1606 49.3931C87.6465 49.5099 86.991 49.6137 86.207 49.7304C85.0943 49.8823 83.9747 49.9776 82.8525 50.0157C81.0788 50.0157 80.9118 50.9756 80.3848 52.0003C79.8578 53.025 78.8039 55.0485 78.1742 56.2418C77.5444 57.4351 77.056 58.4209 76.1049 56.5531C75.1538 54.6853 74.2927 52.6618 73.9199 51.8187C73.2773 50.2622 73.4958 50.1065 71.4779 49.7304C71.2852 49.7304 68.9074 49.3413 67.0052 49.017C64.846 48.6408 64.6147 48.1479 66.3112 46.5266C66.6968 46.1634 69.1002 44.1529 70.2955 42.9077C71.1181 42.0387 70.9638 42.1035 70.6554 40.7675C70.2312 38.8867 69.2287 35.6959 68.9845 34.9825C69.1965 37.3099 69.5441 39.6228 70.0256 41.9089C68.4833 43.3098 66.9281 44.7107 65.4372 46.1634C64.846 46.7211 63.8949 47.6032 64.0491 48.5241C64.152 49.1726 65.1288 49.3931 65.63 49.5358C67.9405 50.0898 70.2848 50.4885 72.6475 50.7291C73.483 52.6229 74.2927 54.6204 75.2181 56.4104C75.5908 57.1497 76.0792 58.382 77.0303 58.5117C77.6858 58.6025 78.3155 57.6556 78.534 57.2146C79.7422 55.2171 80.719 53.0509 81.76 50.9496C83.9578 50.7162 86.1556 50.5086 88.3277 50.1584C89.0732 50.0417 90.1014 49.886 90.4612 49.1337C90.8211 48.3814 89.8443 47.4475 89.4587 47.0195C88.0193 45.3333 86.3484 43.8157 84.7804 42.2462C85.2688 40.0152 85.77 37.7972 86.1042 35.5532Z" fill="#04998B" />
	<path d="M143.993 31.3764C144.661 30.5462 146.563 31.0651 147.347 31.2207C150.02 31.6877 152.668 32.4011 155.316 33.0367C157.282 31.104 159.262 29.1454 161.292 27.3035C161.961 26.6939 163.297 25.4098 164.351 25.8119C165.405 26.214 165.392 27.4462 165.534 28.2115C166 31.2182 166.292 34.2499 166.408 37.2911C168.785 38.5882 171.163 39.8853 173.515 41.1824C174.428 41.7012 175.893 42.4795 175.996 43.7117C175.996 44.5548 174.903 45.1515 174.325 45.5017C171.605 46.9116 168.797 48.1421 165.919 49.1854C165.456 51.7796 165.058 54.5294 164.454 57.1495C164.223 58.2002 163.978 59.9123 162.835 60.3663C162.025 60.6906 161.009 59.6789 160.534 59.2119C158.388 57.0717 156.473 54.6591 154.493 52.3503C151.666 52.7654 148.838 53.2194 145.998 53.4658C145.021 53.5566 143.671 53.6733 142.99 52.8432C142.309 52.0131 143.247 50.5344 143.581 49.8599C144.867 47.2657 146.486 44.8402 147.977 42.3757C146.692 39.7815 145.406 37.1095 144.237 34.3986C143.813 33.5166 143.311 32.2325 143.993 31.3764Z" fill="#08D187" />
	<path d="M144.185 34.3988C143.792 33.6513 143.631 32.8015 143.723 31.9603C144.327 35.0733 146.293 37.8231 148.17 40.6637C149.249 42.311 149.224 42.324 148.311 43.7897C146.859 46.1245 144.584 49.8471 144.263 50.4827C143.427 52.143 143.954 52.5321 145.933 52.4672C146.615 52.4672 147.476 52.3635 148.504 52.2597C149.95 52.0903 151.387 51.8479 152.81 51.5333C155.059 51.0534 155.547 52.143 156.537 53.2455C157.526 54.348 159.48 56.579 160.65 57.8761C161.819 59.1732 162.732 60.2627 163.349 57.6037C163.901 55.2171 164.428 52.1949 164.634 50.9626C164.942 48.7965 164.634 48.6668 167.05 47.5513C167.282 47.4345 170.148 46.2542 172.448 45.2295C175.019 44.0751 175.186 43.3746 172.551 41.883C171.947 41.5328 168.284 39.7687 166.408 38.5884C165.122 37.7582 165.302 37.7972 165.264 35.9942C165.264 33.4908 165.482 29.1715 165.559 28.2117C166.026 31.2184 166.318 34.2501 166.433 37.2913C168.811 38.5884 171.189 39.8855 173.541 41.1826C174.453 41.7014 175.918 42.4797 176.021 43.7119C176.021 44.555 174.929 45.1517 174.35 45.5019C171.622 46.9128 168.806 48.1433 165.919 49.1856C165.456 51.7798 165.058 54.5296 164.454 57.1497C164.223 58.2004 163.978 59.9125 162.835 60.3665C162.025 60.6908 161.009 59.6791 160.534 59.2121C158.388 57.0719 156.472 54.6593 154.493 52.3505C151.666 52.7656 148.838 53.2196 145.998 53.466C145.021 53.5568 143.671 53.6735 142.99 52.8434C142.309 52.0133 143.247 50.5346 143.581 49.8601C144.867 47.2659 146.486 44.8404 147.977 42.3759C146.64 39.7428 145.355 37.1097 144.185 34.3988Z" fill="#04998B" />
	<path d="M82.4925 183.214C80.8267 187.349 78.5042 191.182 75.6164 194.563C65.3343 206.172 58.0597 195.16 68.5603 180.295C66.3803 182.917 64.3996 185.7 62.6352 188.623C54.9237 202.592 72.339 211.023 78.9066 195.588C80.4214 191.565 81.6204 187.427 82.4925 183.214Z" fill="#C63628" />
	<path d="M172.654 183.045C169.145 185.575 164.736 180.023 162.873 177.792C159.518 173.784 156.974 169.179 154.03 164.886C156.601 170.074 160.919 179.53 162.462 182.008C169.222 192.864 180.455 186.016 174.119 177.182C174.504 179.517 174.35 181.826 172.654 183.045Z" fill="#C63628" />
	<path d="M113.018 57.5389C114.18 55.7201 115.232 53.8315 116.167 51.8836C121.899 41.0659 130.305 25.3841 131.204 22.0506C135.703 4.53987 118.737 -0.272335 113.069 11.8814C120.074 4.20262 129.623 9.80605 126.667 22.0506C125.125 28.3415 121.154 38.6922 113.018 57.5389Z" fill="#C63628" />
	<path d="M249.461 136.441C248.4 136.439 247.354 136.19 246.404 135.713C245.455 135.236 244.627 134.544 243.986 133.691C243.364 132.869 242.943 131.912 242.756 130.896C242.568 129.88 242.62 128.833 242.906 127.841C248.998 106.141 247.739 81.9501 239.616 64.7117C233.482 51.9655 225.053 40.4814 214.759 30.8447C214.509 31.4012 214.184 31.9205 213.795 32.3883C213.241 33.0454 212.561 33.5821 211.796 33.9659C211.03 34.3498 210.196 34.5727 209.342 34.6212C208.489 34.6697 207.635 34.5428 206.832 34.2482C206.028 33.9535 205.293 33.4973 204.669 32.9071C200.415 29.0158 197.498 24.2036 194.67 19.6119C193.77 18.1462 192.871 16.6676 191.933 15.2408C190.996 13.7823 190.471 12.0938 190.415 10.3569C190.358 8.61995 190.772 6.90031 191.611 5.38288C192.404 3.82634 193.599 2.51508 195.069 1.588C196.54 0.660918 198.232 0.152535 199.965 0.116699H200.467C213.319 0.830098 224.27 4.08579 233.048 9.80596C234.248 10.5665 235.183 11.6872 235.72 13.0109C236.257 14.3345 236.37 15.7947 236.043 17.1864C235.762 18.363 235.187 19.4472 234.372 20.3352C233.558 21.2232 232.531 21.8852 231.39 22.258C243.792 32.0507 253.566 44.8222 259.82 59.4066C265.205 71.9365 267.814 85.5819 266.966 96.8277C265.848 111.524 260.771 122.277 255.206 132.9C254.655 133.971 253.823 134.868 252.801 135.492C251.778 136.117 250.605 136.445 249.409 136.441H249.461Z" fill="white" />
	<path d="M255.116 61.4689C246.491 41.377 231.981 26.9144 213.872 16.6934C218.984 17.6194 224.195 17.8723 229.372 17.4457C229.746 17.4311 230.105 17.2965 230.399 17.0616C230.692 16.8267 230.903 16.5036 231.002 16.1393C231.101 15.7749 231.082 15.3883 230.948 15.0354C230.815 14.6826 230.573 14.3819 230.259 14.177C221.262 8.31418 210.787 5.88862 200.183 5.30493C199.368 5.31511 198.569 5.53961 197.866 5.9563C197.163 6.37299 196.58 6.96748 196.173 7.68112C195.767 8.39476 195.553 9.20291 195.55 10.0259C195.548 10.8488 195.758 11.6582 196.161 12.3741C199.914 18.0683 203.062 24.424 208.101 29.0935C208.303 29.2504 208.547 29.343 208.801 29.3596C209.056 29.3762 209.309 29.3159 209.53 29.1866C209.75 29.0573 209.928 28.8646 210.039 28.6333C210.151 28.4019 210.192 28.1422 210.157 27.8873C209.669 24.7613 209.116 21.6353 208.358 18.5742C223.523 30.1978 235.793 45.2317 244.191 62.4806C253.599 82.4169 253.689 108.255 247.79 129.255C247.695 129.625 247.735 130.017 247.902 130.36C248.07 130.703 248.354 130.974 248.703 131.123C249.052 131.272 249.442 131.29 249.803 131.174C250.164 131.057 250.471 130.813 250.669 130.487C256.632 119.099 260.848 109.539 261.837 96.4384C262.711 84.8684 259.64 71.9883 255.116 61.4689Z" fill="#00DB7E" />
	<path d="M254.049 69.1087C250.209 55.1837 242.572 42.6268 232.007 32.868C226.141 27.6597 219.889 22.9115 213.306 18.6649C211.828 17.6661 210.273 16.5766 208.666 15.4611C204.811 12.8669 204.811 13.5025 205.492 17.3678C206.649 23.542 204.759 21.4536 202.266 18.3925C199.872 15.2853 197.724 11.9936 195.84 8.54761C195.601 9.17036 195.51 9.841 195.575 10.5056C195.639 11.1702 195.858 11.8101 196.212 12.374C199.965 18.0682 203.114 24.424 208.152 29.0935C208.355 29.2504 208.598 29.343 208.853 29.3595C209.107 29.3761 209.361 29.3159 209.582 29.1866C209.802 29.0572 209.979 28.8646 210.091 28.6332C210.203 28.4018 210.244 28.1422 210.209 27.8872C209.72 24.7612 209.168 21.6352 208.409 18.5741C223.556 30.2037 235.808 45.2371 244.191 62.4806C253.599 82.4168 253.689 108.255 247.79 129.255C247.703 129.554 247.713 129.873 247.816 130.167C247.92 130.46 248.113 130.713 248.368 130.889C258.136 112.328 260.128 90.9776 254.049 69.1087Z" fill="#07AB6E" />
</svg>
