<svg width="247" height="207" viewBox="0 0 247 207" fill="none" xmlns="http://www.w3.org/2000/svg">
	<path d="M155.437 197.912C138.487 205.761 119.65 208.611 101.137 206.129C82.624 203.647 65.2032 195.935 50.9197 183.898L3.74486 156.876C2.54949 156.186 1.64494 155.086 1.19896 153.78C0.752994 152.474 0.795873 151.05 1.31965 149.773L16.3681 113.436C16.3681 112.066 16.2869 110.736 16.2869 109.468C16.2364 95.4865 19.1943 81.6578 24.9599 68.9203C30.7255 56.1829 39.1637 44.8348 49.702 35.6463C49.9346 34.8815 50.326 34.1743 50.8506 33.5711C51.3751 32.9678 52.0211 32.482 52.7462 32.1455C53.2819 31.895 53.8538 31.7306 54.4408 31.6584H54.593C58.8645 28.3619 63.4024 25.426 68.16 22.881V17.9494C68.1679 16.636 68.6297 15.3657 69.4672 14.3539C70.3046 13.3421 71.4662 12.651 72.755 12.3978C74.0438 12.1446 75.3805 12.3448 76.5385 12.9645C77.6966 13.5843 78.6047 14.5854 79.1089 15.7982L79.8497 17.5841C88.8635 14.1927 98.3346 12.1713 107.948 11.587C108.551 9.06052 109.791 6.73052 111.55 4.81878C112.857 3.42626 114.422 2.29955 116.157 1.50061C118.571 0.361722 121.235 -0.142783 123.899 0.034772C126.562 0.212327 129.136 1.06608 131.378 2.51534C132.109 3.00043 132.738 3.62528 133.228 4.35401C133.717 5.08273 134.058 5.90099 134.231 6.76181C134.403 7.62263 134.404 8.50905 134.233 9.37018C134.062 10.2313 133.723 11.0502 133.235 11.7798C132.905 12.2686 132.516 12.715 132.078 13.1091C152.913 16.9659 171.922 27.5108 186.224 43.1452C187.453 43.4069 188.562 44.0667 189.378 45.0225C190.195 45.9783 190.673 47.1767 190.739 48.4319C195.517 54.4505 199.57 61.0101 202.815 67.9756L202.967 68.3206L207.31 61.116C207.894 60.1238 208.764 59.3314 209.806 58.843C210.205 58.6576 210.624 58.518 211.054 58.427C211.822 58.2668 212.614 58.2679 213.381 58.4304C214.148 58.5929 214.873 58.9131 215.509 59.3707L243.739 79.5334C244.374 79.9869 244.909 80.5663 245.311 81.2357C245.712 81.9051 245.972 82.6501 246.073 83.4241C246.174 84.1982 246.114 84.9847 245.897 85.7347C245.681 86.4846 245.312 87.182 244.814 87.7832L209.583 130.564C206.28 145.171 199.685 158.831 190.301 170.502C180.918 182.174 168.993 191.548 155.437 197.912Z" fill="white" />
	<path d="M197.243 70.5226C202.87 82.6096 205.793 95.7783 205.808 109.111C205.824 122.443 202.931 135.619 197.331 147.718C191.732 159.818 183.561 170.551 173.389 179.169C163.216 187.787 151.286 194.083 138.43 197.617C125.574 201.151 112.103 201.839 98.9541 199.632C85.8055 197.426 73.2963 192.378 62.2987 184.841C51.301 177.304 42.0796 167.459 35.2772 155.992C28.4748 144.525 24.2552 131.713 22.9126 118.448C22.6053 115.465 22.4495 112.467 22.4458 109.468C22.3983 88.5789 29.4848 68.2998 42.5327 51.9869C55.5805 35.674 73.8074 24.3054 94.1965 19.7627C114.586 15.2199 135.915 17.7753 154.654 27.006C173.393 36.2367 188.418 51.5892 197.243 70.5226Z" fill="#2882E2" stroke="#2882E2" stroke-width="0.93" stroke-miterlimit="10" />
	<path d="M163.545 52.9475L164.327 35.9812L169.715 50.8166L185.108 48.6958L172.607 55.8699L180.826 68.8788L168.162 58.8431L161.313 71.5577L162.906 58.2038L144.793 54.5102L163.545 52.9475Z" fill="#7AD1ED" />
	<path d="M35.8502 109.924L24.9519 96.8953L38.9552 104.181L48.859 92.2073L44.5058 105.947L59.3513 109.975L43.2374 111.142L46.789 125.145L38.9349 114.227L23.0848 123.745L35.8502 109.924Z" fill="#7AD1ED" />
	<path d="M94.9998 164.274L73.3556 151.945L82.9448 173.751L72.5134 189.703L33.497 167.358L6.57617 151.934L17.2613 126.15L22.1117 114.46L50.443 138.966L45.278 125.237L41.625 115.506L50.7677 120.244L62.498 126.323L38.7533 93.2018L44.6895 89.6096L68.4342 75.2715L86.7298 110.889L90.3118 117.85L105.279 146.972L108.07 152.391L94.9998 164.274Z" fill="#7AD1ED" />
	<path d="M240.421 84.1606L219.406 109.681L203.038 129.549L185.301 151.092L169.207 143.786L171.967 119.027L159.801 132.096L159.791 132.107L155.732 136.46L136.959 133.203L139.963 106.789L141.911 89.6401L145.544 57.6964L155.996 57.5544L186.103 57.1282L176.128 88.666L174.809 92.8568L177.386 90.3708L192.851 75.4644L191.856 89.4676L191.866 89.4778L191.197 98.9249L212.202 63.9979L227.341 74.8149L240.421 84.1606Z" fill="#7AD1ED" />
	<path d="M136.857 71.3344C136.715 71.0401 136.563 70.756 136.421 70.4719C136.35 70.3501 136.299 70.2283 136.228 70.1269C134.015 66.0988 130.913 62.6284 127.157 59.9795C127.004 59.8781 126.862 59.7664 126.71 59.6751C122.242 56.6528 117.05 54.8722 111.667 54.5156C106.284 54.159 100.904 55.2392 96.0754 57.6457C95.6289 57.8588 95.1926 58.1023 94.7664 58.3357C91.3564 60.2347 88.3479 62.7781 85.9078 65.8244L85.512 66.3216C82.0756 70.7993 79.9471 76.1416 79.3628 81.7557C79.3628 81.9079 79.3628 82.0601 79.3628 82.2224C78.9565 86.7395 79.5738 91.2901 81.169 95.5357C81.169 95.6676 81.2603 95.7792 81.3212 95.9112C81.6459 96.7534 82.0214 97.6058 82.4273 98.4378C83.7779 101.148 85.5218 103.645 87.6024 105.845L87.8764 106.119C88.6078 106.875 89.3802 107.59 90.19 108.26C92.8085 110.435 95.7762 112.15 98.9674 113.334L99.4544 113.517C105.546 115.693 112.174 115.863 118.369 114.004C120.039 113.512 121.662 112.874 123.219 112.096C126.083 110.678 128.703 108.815 130.982 106.576C131.124 106.447 131.266 106.305 131.408 106.15C134.769 102.725 137.269 98.5516 138.704 93.973C138.704 93.8411 138.775 93.7092 138.816 93.5773C139.363 91.7473 139.726 89.8676 139.902 87.9658C140.105 85.9415 140.105 83.9018 139.902 81.8774C139.902 81.7455 139.902 81.6339 139.902 81.5121C139.788 80.4233 139.608 79.3424 139.364 78.2751C138.817 75.8672 137.976 73.5359 136.857 71.3344ZM101.129 87.3367C101.058 87.2251 100.977 87.1236 100.895 87.012C100.713 86.7076 100.53 86.4031 100.368 86.0784C99.4428 84.2193 99.179 82.1006 99.6199 80.0714C100.061 78.0423 101.18 76.224 102.793 74.9164C103.001 74.7428 103.217 74.5802 103.442 74.4293C103.765 74.2049 104.104 74.0048 104.457 73.8306C106.612 72.7582 109.102 72.5795 111.388 73.3334L112.139 73.6277C114.148 74.4974 115.777 76.0598 116.731 78.0304C117.684 80.0009 117.899 82.2484 117.334 84.3635C117.334 84.4853 117.263 84.6274 117.222 84.7593C116.709 86.3719 115.758 87.8102 114.475 88.9138C113.192 90.0174 111.628 90.7427 109.957 91.009C108.285 91.2752 106.573 91.0719 105.011 90.4217C103.448 89.7714 102.097 88.6999 101.108 87.3265L101.129 87.3367Z" fill="#7AD1ED" />
	<path d="M32.9896 145.633C32.533 152.239 28.9307 159.22 31.9749 165.116C32.3931 165.922 32.9076 166.676 33.5071 167.358L6.57617 151.934L17.2613 126.15C20.2505 126.347 23.119 127.404 25.5212 129.194C28.0133 131.117 29.9968 133.62 31.2987 136.485C32.6005 139.351 33.1811 142.491 32.9896 145.633Z" fill="#F09527" />
	<path d="M68.434 75.2715L86.6992 110.889C83.655 112.36 80.0223 112.441 77.384 110.442C74.7457 108.443 73.802 105.368 72.3103 102.608C70.8187 99.8483 68.4442 97.0172 65.2985 97.1186C63.543 97.1186 61.9601 98.1334 60.3771 98.9147C57.8199 100.283 54.8558 100.687 52.0258 100.051C48.383 99.0365 45.8157 95.5154 44.9836 91.8116C44.8314 91.1216 44.6995 90.3808 44.6082 89.6096L68.434 75.2715Z" fill="#F09527" />
	<path d="M93.5282 95.4849C93.8833 100 93.0614 104.841 90.1187 108.26C89.3089 107.59 88.5366 106.875 87.8051 106.119L87.5311 105.845C85.4506 103.645 83.7067 101.148 82.356 98.4378C81.9501 97.6057 81.5747 96.7533 81.2499 95.9111C81.1891 95.7792 81.1485 95.6676 81.0977 95.5357C79.4965 91.2775 78.879 86.7123 79.2915 82.1818C79.2915 82.0194 79.2915 81.8672 79.2915 81.715C79.5781 78.8737 80.2612 76.0866 81.321 73.4348C82.0719 74.0132 82.7923 74.6322 83.4925 75.2715C89.229 80.5314 92.8058 87.7356 93.5282 95.4849Z" fill="#F09527" />
	<path d="M105.278 146.972C101.057 145.197 97.2717 141.899 92.7257 141.046C87.3983 140.032 82.0203 142.355 77.2713 144.994C73.0399 147.348 67.8749 150.006 63.6536 147.612C60.4268 145.785 59.27 141.452 60.2035 137.86C61.1371 134.268 63.7247 131.346 66.5558 128.941C73.1617 123.309 81.8579 120.062 90.3106 117.85L105.278 146.972Z" fill="#F09527" />
	<path d="M46.7392 171.194C47.5215 172.174 48.4974 172.983 49.606 173.57C50.7146 174.156 51.9321 174.508 53.1827 174.603C54.7871 174.582 56.3541 174.116 57.71 173.258C59.0659 172.4 60.1577 171.184 60.8642 169.743C62.2354 166.811 62.4809 163.478 61.5542 160.377C60.0524 154.806 52.858 142.112 45.6432 148.383C39.839 153.446 42.4874 166.12 46.7392 171.194Z" fill="#F09527" />
	<path d="M50.7675 120.244C51.0073 121.156 51.1368 122.093 51.1531 123.035C51.1882 123.414 51.1461 123.797 51.0292 124.16C50.9124 124.523 50.7232 124.858 50.4732 125.146C50.056 125.48 49.5458 125.679 49.012 125.714C47.7472 125.84 46.4702 125.677 45.2778 125.237L41.6248 115.506L50.7675 120.244Z" fill="#F09527" />
	<path d="M139.302 78.2853C136.258 79.9292 132.27 78.8637 129.52 76.6922C126.771 74.5206 124.812 71.2228 122.701 68.2699C120.591 65.317 117.993 62.4352 114.513 61.4205C111.235 60.4666 107.754 61.319 104.365 61.6843C100.306 62.1105 96.6432 60.8624 94.7456 58.3357C95.1718 58.1023 95.6081 57.8588 96.0546 57.6457C100.883 55.2392 106.264 54.159 111.647 54.5156C117.029 54.8722 122.221 56.6528 126.689 59.6751C126.842 59.7665 126.984 59.8781 127.136 59.9795C130.892 62.6284 133.994 66.0988 136.208 70.1269C136.279 70.2283 136.329 70.3501 136.4 70.4719C136.542 70.756 136.695 71.0401 136.837 71.3344C137.942 73.541 138.77 75.8757 139.302 78.2853Z" fill="#F09527" />
	<path d="M138.643 93.9526C137.208 98.5312 134.708 102.704 131.348 106.129C131.205 106.285 131.063 106.427 130.921 106.556C128.642 108.794 126.022 110.658 123.159 112.076C121.601 112.854 119.978 113.492 118.308 113.983C117.881 113.721 117.476 113.423 117.101 113.09C114.056 110.432 112.95 105.987 113.58 102.02C115.102 92.4204 130.83 82.3441 139.841 87.8947C139.658 89.7903 139.287 91.6632 138.735 93.4859C138.714 93.6888 138.674 93.8207 138.643 93.9526Z" fill="#F09527" />
	<path d="M145.057 98.5698C144.868 100.229 144.315 101.826 143.438 103.246C142.561 104.667 141.381 105.877 139.983 106.789L141.931 89.6401C143.062 90.8171 143.927 92.2238 144.466 93.7646C145.006 95.3054 145.207 96.9443 145.057 98.5698Z" fill="#F09527" />
	<path d="M186.102 57.1282L176.128 88.666C173.976 84.5158 175.955 78.5187 172.515 75.4035C170.344 73.374 167.036 73.5871 164.204 72.7347C161.733 71.8824 159.589 70.2828 158.067 68.1575C156.545 66.0323 155.722 63.4864 155.711 60.8725C155.706 59.7467 155.801 58.6227 155.995 57.5138L186.102 57.1282Z" fill="#F09527" />
	<path d="M192.85 75.4644L191.835 89.4676L191.683 89.5996C189.441 91.6007 186.568 92.7532 183.565 92.8568C181.247 92.8754 179.015 91.9784 177.355 90.3606L192.85 75.4644Z" fill="#F09527" />
	<path d="M203.038 129.55L185.3 151.082L169.207 143.786L171.967 119.027L159.79 132.107C159.037 132.043 158.29 131.918 157.558 131.731C156.437 131.344 155.435 130.674 154.651 129.784C153.867 128.895 153.326 127.818 153.083 126.658C150.942 117.231 162.723 107.672 171.439 108.25C180.886 108.869 192.748 112.928 198.675 120.549C200.736 123.215 202.222 126.28 203.038 129.55Z" fill="#F09527" />
	<path d="M161.14 100.731C163.484 100.954 166.051 100.802 167.857 99.2903C168.59 98.5936 169.175 97.7567 169.578 96.8293C169.98 95.9019 170.192 94.903 170.201 93.892C170.546 87.3875 164.113 80.3656 157.7 84.6782C151.561 88.8082 153.448 100.011 161.14 100.731Z" fill="#F09527" />
	<path d="M240.42 84.2114L219.405 109.681C217.698 108.84 216.144 107.719 214.808 106.363C213.015 104.551 211.718 102.309 211.039 99.8519C210.36 97.3948 210.323 94.8046 210.932 92.3292C211.683 89.3967 213.702 86.5047 216.675 85.9567C218.461 85.632 220.369 86.18 222.074 85.5711C224.286 84.7796 225.392 82.3037 225.94 80.0104C226.236 78.2271 226.715 76.4793 227.371 74.7947L240.42 84.2114Z" fill="#F09527" />
	<path d="M73.8113 34.9563L73.8722 17.9697L79.8895 32.5717L95.1714 29.7913L82.9946 37.4931L91.7517 50.1367L78.6719 40.649L72.3704 53.6477L73.3953 40.2329L55.1403 37.3003L73.8113 34.9563Z" fill="#7AD1ED" />
	<path d="M122.702 142.386L111.489 129.133L125.857 136.5L135.903 124.202L131.53 138.276L146.73 142.305L130.261 143.593L133.975 157.881L125.878 146.77L109.733 156.592L122.702 142.386Z" fill="#7AD1ED" />
	<path d="M167.421 154.512L180.724 143.969L183.758 161.199L167.421 154.512Z" fill="#7AD1ED" />
	<path d="M126.06 52.501L121.808 36.0725L138.785 40.2735L126.06 52.501Z" fill="#7AD1ED" />
	<path d="M47.1652 76.9561L42.9033 60.5276L59.8899 64.7286L47.1652 76.9561Z" fill="#7AD1ED" />
	<path d="M95.3749 189.672L91.113 173.244L108.1 177.445L95.3749 189.672Z" fill="#7AD1ED" />
	<path d="M116.268 33.6166C112.757 32.9368 110.078 29.7505 109.317 26.2598C109.047 25.1808 108.997 24.0584 109.172 22.9599C109.346 21.8614 109.741 20.8094 110.331 19.867C111.257 18.6008 112.545 17.6453 114.025 17.1273C115.406 16.5843 116.908 16.4222 118.374 16.6578C119.839 16.8934 121.214 17.5181 122.356 18.4667C123.563 19.5728 124.294 21.6631 123.087 22.7692C122.641 23.1442 122.085 23.3649 121.504 23.3983C120.427 23.4508 119.355 23.2321 118.385 22.7623C117.415 22.2924 116.579 21.5865 115.953 20.7093C114.739 19.041 114.13 17.0084 114.228 14.9474C114.326 12.8864 115.124 10.9205 116.491 9.37471C117.941 7.9199 119.844 7.00179 121.885 6.77128C123.926 6.54077 125.985 7.01157 127.724 8.1063" stroke="#7AD1ED" stroke-width="1.94" stroke-linecap="round" stroke-linejoin="round" />
	<path d="M130.678 188.475C129.055 185.289 129.917 181.209 132.201 178.46C132.88 177.581 133.73 176.85 134.699 176.309C135.669 175.769 136.738 175.43 137.842 175.314C139.409 175.258 140.955 175.679 142.277 176.521C143.553 177.279 144.602 178.365 145.316 179.666C146.03 180.967 146.382 182.436 146.336 183.919C146.214 185.552 145.017 187.409 143.403 187.146C142.835 187.017 142.321 186.716 141.932 186.283C141.228 185.468 140.74 184.488 140.513 183.435C140.286 182.382 140.327 181.289 140.633 180.256C141.14 178.232 142.351 176.455 144.05 175.244C145.75 174.034 147.825 173.469 149.903 173.651C151.982 173.833 153.927 174.75 155.39 176.238C156.852 177.726 157.737 179.686 157.883 181.768" stroke="#7AD1ED" stroke-width="1.94" stroke-linecap="round" stroke-linejoin="round" />
</svg>
