<svg width="285" height="285" viewBox="0 0 285 285" fill="none" xmlns="http://www.w3.org/2000/svg">
	<path d="M142.47 284.845C119.179 284.836 96.245 279.119 75.6751 268.194C55.1053 257.27 37.526 241.47 24.4756 222.179C11.4252 202.888 3.30128 180.692 0.814669 157.535C-1.67194 134.377 1.55454 110.963 10.2118 89.3404C6.69331 84.6491 5.83514 79.5144 7.93766 75.0376C8.79169 73.2955 10.0453 71.7798 11.5963 70.6141C13.1472 69.4483 14.9517 68.6656 16.8626 68.3296C18.0454 68.1 19.2477 67.9851 20.4526 67.9863H20.9818C24.8506 61.6977 29.1972 55.7158 33.9831 50.0935C33.4395 44.3724 34.1547 35.4618 43.4801 30.0696C48.8151 26.9516 56.8532 22.8324 65.249 22.7609C90.3734 6.54585 119.964 -1.3511 149.827 0.189152C179.69 1.7294 208.31 12.6287 231.633 31.3426C232.391 31.1903 233.163 31.1136 233.936 31.1137C234.768 31.113 235.597 31.1993 236.41 31.3712C238.305 31.7992 240.07 32.6706 241.562 33.9138C243.054 35.157 244.23 36.7366 244.992 38.5226C245.921 40.6054 246.464 42.8395 246.594 45.1162C249.986 48.76 253.185 52.5793 256.177 56.5584C256.759 56.5012 257.359 56.4726 257.979 56.4726C260.115 56.3676 262.243 56.7903 264.176 57.7033C266.11 58.6163 267.788 59.9915 269.064 61.7074C270.159 63.3087 270.86 65.1466 271.109 67.0708C271.357 68.995 271.147 70.9507 270.494 72.7778C270.07 74.0621 269.504 75.2951 268.806 76.4536C279.439 96.8257 284.989 119.467 284.983 142.447C285.047 164.324 280.013 185.915 270.279 205.508L269.893 206.294C260.471 225.175 246.957 241.718 230.335 254.717C213.713 267.717 194.402 276.846 173.807 281.441L173.206 281.57C163.111 283.779 152.804 284.877 142.47 284.845Z" fill="white" />
	<path d="M276.372 142.39C276.403 162.998 271.649 183.332 262.484 201.789C262.384 202.018 262.27 202.247 262.155 202.476C253.258 220.195 240.541 235.719 224.919 247.93C209.298 260.141 191.162 268.733 171.819 273.089L171.319 273.203C147.071 278.548 121.815 277.047 98.3708 268.869C74.9266 260.691 54.217 246.157 38.5544 226.891C22.8917 207.624 12.8925 184.383 9.67332 159.763C6.4541 135.143 10.1415 110.113 20.3239 87.4673C21.8496 84.0823 23.5135 80.745 25.3156 77.4553C30.0612 68.9456 35.7152 60.9753 42.1786 53.6841C42.4646 53.3551 42.7507 53.0405 43.0654 52.7115C50.3422 44.6204 58.5851 37.4536 67.6089 31.3717L69.2823 30.2561C93.6833 14.3329 122.613 6.80418 151.68 8.8124C180.748 10.8206 208.367 22.2562 230.346 41.3837C232.963 43.6578 235.481 46.0178 237.884 48.5351C243.256 53.9847 248.151 59.8847 252.515 66.1704C254.604 69.1883 256.577 72.2634 258.422 75.4529C270.203 95.7923 276.396 118.885 276.372 142.39Z" fill="#07AB6E" />
	<path d="M262.504 201.746C262.403 201.975 262.289 202.204 262.175 202.432C253.277 220.151 240.56 235.676 224.938 247.886C209.317 260.097 191.181 268.69 171.838 273.045L161.183 250.318L157.049 241.45L147.953 222.056C147.953 222.056 101.74 229.837 92.5006 211.829C82.6174 192.506 77.0679 170.065 70.4886 149.526C64.2812 130.117 57.8164 109.993 52.3098 89.9695C49.3777 79.4141 46.5887 68.7871 44.3002 58.0743C43.914 56.3008 43.4564 54.47 43.0845 52.6392C41.926 46.7608 41.74 40.8394 47.833 37.2923C53.2824 34.1886 60.9058 30.3984 67.6281 31.3281C68.7002 31.4851 69.7511 31.7634 70.7604 32.1576C72.5354 32.847 74.0403 34.0911 75.0512 35.7047C76.8521 38.8312 78.4294 42.0813 79.7711 45.4306C80.0143 45.9598 80.2431 46.489 80.472 47.0469C84.2908 56.1291 88.9821 68.6441 93.087 79.9433C93.1872 80.2293 93.2873 80.5011 93.3731 80.7728C98.4077 94.5893 102.441 106.318 102.756 107.204C102.599 106.182 102.566 105.145 102.656 104.115C102.97 100.125 104.987 93.2592 114.455 88.3819C116.745 87.0976 119.132 85.993 121.592 85.078C130.317 82.2174 133.778 84.3485 133.778 84.3485C133.778 84.3485 135.724 73.6357 148.854 68.7728C151.067 67.945 153.35 67.3179 155.676 66.8991H155.991C160.7 65.976 165.564 66.2315 170.15 67.6429C170.279 67.678 170.403 67.7259 170.522 67.7859L170.723 67.8574C166.689 57.2304 155.833 40.3388 162.67 29.2399C166.174 23.5188 179.104 16.6534 184.339 23.6046C187.371 27.638 211.443 82.9325 233.927 135.238C234.17 135.81 234.413 136.396 234.67 136.968C240.12 149.669 245.469 162.17 250.403 173.684C250.575 174.113 250.761 174.528 250.947 174.957L262.504 201.746Z" fill="#F0AB4A" />
	<path d="M84.8616 179.439L95.56 153.837C96.4385 151.712 97.7826 149.81 99.4933 148.273L126.668 123.673C128.915 121.642 131.824 120.499 134.852 120.46C137.88 120.42 140.818 121.486 143.117 123.458L153.472 132.326C155.982 134.461 157.542 137.506 157.81 140.79C158.079 144.075 157.033 147.332 154.902 149.847L137.338 172.502" stroke="#080735" stroke-miterlimit="10" />
	<path d="M147.656 159.476C164.916 156.776 182.572 158.248 199.146 163.767" stroke="#080735" stroke-miterlimit="10" />
	<path d="M109.867 137.861L102.572 104.965C102.572 104.965 100.012 93.2936 117.89 86.3711C122.877 84.3698 128.299 83.6994 133.623 84.4259" stroke="#080735" stroke-miterlimit="10" />
	<path d="M145.314 125.184C142.26 119.124 139.632 112.858 137.447 106.433C133.5 94.3044 129.795 80.9027 142.339 72.6786C150.377 67.4009 161.304 63.8681 170.601 67.787" stroke="#080735" stroke-linecap="round" stroke-linejoin="round" />
	<path d="M155.629 149.422C155.629 149.422 156.845 155.987 167.3 152.097C177.756 148.206 192.359 142.371 190.9 135.563C189.441 128.755 176.297 85.5029 176.297 85.5029" stroke="#080735" stroke-linecap="round" stroke-linejoin="round" />
	<path d="M111.099 137.614C115.73 139.878 120.9 140.81 126.03 140.304C131.16 139.799 136.048 137.877 140.148 134.753C136.334 130.577 132.31 126.567 128.077 122.725" stroke="#080735" stroke-linecap="round" stroke-linejoin="round" />
	<path d="M151.795 130.482C151.939 128.052 152.762 125.712 154.17 123.727C155.578 121.742 157.516 120.193 159.761 119.254C162.134 118.189 164.743 117.761 167.331 118.012C169.92 118.263 172.398 119.184 174.522 120.685C179.084 123.989 181.344 129.552 183.003 134.916L157.387 146.787" stroke="#080735" stroke-linecap="round" stroke-linejoin="round" />
	<path d="M59.5459 169.598C58.5677 169.399 57.5657 169.341 56.571 169.427C55.38 169.503 54.1952 169.656 53.0239 169.884C51.7795 170.113 50.5924 170.385 49.4482 170.7C48.3039 171.014 47.2884 171.286 46.4017 171.572C45.5149 171.858 44.8284 172.087 44.385 172.244C44.7282 171.858 45.2288 171.343 45.8152 170.7C46.4017 170.056 47.1597 169.355 47.9035 168.54C48.6472 167.725 49.3337 166.881 50.0918 165.98C50.7581 165.14 51.3515 164.246 51.8653 163.305C52.3012 162.506 52.6054 161.641 52.7664 160.745C52.841 160.368 52.8388 159.98 52.7602 159.604C52.6816 159.228 52.528 158.872 52.3087 158.557C51.9698 158.042 51.4652 157.658 50.8784 157.47C50.3027 157.303 49.6986 157.259 49.1049 157.341C48.477 157.429 47.8652 157.607 47.2884 157.87C46.7465 158.11 46.2291 158.402 45.7437 158.742C44.7062 159.459 43.7474 160.284 42.8832 161.203C41.9392 162.189 41.0095 163.248 40.137 164.349C39.2646 165.45 38.4207 166.58 37.634 167.753C36.8474 168.926 36.2038 169.999 35.5887 170.971C35.2965 171.537 35.1491 172.166 35.1596 172.802C35.1731 173.446 35.289 174.083 35.5029 174.69C34.6877 174.69 33.7866 174.69 32.7711 174.833C31.7584 174.894 30.7505 175.019 29.7532 175.205C28.7813 175.363 27.8244 175.602 26.8926 175.92C26.036 176.19 25.2222 176.58 24.4754 177.079C23.7997 177.547 23.2575 178.183 22.9021 178.924C22.7348 179.291 22.6742 179.697 22.7273 180.097C22.7804 180.497 22.9451 180.873 23.2025 181.184C23.6712 181.793 24.3396 182.219 25.0905 182.385C26.0653 182.617 27.0634 182.737 28.0655 182.743C29.2748 182.757 30.4837 182.69 31.6841 182.542C32.9713 182.371 34.23 182.199 35.4743 181.985C36.7187 181.77 37.8629 181.555 38.9213 181.355C39.9797 181.155 40.8665 180.955 41.5816 180.826C42.8403 180.611 44.2705 180.311 45.8725 179.954C47.4744 179.596 49.0906 179.181 50.7068 178.709C52.1633 178.27 53.5956 177.755 54.9976 177.165C55.1105 177.13 55.2205 177.087 55.3266 177.036C56.6813 176.494 57.9717 175.803 59.1741 174.976C59.4722 174.764 59.7542 174.529 60.0179 174.275C60.3736 173.961 60.6905 173.606 60.9619 173.217C61.2289 172.843 61.4185 172.42 61.5197 171.973C61.5708 171.767 61.5754 171.552 61.5334 171.345C61.4913 171.137 61.4036 170.941 61.2766 170.771C60.8683 170.176 60.2501 169.757 59.5459 169.598Z" fill="#FFEAD4" />
	<path d="M69.6897 192.098C69.4449 191.607 69.1728 191.129 68.8745 190.668C68.4883 190.024 68.0449 189.324 67.53 188.551C67.0151 187.779 66.4573 186.992 65.8566 186.177C65.2559 185.362 64.6552 184.632 64.0688 183.96C63.5555 183.355 63.0011 182.787 62.4096 182.258C62.0497 181.897 61.6153 181.619 61.1367 181.443L60.6075 181.343C59.5449 181.191 58.4662 181.191 57.4037 181.343C56.8745 181.343 56.3453 181.486 55.816 181.571C54.9579 181.729 54.0854 181.915 53.2416 182.144C51.8113 182.53 50.381 182.973 49.108 183.459C47.8351 183.946 46.5908 184.432 45.5753 184.89L44.2737 185.476C43.673 185.762 43.0008 186.077 42.2427 186.463L39.8398 187.664C38.996 188.094 38.2236 188.494 37.4942 188.894C36.7647 189.295 36.0639 189.667 35.5776 190.01C35.203 190.228 34.8611 190.497 34.5621 190.811C34.2717 191.248 34.0588 191.732 33.9328 192.241C33.7548 192.828 33.6445 193.432 33.6038 194.043C33.5538 194.662 33.5538 195.284 33.6038 195.903C33.626 196.394 33.7324 196.878 33.9185 197.333C34.3594 198.179 34.9288 198.951 35.6062 199.622C36.493 200.608 37.4942 201.595 38.5669 202.582C39.5859 203.516 40.6657 204.381 41.7993 205.171C42.5266 205.753 43.3704 206.173 44.2737 206.401C44.8729 206.406 45.4636 206.258 45.99 205.972C46.3804 205.796 46.7344 205.548 47.0341 205.243C47.345 204.946 47.6016 204.598 47.7922 204.213C47.9788 203.839 48.0814 203.429 48.0926 203.011C48.124 202.579 48.0453 202.146 47.8637 201.753C47.6022 201.205 47.2756 200.691 46.8911 200.222C46.4048 199.564 45.8613 198.892 45.2749 198.206C44.6885 197.519 44.1021 196.861 43.5443 196.246L42.3285 194.887L43.4155 194.229C43.7723 194.011 44.1452 193.819 44.5312 193.657C44.7819 193.54 45.0461 193.453 45.3178 193.4L46.1045 193.257L48.35 195.703C49.098 196.501 49.9009 197.247 50.7529 197.934L51.8113 198.763C52.1659 199.03 52.5498 199.256 52.9555 199.436C53.3437 199.608 53.7611 199.705 54.1855 199.722C54.6479 199.746 55.1093 199.658 55.53 199.464C55.947 199.35 56.3314 199.139 56.6525 198.849C56.9737 198.56 57.2227 198.199 57.3797 197.796C57.5367 197.393 57.5974 196.959 57.5568 196.529C57.5163 196.098 57.3757 195.683 57.1462 195.316C56.6855 194.291 56.0517 193.352 55.2725 192.542C54.5042 191.707 53.6824 190.924 52.8125 190.196C53.4825 189.966 54.1654 189.775 54.8578 189.624L56.9174 189.152C57.2463 189.452 57.8041 190.01 58.6051 190.782C59.406 191.555 60.2499 192.356 61.1653 193.171C62.0807 193.986 62.9817 194.73 63.8542 195.388C64.4469 195.902 65.131 196.3 65.8709 196.561C66.2012 196.621 66.5364 196.649 66.8721 196.647C67.2073 196.619 67.5357 196.536 67.8447 196.403C68.2411 196.224 68.6002 195.972 68.9031 195.66C69.2032 195.355 69.4498 195.002 69.6325 194.616C69.8303 194.23 69.9379 193.805 69.9472 193.371C69.965 192.932 69.8766 192.496 69.6897 192.098Z" fill="#FFEAD4" />
	<path d="M78.2547 206.631C78.0986 205.602 77.652 204.64 76.9674 203.856C76.2725 202.964 75.3333 202.293 74.2642 201.925C73.1676 201.56 72.0154 201.391 70.8601 201.425C69.591 201.466 68.3299 201.643 67.0985 201.954C65.8132 202.264 64.5475 202.651 63.3083 203.112C62.0782 203.556 60.9197 204.042 59.8327 204.543C58.7457 205.043 57.816 205.515 56.9722 205.973C55.5419 206.731 54.0115 207.532 52.5812 208.361C51.1217 209.198 49.7343 210.155 48.4334 211.222C48.0473 211.537 47.5753 211.966 47.0032 212.481C46.4598 212.989 45.9796 213.56 45.5729 214.183C45.1756 214.748 44.8893 215.384 44.729 216.056C44.6527 216.371 44.6545 216.7 44.7342 217.014C44.814 217.328 44.9694 217.618 45.1867 217.859C45.4619 218.221 45.8133 218.52 46.2161 218.732C46.6188 218.945 47.0633 219.066 47.5181 219.089C48.4843 219.141 49.4523 219.025 50.3787 218.745C51.3736 218.464 52.3334 218.071 53.2392 217.572C54.1403 217.086 54.8697 216.643 55.4418 216.257C56.9722 217.687 58.5598 219.117 60.1904 220.547L58.1308 222.392C57.2558 223.126 56.447 223.935 55.7136 224.81C55.0584 225.62 54.5721 226.554 54.2834 227.556C54.1572 228.02 54.1501 228.508 54.2626 228.976C54.3751 229.443 54.6036 229.875 54.927 230.23C55.149 230.527 55.4302 230.774 55.7527 230.956C56.0752 231.139 56.4321 231.252 56.8007 231.289C57.5653 231.339 58.3324 231.242 59.0605 231.003C59.8454 230.744 60.595 230.389 61.2917 229.944C61.9004 229.569 62.4833 229.153 63.0367 228.7C64.5579 227.435 65.9915 226.069 67.3275 224.609C68.7577 223.179 69.9735 221.663 71.2178 220.133C71.747 219.503 72.362 218.788 73.0343 217.973C73.7065 217.158 74.4645 216.3 75.0509 215.384C75.7164 214.47 76.3231 213.515 76.8674 212.524C77.4042 211.577 77.8085 210.562 78.0688 209.506C78.3122 208.568 78.3753 207.592 78.2547 206.631ZM70.188 210.335C69.8588 211.029 69.4353 211.674 68.9293 212.252C68.4028 212.885 67.8342 213.483 67.2273 214.04C66.6266 214.597 66.1832 214.984 65.9115 215.212L64.9103 216.042C63.5801 214.898 62.2928 213.682 61.0342 212.395L62.0354 211.737C62.5074 211.437 63.0366 211.122 63.6373 210.779C64.238 210.435 64.8959 210.078 65.5682 209.735C66.2404 209.391 66.8983 209.105 67.499 208.876C68.019 208.673 68.5617 208.534 69.1152 208.462C69.2916 208.421 69.4752 208.425 69.6498 208.472C69.8245 208.52 69.9847 208.609 70.1164 208.733C70.287 208.963 70.385 209.238 70.3978 209.523C70.4105 209.809 70.3375 210.092 70.188 210.335Z" fill="#FFEAD4" />
	<path d="M98.728 222.802C98.5311 222.087 98.0644 221.477 97.4265 221.1C96.798 220.615 96.0165 220.371 95.2238 220.413C94.5721 220.509 93.9588 220.781 93.4503 221.2C92.9073 221.671 92.4266 222.209 92.02 222.802L90.7471 224.561C89.8889 225.705 89.045 226.878 88.2298 228.051L85.7697 231.627L81.4789 229.596L83.5242 226.735C84.2107 225.82 84.8686 224.847 85.5122 223.875L87.1714 221.372C87.7689 220.484 88.2496 219.522 88.6017 218.511C88.926 217.594 89 216.606 88.8162 215.651C88.6875 215.138 88.4547 214.658 88.1324 214.24C87.81 213.822 87.405 213.474 86.9425 213.219C86.6395 212.985 86.2903 212.818 85.918 212.73C85.5457 212.641 85.1587 212.632 84.7828 212.704C84.1055 212.894 83.483 213.242 82.9664 213.72C82.3742 214.248 81.8505 214.849 81.4074 215.508C80.9354 216.194 80.5206 216.795 80.1487 217.295C79.0474 218.854 77.989 220.442 76.9592 222.03C75.9294 223.617 74.8853 225.162 73.7983 226.692C72.7113 228.223 71.6958 229.553 70.5945 230.983C69.4931 232.413 68.4776 233.844 67.4907 235.274C67.1748 235.75 66.911 236.258 66.7041 236.79C66.4874 237.321 66.3477 237.879 66.2893 238.449C66.2472 238.995 66.3304 239.543 66.5325 240.051C66.7753 240.601 67.1792 241.065 67.691 241.381C68.0817 241.666 68.5304 241.861 69.005 241.952C69.4797 242.044 69.9686 242.029 70.4371 241.91C71.3903 241.619 72.2721 241.132 73.0259 240.48C73.8364 239.796 74.5832 239.04 75.2572 238.22C75.9437 237.362 76.5444 236.647 77.045 236.046L80.9783 238.106C80.3346 238.85 79.7196 239.622 79.1189 240.423C78.5182 241.224 77.9604 242.039 77.4169 242.854C77.0939 243.343 76.8479 243.879 76.6874 244.442C76.5463 244.983 76.4884 245.543 76.5158 246.101C76.5555 246.643 76.7116 247.17 76.9735 247.646C77.2453 248.162 77.6502 248.597 78.1463 248.905C78.4182 249.095 78.7249 249.229 79.0489 249.3C79.3729 249.372 79.7078 249.378 80.0343 249.319C80.7489 249.189 81.4271 248.906 82.0224 248.49C82.7328 248.02 83.3815 247.462 83.9532 246.831C84.554 246.173 85.1404 245.5 85.6982 244.814C86.256 244.127 86.7566 243.469 87.2 242.854L88.2584 241.424C89.7745 239.45 91.262 237.477 92.7351 235.474C94.2083 233.472 95.5957 231.412 97.026 229.353L97.3406 228.866C97.7235 228.272 98.0628 227.65 98.3561 227.007C98.6785 226.313 98.9001 225.576 99.0141 224.819C99.0498 224.134 98.9527 223.449 98.728 222.802Z" fill="#FFEAD4" />
	<path d="M108.865 224.985C108.779 224.657 108.614 224.355 108.385 224.106C108.155 223.857 107.868 223.667 107.549 223.554C106.875 223.26 106.116 223.224 105.418 223.454C104.715 223.709 104.079 224.12 103.558 224.656C102.952 225.27 102.423 225.957 101.985 226.701C101.499 227.488 101.055 228.303 100.641 229.132C100.226 229.962 99.8825 230.763 99.5964 231.521L98.8527 233.423C98.6524 233.919 98.3807 234.634 98.0374 235.569C97.6798 236.513 97.3365 237.543 96.9933 238.672C96.65 239.802 96.3353 240.947 96.0636 242.148C95.7946 243.257 95.6176 244.386 95.5344 245.524C95.4513 246.434 95.514 247.351 95.7203 248.241C95.7835 248.572 95.9275 248.883 96.1396 249.145C96.3517 249.407 96.6253 249.612 96.936 249.743C97.1963 249.837 97.4746 249.871 97.7497 249.841C98.0249 249.811 98.2896 249.719 98.5236 249.571C99.1728 249.201 99.7495 248.717 100.226 248.141C100.857 247.458 101.44 246.731 101.971 245.967C102.528 245.137 103.029 244.308 103.487 243.478C103.944 242.649 104.331 241.862 104.688 241.118C105.046 240.375 105.303 239.788 105.475 239.345L106.347 237.199C106.719 236.298 107.091 235.297 107.463 234.21C107.835 233.123 108.192 232.007 108.493 230.849C108.789 229.787 108.99 228.7 109.094 227.602C109.17 226.723 109.092 225.837 108.865 224.985ZM98.2805 252.99C97.8832 252.461 97.3419 252.059 96.7215 251.831C96.304 251.673 95.8654 251.576 95.4199 251.545C94.9394 251.514 94.4569 251.557 93.9896 251.674C93.5432 251.771 93.1203 251.956 92.7453 252.217C92.3812 252.46 92.1014 252.81 91.9443 253.218C91.8042 253.514 91.7513 253.843 91.7918 254.167C91.8324 254.492 91.9647 254.798 92.1732 255.049C92.5807 255.57 93.1184 255.975 93.7322 256.222C94.1572 256.377 94.5988 256.483 95.048 256.537C95.5216 256.614 96.0047 256.614 96.4783 256.537C96.9188 256.448 97.3341 256.262 97.6941 255.993C98.0665 255.719 98.35 255.341 98.5093 254.906C98.6586 254.598 98.7163 254.254 98.6758 253.914C98.6352 253.575 98.498 253.254 98.2805 252.99Z" fill="#FFEAD4" />
	<path d="M224.196 53.7373C224.749 50.7264 225.711 47.8053 227.057 45.0555C228.273 42.7099 231.176 38.6479 234.308 39.3344C234.879 39.5051 235.401 39.8058 235.836 40.2129C236.27 40.6199 236.604 41.1221 236.811 41.6801C239.214 47.0007 236.225 53.8661 233.951 58.7004C232.749 61.2892 222.937 80.2833 221.078 79.6683C219.533 79.1105 223.61 56.5121 224.196 53.7373Z" fill="#F07568" />
	<path d="M244.592 70.0377C247.023 68.1864 249.693 66.671 252.53 65.5323C255.018 64.6313 259.896 63.5872 261.755 66.2046C262.058 66.7161 262.239 67.2907 262.284 67.8836C262.329 68.4766 262.236 69.0718 262.012 69.623C260.196 75.1725 253.345 78.2047 248.41 80.2643C245.779 81.3513 225.726 88.7458 224.796 87.0581C224.01 85.5992 242.275 71.6826 244.592 70.0377Z" fill="#F07568" />
	<path d="M254.901 96.0432C257.947 96.3334 260.94 97.0358 263.797 98.1315C266.229 99.1613 270.534 101.693 270.134 104.868C270.012 105.451 269.758 105.998 269.391 106.467C269.024 106.936 268.553 107.314 268.017 107.571C262.911 110.432 255.816 108.029 250.853 106.141C248.179 105.154 228.412 97.0158 228.87 95.1708C229.213 93.5546 252.098 95.6857 254.901 96.0432Z" fill="#F07568" />
	<path d="M43.5631 141.755C42.1284 144.454 40.3337 146.947 38.2282 149.163C36.3402 151.023 32.3497 153.998 29.5607 152.41C29.0698 152.073 28.6642 151.626 28.3762 151.104C28.0883 150.583 27.9257 150.002 27.9015 149.407C27.2436 143.6 32.1924 137.964 35.8253 134.074C37.7705 131.986 52.9887 116.911 54.4189 118.041C55.8492 119.171 44.9791 139.309 43.5631 141.755Z" fill="#F07568" />
	<path d="M29.1448 119.995C26.2626 121.018 23.2558 121.648 20.2056 121.869C17.5738 121.955 12.6108 121.454 11.6239 118.408C11.4919 117.828 11.4955 117.226 11.6344 116.648C11.7733 116.07 12.0438 115.531 12.4248 115.075C15.8575 110.341 23.3093 109.526 28.6299 109.097C31.4905 108.868 52.8159 107.967 53.1878 109.855C53.5168 111.485 31.848 119.094 29.1448 119.995Z" fill="#F07568" />
	<path d="M27.2866 92.0993C24.4753 90.9002 21.8389 89.327 19.4486 87.4223C17.4463 85.706 14.0708 81.973 15.5011 79.0409C15.7963 78.5212 16.2085 78.0774 16.705 77.7448C17.2015 77.4121 17.7688 77.1997 18.3617 77.1243C24.0828 75.9658 30.1185 80.414 34.3236 83.7036C36.5691 85.4629 52.9171 99.2651 51.8873 100.867C50.8575 102.469 29.8038 93.3437 27.2866 92.0993Z" fill="#F07568" />
	<path d="M151.302 16.05L118.777 46.8583L137.871 43.8976L119.249 73.4472L153.948 35.6592L137.9 37.0036L151.302 16.05Z" fill="#F09527" />
	<path d="M183.738 256.745L145.078 234.132L153.259 251.638L119.676 242.041L165.659 264.768L159.881 249.751L183.738 256.745Z" fill="#F09527" />
	<path d="M230.133 136.126L237.842 133.266C239.397 132.703 240.743 131.678 241.699 130.328C242.655 128.978 243.176 127.368 243.191 125.714L243.277 114.844C243.289 114.798 243.316 114.757 243.353 114.729C243.391 114.7 243.437 114.684 243.484 114.684C243.531 114.684 243.578 114.7 243.615 114.729C243.653 114.757 243.679 114.798 243.692 114.844L245.966 124.441C246.385 126.241 247.406 127.844 248.86 128.985C250.313 130.127 252.113 130.739 253.961 130.72H259.396C259.449 130.71 259.504 130.722 259.548 130.753C259.592 130.784 259.623 130.831 259.632 130.884C259.642 130.937 259.63 130.992 259.599 131.036C259.568 131.081 259.521 131.111 259.468 131.12L253.646 133.351C252.042 133.969 250.674 135.081 249.741 136.525C248.808 137.97 248.358 139.673 248.454 141.39L248.955 150.114C248.957 150.165 248.941 150.215 248.91 150.255C248.879 150.296 248.834 150.323 248.784 150.334C248.734 150.344 248.682 150.336 248.638 150.312C248.593 150.287 248.558 150.248 248.54 150.2L245.537 141.847C244.964 140.253 243.908 138.878 242.515 137.914C241.123 136.949 239.464 136.444 237.77 136.47L230.261 136.598C230.23 136.607 230.198 136.609 230.166 136.605C230.134 136.601 230.103 136.591 230.076 136.575C230.048 136.559 230.023 136.537 230.004 136.512C229.984 136.487 229.969 136.458 229.961 136.427C229.952 136.396 229.95 136.363 229.954 136.331C229.958 136.3 229.969 136.269 229.985 136.241C230 136.213 230.022 136.188 230.047 136.169C230.073 136.149 230.102 136.135 230.133 136.126Z" fill="#FFEAD4" />
	<path d="M218.462 175.461L223.081 171.628C224.013 170.852 224.685 169.81 225.008 168.642C225.33 167.473 225.287 166.234 224.884 165.091L222.266 157.582C222.261 157.549 222.267 157.515 222.283 157.485C222.299 157.456 222.324 157.432 222.355 157.417C222.385 157.403 222.419 157.399 222.452 157.405C222.485 157.412 222.515 157.429 222.538 157.453L226.443 163.504C227.174 164.641 228.272 165.493 229.554 165.92C230.837 166.347 232.227 166.322 233.494 165.849L237.213 164.419C237.37 164.419 237.499 164.576 237.37 164.676L233.923 167.666C232.968 168.484 232.299 169.585 232.014 170.81C231.728 172.034 231.841 173.318 232.335 174.474L234.824 180.367C234.833 180.399 234.831 180.434 234.818 180.466C234.805 180.497 234.783 180.524 234.754 180.541C234.725 180.559 234.691 180.567 234.657 180.564C234.624 180.561 234.592 180.547 234.567 180.524L230.39 175.461C229.605 174.504 228.539 173.818 227.343 173.5C226.147 173.182 224.882 173.247 223.725 173.687L218.576 175.618C218.542 175.608 218.512 175.588 218.492 175.559C218.471 175.531 218.46 175.496 218.462 175.461Z" fill="#FFEAD4" />
	<path d="M248.025 175.333L252.63 171.499C253.563 170.725 254.237 169.684 254.561 168.516C254.886 167.347 254.846 166.108 254.447 164.963L251.844 157.383C251.839 157.349 251.845 157.315 251.861 157.286C251.877 157.256 251.902 157.232 251.932 157.218C251.962 157.204 251.997 157.199 252.03 157.206C252.063 157.212 252.093 157.229 252.115 157.254L256.02 163.304C256.754 164.442 257.854 165.296 259.139 165.722C260.425 166.149 261.817 166.123 263.086 165.65L266.79 164.219C266.823 164.211 266.858 164.213 266.889 164.225C266.921 164.238 266.947 164.26 266.965 164.289C266.983 164.318 266.99 164.352 266.987 164.386C266.984 164.42 266.97 164.452 266.947 164.477L263.5 167.466C262.546 168.284 261.877 169.386 261.591 170.61C261.306 171.835 261.418 173.118 261.913 174.274L264.402 180.167C264.41 180.2 264.408 180.234 264.396 180.266C264.383 180.297 264.361 180.324 264.332 180.342C264.303 180.359 264.269 180.367 264.235 180.364C264.201 180.361 264.169 180.347 264.144 180.324L260.011 175.318C259.225 174.362 258.16 173.676 256.964 173.358C255.768 173.04 254.502 173.105 253.345 173.545L248.197 175.476C248.175 175.48 248.154 175.479 248.133 175.474C248.112 175.469 248.093 175.459 248.076 175.445C248.06 175.432 248.047 175.414 248.038 175.395C248.029 175.375 248.024 175.354 248.025 175.333Z" fill="#FFEAD4" />
	<path d="M75.6071 47.0226L82.358 44.5625C83.7189 44.0641 84.8962 43.1639 85.734 41.9813C86.5718 40.7987 87.0305 39.3895 87.0494 37.9403L87.1209 28.4147C87.132 28.3758 87.1555 28.3416 87.1877 28.3173C87.22 28.2929 87.2593 28.2798 87.2997 28.2798C87.3401 28.2798 87.3794 28.2929 87.4117 28.3173C87.444 28.3416 87.4674 28.3758 87.4785 28.4147L89.4236 36.8247C89.7965 38.4028 90.6946 39.8072 91.9706 40.8078C93.2466 41.8083 94.8248 42.3455 96.4463 42.3313H101.195C101.24 42.3313 101.284 42.3494 101.316 42.3815C101.348 42.4137 101.366 42.4574 101.366 42.5029C101.366 42.5484 101.348 42.5921 101.316 42.6243C101.284 42.6565 101.24 42.6745 101.195 42.6745L96.1602 44.4767C94.7388 45.0282 93.5308 46.0195 92.7125 47.306C91.8943 48.5926 91.5086 50.1069 91.6119 51.6281L92.0409 59.2801C92.0409 59.3256 92.0228 59.3693 91.9906 59.4014C91.9585 59.4336 91.9148 59.4517 91.8693 59.4517C91.8238 59.4517 91.7801 59.4336 91.7479 59.4014C91.7157 59.3693 91.6976 59.3256 91.6976 59.2801L89.0517 51.957C88.5314 50.5821 87.6001 49.4008 86.3844 48.5742C85.1687 47.7475 83.7278 47.3156 82.2579 47.3372L75.6786 47.4374C75.6236 47.4468 75.5671 47.4341 75.5215 47.4019C75.4759 47.3697 75.4449 47.3207 75.4354 47.2657C75.426 47.2107 75.4387 47.1542 75.4709 47.1086C75.5031 47.063 75.5521 47.0321 75.6071 47.0226Z" fill="#FFEAD4" />
	<path d="M65.3887 81.4131L69.4364 78.0519C70.2526 77.3737 70.842 76.4623 71.1257 75.4398C71.4094 74.4174 71.374 73.3326 71.024 72.3308L68.7212 65.7515C68.7103 65.7218 68.7107 65.6891 68.7224 65.6597C68.734 65.6302 68.7562 65.6061 68.7845 65.592C68.8128 65.5778 68.8453 65.5746 68.8759 65.5829C68.9064 65.5912 68.9329 65.6105 68.9501 65.6371L72.3685 70.9434C73.0134 71.9388 73.9789 72.6841 75.1051 73.056C76.2313 73.428 77.4507 73.4042 78.5616 72.9887L81.8226 71.7873C81.8502 71.7787 81.8798 71.7796 81.9068 71.7899C81.9337 71.8001 81.9565 71.8192 81.9713 71.8439C81.9862 71.8687 81.9923 71.8977 81.9887 71.9263C81.985 71.955 81.9719 71.9816 81.9513 72.0018L78.9192 74.5763C78.0801 75.2911 77.4895 76.2537 77.2325 77.3255C76.9755 78.3973 77.0653 79.523 77.4889 80.5406L79.6773 85.7039C79.6858 85.7314 79.6849 85.7611 79.6747 85.7881C79.6644 85.815 79.6454 85.8378 79.6206 85.8526C79.5959 85.8675 79.5668 85.8736 79.5382 85.8699C79.5096 85.8663 79.483 85.8532 79.4627 85.8326L75.8298 81.456C75.1389 80.6187 74.2036 80.0183 73.1548 79.7388C72.1059 79.4592 70.9958 79.5145 69.9799 79.897L65.5032 81.6419C65.4735 81.6528 65.4408 81.6524 65.4113 81.6408C65.3819 81.6291 65.3578 81.607 65.3436 81.5787C65.3295 81.5503 65.3262 81.5178 65.3346 81.4872C65.3429 81.4567 65.3622 81.4303 65.3887 81.4131Z" fill="#FFEAD4" />
	<path d="M91.249 81.3015L95.2967 77.9403C96.1128 77.2621 96.7022 76.3508 96.986 75.3283C97.2697 74.3058 97.2342 73.221 96.8843 72.2192L94.5815 65.6399C94.5706 65.6102 94.571 65.5775 94.5827 65.5481C94.5943 65.5186 94.6164 65.4945 94.6448 65.4804C94.6731 65.4662 94.7056 65.463 94.7362 65.4713C94.7667 65.4797 94.7931 65.4989 94.8103 65.5255L98.2287 70.8318C98.8737 71.8272 99.8391 72.5725 100.965 72.9445C102.092 73.3164 103.311 73.2926 104.422 72.8771L107.683 71.6757C107.71 71.6671 107.74 71.668 107.767 71.6783C107.794 71.6886 107.817 71.7076 107.832 71.7324C107.846 71.7571 107.853 71.7861 107.849 71.8148C107.845 71.8434 107.832 71.87 107.812 71.8903L104.808 74.4648C103.969 75.1795 103.378 76.1421 103.121 77.2139C102.864 78.2857 102.954 79.4115 103.378 80.429L105.552 85.6352C105.569 85.6656 105.573 85.7014 105.564 85.735C105.554 85.7685 105.532 85.7969 105.502 85.814C105.471 85.8311 105.436 85.8354 105.402 85.826C105.368 85.8166 105.34 85.7943 105.323 85.7639L101.704 81.3873C101.014 80.55 100.078 79.9496 99.0293 79.6701C97.9804 79.3906 96.8704 79.4459 95.8545 79.8283L91.3492 81.5303C91.3208 81.5351 91.2917 81.5303 91.2665 81.5167C91.2412 81.503 91.2212 81.4813 91.2097 81.455C91.1982 81.4287 91.1958 81.3993 91.203 81.3715C91.2101 81.3437 91.2263 81.319 91.249 81.3015Z" fill="#FFEAD4" />
</svg>
